<svg xmlns="http://www.w3.org/2000/svg" viewBox="0 0 120.05 139.36"><defs><style>.cls-1{fill:#b4beb1;}</style></defs><title>Asset 113</title><g id="Layer_2" data-name="Layer 2"><g id="Layer_1-2" data-name="Layer 1"><path class="cls-1" d="M115.39,62.56a15.81,15.81,0,0,0-11.25-4.67H72.6l.84-2.62c2.25-7,1.93-21.25,1.69-31.68-.06-2.71-.12-5-.12-7A17.51,17.51,0,0,0,57.58,0,16.93,16.93,0,0,0,45.41,5.17a3.51,3.51,0,0,0-.65.93c-2.13,4.43-4.18,9-6.16,13.45-9.37,21-18.2,40.75-36.54,49.08A3.51,3.51,0,0,0,5,75c21.34-9.71,31.79-33.59,40.18-52.79,1.89-4.32,3.67-8.4,5.5-12.18l.18-.38.31-.27A9.86,9.86,0,0,1,57.57,7,10.49,10.49,0,0,1,68,17.33c.22,3.08.79,34.43-4.07,42.22a3.51,3.51,0,0,0,3,5.38h37.23a8.89,8.89,0,0,1,0,17.78H98.63a3.51,3.51,0,1,0,0,7,8.89,8.89,0,1,1,0,17.78H93.11a3.51,3.51,0,0,0,0,7,8.89,8.89,0,0,1,0,17.79h-51c-9.1,0-18-5.21-25-14.64C10.81,109.2,7,98.46,7,89V86.22a3.51,3.51,0,1,0-7,0V89C0,100.47,4.69,113.21,12.5,123c8.35,10.51,18.86,16.3,29.61,16.31h51a15.92,15.92,0,0,0,13.4-24.51l-1.09-1.7,1.82-1.14A15.9,15.9,0,0,0,112,90l-1.09-1.69,1.7-1.08a15.92,15.92,0,0,0,2.75-24.71Z"/></g></g></svg>