<svg xmlns="http://www.w3.org/2000/svg" viewBox="0 0 148.13 148.13"><defs><style>.cls-1{fill:none;}.cls-2{fill:#b4beb1;}</style></defs><title>Asset 115</title><g id="Layer_2" data-name="Layer 2"><g id="Layer_1-2" data-name="Layer 1"><path class="cls-1" d="M74.07,8.77A66.3,66.3,0,0,1,131,41.07a65.73,65.73,0,0,0-113.78,0A66.3,66.3,0,0,1,74.07,8.77Z"/><path class="cls-1" d="M16.17,42.85c.22-.39.43-.77.65-1.16C16.6,42.08,16.38,42.46,16.17,42.85Z"/><path class="cls-1" d="M131.31,41.69c.22.38.44.77.66,1.16C131.76,42.46,131.53,42.08,131.31,41.69Z"/><path class="cls-2" d="M74.79,37.12v3.37l4.92-2.57a3.6,3.6,0,0,0,1.94-3.2V31.29l-5,2.64A3.6,3.6,0,0,0,74.79,37.12Z"/><path class="cls-2" d="M68.42,37.92l4.92,2.57V37.12a3.6,3.6,0,0,0-1.91-3.19l-5-2.64v3.42A3.6,3.6,0,0,0,68.42,37.92Z"/><path class="cls-2" d="M74.79,45.09v3.37l4.92-2.57a3.61,3.61,0,0,0,1.94-3.2V39.26l-5,2.64A3.61,3.61,0,0,0,74.79,45.09Z"/><path class="cls-2" d="M68.42,45.89l4.92,2.57V45.09a3.61,3.61,0,0,0-1.91-3.19l-5-2.64v3.42A3.6,3.6,0,0,0,68.42,45.89Z"/><path class="cls-2" d="M74.79,53.07v3.36l4.92-2.56a3.61,3.61,0,0,0,1.94-3.2V47.24l-5,2.64A3.6,3.6,0,0,0,74.79,53.07Z"/><path class="cls-2" d="M68.42,53.87l4.92,2.57V53.07a3.61,3.61,0,0,0-1.91-3.19l-5-2.64v3.42A3.6,3.6,0,0,0,68.42,53.87Z"/><path class="cls-2" d="M74.07,34.56l2.1-3.3a3.61,3.61,0,0,0-.09-4l-2-2.88-2,2.88a3.6,3.6,0,0,0-.09,4Z"/><path class="cls-2" d="M94.08,37.12v3.37L99,37.92a3.6,3.6,0,0,0,1.94-3.2V31.29l-5,2.64A3.6,3.6,0,0,0,94.08,37.12Z"/><polygon class="cls-2" points="92.64 40.48 92.64 40.48 92.64 40.48 92.64 40.48"/><path class="cls-2" d="M87.71,37.92l4.92,2.57V37.12a3.6,3.6,0,0,0-1.91-3.19l-5-2.64v3.42A3.6,3.6,0,0,0,87.71,37.92Z"/><path class="cls-2" d="M94.08,45.09v3.37L99,45.89a3.6,3.6,0,0,0,1.94-3.2V39.26l-5,2.64A3.61,3.61,0,0,0,94.08,45.09Z"/><path class="cls-2" d="M87.71,45.89l4.92,2.57V45.09a3.6,3.6,0,0,0-1.91-3.19l-5-2.64v3.42A3.6,3.6,0,0,0,87.71,45.89Z"/><polygon class="cls-2" points="92.64 48.46 92.64 48.46 92.64 48.46 92.64 48.46"/><path class="cls-2" d="M94.08,53.07v3.36L99,53.87a3.6,3.6,0,0,0,1.94-3.2V47.24l-5,2.64A3.6,3.6,0,0,0,94.08,53.07Z"/><path class="cls-2" d="M87.71,53.87l4.92,2.57V53.07a3.6,3.6,0,0,0-1.91-3.19l-5-2.64v3.42A3.6,3.6,0,0,0,87.71,53.87Z"/><polygon class="cls-2" points="92.64 56.44 92.64 56.44 92.64 56.44 92.64 56.44"/><path class="cls-2" d="M93.36,34.56l2.1-3.3a3.6,3.6,0,0,0-.09-4l-2-2.88-2,2.88a3.6,3.6,0,0,0-.09,4Z"/><path class="cls-2" d="M55.77,37.12v3.37l4.92-2.57a3.6,3.6,0,0,0,1.94-3.2V31.29l-5,2.64A3.6,3.6,0,0,0,55.77,37.12Z"/><path class="cls-2" d="M49.41,37.92l4.92,2.57V37.12a3.6,3.6,0,0,0-1.91-3.19l-5-2.64v3.42A3.6,3.6,0,0,0,49.41,37.92Z"/><path class="cls-2" d="M55.77,45.09v3.37l4.92-2.57a3.61,3.61,0,0,0,1.94-3.2V39.26l-5,2.64A3.61,3.61,0,0,0,55.77,45.09Z"/><path class="cls-2" d="M49.41,45.89l4.92,2.57V45.09a3.61,3.61,0,0,0-1.91-3.19l-5-2.64v3.42A3.6,3.6,0,0,0,49.41,45.89Z"/><path class="cls-2" d="M55.77,53.07v3.36l4.92-2.56a3.61,3.61,0,0,0,1.94-3.2V47.24l-5,2.64A3.6,3.6,0,0,0,55.77,53.07Z"/><path class="cls-2" d="M54.33,53.07a3.61,3.61,0,0,0-1.91-3.19l-5-2.64v3.42a3.6,3.6,0,0,0,1.94,3.2l4.92,2.57Z"/><path class="cls-2" d="M55.05,34.56l2.1-3.3a3.6,3.6,0,0,0-.09-4l-2-2.88-2,2.88a3.6,3.6,0,0,0-.09,4Z"/><rect class="cls-2" x="54.22" y="57.7" width="1.65" height="11.73"/><rect class="cls-2" x="73.24" y="57.7" width="1.65" height="11.73"/><rect class="cls-2" x="92.53" y="57.7" width="1.65" height="11.73"/><path class="cls-1" d="M74.07,139.87A65.88,65.88,0,0,0,139.69,78.7H8.44A65.88,65.88,0,0,0,74.07,139.87Zm16.76-20.41A2.19,2.19,0,1,1,93,117.27,2.19,2.19,0,0,1,90.82,119.45Zm35.7-33.15a2.19,2.19,0,1,1-2.19,2.19A2.19,2.19,0,0,1,126.52,86.3Zm-6.46,10.35a2.19,2.19,0,1,1-2.19,2.19A2.19,2.19,0,0,1,120.06,96.65ZM114,83.46a2.41,2.41,0,1,1-2.41,2.41A2.41,2.41,0,0,1,114,83.46ZM113.69,114a3.28,3.28,0,1,1-3.28,3.28A3.28,3.28,0,0,1,113.69,114Zm-9.84-10.79-2.65-19.54a1.39,1.39,0,1,1-1.39,1.39A1.39,1.39,0,0,1,101.21,83.66Zm-1.65,9.4a1.39,1.39,0,1,1-1.39,1.39A1.39,1.39,0,0,1,99.55,93.06Zm.42,12.6a2.19,2.19,0,1,1-2.19,2.19A2.19,2.19,0,0,1,100,105.66ZM94.1,99.92a3.28,3.28,0,1,1-3.28-3.28A3.28,3.28,0,0,1,94.1,99.92ZM85.76,86.1a3.28,3.28,0,1,1-3.28,3.28A3.28,3.28,0,0,1,85.76,86.1Zm-3.28,16.35a1.39,1.39,0,1,1-1.39,1.39A1.39,1.39,0,0,1,82.48,102.46ZM78.11,123a3.28,3.28,0,1,1-3.28,3.28A3.28,3.28,0,0,1,78.11,123Zm-13.72-4a2.19,2.19,0,1,1,2.19-2.19A2.19,2.19,0,0,1,64.39,119.08Zm6.75-12.45A1.39,1.39,0,1,1,69.75,108,1.39,1.39,0,0,1,71.14,106.63Zm-4-23.81A2.19,2.19,0,1,1,65,85,2.19,2.19,0,0,1,67.17,82.82ZM64.58,94.45a3.28,3.28,0,1,1-3.28,3.28A3.28,3.28,0,0,1,64.58,94.45Zm-6.81,6.75a1.39,1.39,0,1,1-1.39,1.39A1.39,1.39,0,0,1,57.77,101.2Zm-2.54,22.93a2.19,2.19,0,1,1-2.19,2.19A2.19,2.19,0,0,1,55.24,124.13Zm-4.38-38a2.19,2.19,0,1,1-2.19,2.19A2.19,2.19,0,0,1,50.86,86.12Zm-4,25.38a1.39,1.39,0,1,1-1.39,1.39A1.39,1.39,0,0,1,46.89,111.5Zm-5.18-16a2.19,2.19,0,1,1-2.19,2.19A2.19,2.19,0,0,1,41.71,95.54Zm-4.77,21.53a1.39,1.39,0,1,1-1.39-1.39A1.39,1.39,0,0,1,36.94,117.07ZM33.37,82.92A1.39,1.39,0,1,1,32,84.31,1.39,1.39,0,0,1,33.37,82.92Zm-2.49,20.45a3.78,3.78,0,1,1-3.78,3.78A3.78,3.78,0,0,1,30.88,103.37ZM17.16,99.92a2.19,2.19,0,1,1,2.19-2.19A2.19,2.19,0,0,1,17.16,99.92Zm4.87-10a1.39,1.39,0,1,1,1.39-1.39A1.39,1.39,0,0,1,22,89.88Z"/><circle class="cls-2" cx="120.06" cy="98.84" r="2.19"/><circle class="cls-2" cx="113.96" cy="85.87" r="2.41"/><circle class="cls-2" cx="85.76" cy="89.38" r="3.28"/><circle class="cls-2" cx="90.82" cy="99.92" r="3.28"/><circle class="cls-2" cx="107.82" cy="99.92" r="3.28"/><circle class="cls-2" cx="126.52" cy="88.49" r="2.19"/><circle class="cls-2" cx="99.55" cy="94.45" r="1.39"/><circle class="cls-2" cx="101.21" cy="85.05" r="1.39"/><circle class="cls-2" cx="67.17" cy="85" r="2.19"/><circle class="cls-2" cx="64.58" cy="97.73" r="3.28"/><circle class="cls-2" cx="41.71" cy="97.73" r="2.19"/><circle class="cls-2" cx="22.03" cy="88.49" r="1.39"/><circle class="cls-2" cx="50.86" cy="88.31" r="2.19"/><circle class="cls-2" cx="33.37" cy="84.31" r="1.39"/><circle class="cls-2" cx="113.69" cy="117.27" r="3.28"/><circle class="cls-2" cx="90.82" cy="117.27" r="2.19"/><circle class="cls-2" cx="71.14" cy="108.02" r="1.39"/><circle class="cls-2" cx="99.97" cy="107.85" r="2.19"/><circle class="cls-2" cx="82.48" cy="103.85" r="1.39"/><circle class="cls-2" cx="78.11" cy="126.31" r="3.28"/><circle class="cls-2" cx="55.24" cy="126.31" r="2.19"/><circle class="cls-2" cx="35.55" cy="117.07" r="1.39"/><circle class="cls-2" cx="64.39" cy="116.9" r="2.19"/><circle class="cls-2" cx="46.89" cy="112.89" r="1.39"/><circle class="cls-2" cx="30.88" cy="107.15" r="2.78"/><path class="cls-2" d="M30.88,103.87a3.28,3.28,0,1,1-3.28,3.28A3.28,3.28,0,0,1,30.88,103.87Z"/><circle class="cls-2" cx="17.16" cy="97.73" r="2.19"/><circle class="cls-2" cx="57.77" cy="102.59" r="1.39"/><path class="cls-2" d="M74.07,0a74.07,74.07,0,1,0,74.07,74.07A74.15,74.15,0,0,0,74.07,0ZM7.41,69.9a66.78,66.78,0,0,1,133.31,0l0,.53h-.57c0,.17,0,.33,0,.5H7.91c0-.17,0-.33,0-.5H7.38Zm133.31,8.33a66.78,66.78,0,0,1-133.31,0l0-.53H140.75Z"/><rect class="cls-2" x="74.89" y="70.43" width="17.64" height="0.5"/><rect class="cls-2" x="55.88" y="70.43" width="17.36" height="0.5"/><path class="cls-2" d="M94.18,70.93h46c0-.17,0-.33,0-.5h-46Z"/><path class="cls-2" d="M8,70.43c0,.17,0,.33,0,.5H54.22v-.5Z"/><rect class="cls-2" x="54.22" y="70.43" width="1.65" height="0.5"/><rect class="cls-2" x="73.24" y="70.43" width="1.65" height="0.5"/><rect class="cls-2" x="92.53" y="70.43" width="1.65" height="0.5"/><rect class="cls-2" x="54.22" y="69.43" width="1.65" height="0.5"/><rect class="cls-2" x="73.24" y="69.43" width="1.65" height="0.5"/><rect class="cls-2" x="92.53" y="69.43" width="1.65" height="0.5"/><rect class="cls-2" x="54.22" y="69.93" width="1.65" height="0.5"/><rect class="cls-2" x="73.24" y="69.93" width="1.65" height="0.5"/><rect class="cls-2" x="92.53" y="69.93" width="1.65" height="0.5"/></g></g></svg>