<svg xmlns="http://www.w3.org/2000/svg" viewBox="0 0 154.74 196.83"><defs><style>.cls-1{fill:#b4beb1;stroke:#b4beb1;stroke-miterlimit:10;stroke-width:0.75px;}</style></defs><title>Asset 116</title><g id="Layer_2" data-name="Layer 2"><g id="Layer_1-2" data-name="Layer 1"><path class="cls-1" d="M153.5,110.27c-2.93-2.68-7-6.49-11.31-10.52-12-11.22-20-18.68-22.22-20C112.57,75.19,106,74,100.54,76s-8.35,7.07-9.39,9.46l-.08,0a33.34,33.34,0,0,0-7.44,3.77q-.12-1.51-.27-3.23c-1.68-19.55-4.79-55.95,3.33-82.26a2.65,2.65,0,0,0-4.62-2.41c-.49.63-8.22,10.91-11.15,37.72a20.24,20.24,0,0,0-6.86-2.32h-.16c-.1-.13-.18-.27-.29-.4s-3.28-4.92-11.15-5.78C46,29.88,38.38,32.1,29.83,37.17c-1.69,1-3.76,2.29-6,3.7C17.11,45.07,8,50.81,3,51.64a2.65,2.65,0,0,0-.27,5.28h.1a2.89,2.89,0,0,0,.63,0c.74-.1,2-.23,3.64-.41,37.44-4.1,54.21-8.25,57.33-14.24,4.78,1.11,5.71,3.12,5.87,3.62a263.89,263.89,0,0,0,1.39,47.3l.09.89A88.07,88.07,0,0,1,68,132.34c-18-16.63-31.65-13.25-40.19-6.93-5.69,4.22-9,9.52-9.79,15.75-1.51,11.68,6.12,24,12.77,32.3.72.89,1.32,1.62,1.76,2.16l.74.87c29.58,30,45.06,18.32,50.15,14.48l1.06-.79c15.65-13.93,1.28-36.72-5.69-46a91.66,91.66,0,0,0,5.39-48.5,11.86,11.86,0,0,1,1.63-1.52,5,5,0,0,0,.77,3.16c7.94,12.74,21.43,17.51,34.23,18.91,11.86,1.3,23.12-.3,28.81-1.1,1-.14,1.77-.26,2.35-.32a2.65,2.65,0,0,0,1.49-4.59ZM26.63,45.34c2.2-1.39,4.21-2.65,5.88-3.62,7.57-4.48,14.09-6.46,19.38-5.88s7.4,3.56,7.48,3.68l0,0c-1.46-.94-4.22-1.54-9.41.23C43.53,42,35.44,44.41,35.44,44.41L57.2,41.88c-3.9,1.84-13.59,4.7-37.61,7.81C22,48.24,24.4,46.74,26.63,45.34Zm43.72,96.92c.79.84,1.76,2,2.84,3.3l.45.57C59.5,131.53,41.13,128.62,33.48,128,44.17,122,56.54,126.78,70.35,142.27Zm13.12,32.47a2.63,2.63,0,0,0,2.72,1.37A14.52,14.52,0,0,1,81.3,186c-.28.19-.62.44-1,.74-4.18,3.15-16.86,12.73-43-13.77l-.63-.76c-.43-.51-1-1.21-1.7-2.06-6-7.49-12.91-18.48-11.65-28.31A16.48,16.48,0,0,1,28,132.3a2.7,2.7,0,0,0,1.44.86c19.7,4.29,34.66,12.65,44.45,24.84a61.57,61.57,0,0,1,8.52,14.43C82.83,173.41,83.18,174.19,83.47,174.74Zm-8.2-36.07c-.76-1-1.65-2.14-2.64-3.36a92.89,92.89,0,0,0,4.43-41.78l-.09-.9c-2.47-22.4-2.22-39.7-.79-52.8-.57,17.83.9,35.14,1.9,46.69.29,3.35.53,6.19.66,8.38A88.38,88.38,0,0,1,75.28,138.67Zm15.86-44.1c0-.37.49-1.47,3.08-4.16.44-.46.81-.85,1-1.12a2.7,2.7,0,0,0,.48-.91c.13-.4,2-5.63,6.74-7.4,3.89-1.45,8.85-.35,14.76,3.26,1.91,1.17,13.15,11.69,21.36,19.38l7.21,6.75C132.62,112.09,103.48,114.44,91.13,94.57Z"/><path class="cls-1" d="M110.84,90.78c-14.22-7.54-19.71,3.79-19.71,3.79l35.8,12.77S121.64,96.51,110.84,90.78Z"/></g></g></svg>