<svg xmlns="http://www.w3.org/2000/svg" viewBox="0 0 170.89 144.1"><defs><style>.cls-1{fill:none;}.cls-2{fill:#b4beb1;}</style></defs><title>Asset 114</title><g id="Layer_2" data-name="Layer 2"><g id="Layer_1-2" data-name="Layer 1"><polygon class="cls-1" points="138.47 39.76 130.95 36.6 115.57 30.13 68.8 48.27 69.73 48.69 88.78 57.05 96.03 60.23 110.29 66.48 158.19 48.05 138.47 39.76"/><polygon class="cls-1" points="63.77 53.3 63.34 115.8 107.27 135.01 107.27 72.6 69.74 55.91 63.77 53.3"/><polygon class="cls-1" points="114.29 136.01 163.93 116.89 164.12 54.06 114.09 73.12 114.29 136.01"/><path class="cls-2" d="M69.73,48.69l19,8.48.07-.13Z"/><path class="cls-2" d="M88.79,57l-.07.13,7.08,3.16.24-.11Z"/><path class="cls-2" d="M170.08,47.29a2.87,2.87,0,0,0-1.84-2.07L116.88,23.58a4.47,4.47,0,0,0-2.4,0L59.19,45A3.52,3.52,0,0,0,57,48.05a3.79,3.79,0,0,0,.21,1.24L57,118.45a2.18,2.18,0,0,0,1.53,2.38l50,22.07.11,0a5.14,5.14,0,0,0,.57.5,2.48,2.48,0,0,0,1.75.66,2.77,2.77,0,0,0,1.31-.22l56.1-21.57a3.29,3.29,0,0,0,2.19-3.06l.28-70A2.92,2.92,0,0,0,170.08,47.29ZM63.34,115.8l.44-62.5,6,2.61,37.53,16.7V135Zm47-49.33L96,60.23l-.24.11-7.08-3.16-19-8.48-.93-.42,46.77-18.14,15.38,6.47,7.52,3.16,19.72,8.29Zm53.64,50.41L114.29,136l-.2-62.9,50-19.06Z"/><path class="cls-2" d="M33.36,6.25,72.92,24.82a2.77,2.77,0,0,0,1.31.22,3.49,3.49,0,0,0,3.06-1.75,3.27,3.27,0,0,0-1.53-4.37L36.2.35a3.27,3.27,0,0,0-2.84,5.9Z"/><path class="cls-2" d="M49.57,31.44,10,12.87a3.27,3.27,0,0,0-2.84,5.9L46.73,37.35a2.77,2.77,0,0,0,1.31.22,3.77,3.77,0,0,0,3.06-1.75A3.27,3.27,0,0,0,49.57,31.44Z"/><path class="cls-2" d="M44.06,54.7,4.72,36.13A3.27,3.27,0,1,0,1.88,42L41.43,60.82a2.77,2.77,0,0,0,1.31.22,3,3,0,0,0,2.84-2A3.27,3.27,0,0,0,44.06,54.7Z"/></g></g></svg>