<svg xmlns="http://www.w3.org/2000/svg" viewBox="0 0 105.06 42.19"><defs><style>.cls-1{fill:#ec1c24;stroke:#ec1c24;}.cls-1,.cls-2{stroke-miterlimit:2.61;stroke-width:0.21px;}.cls-1,.cls-2,.cls-3{fill-rule:evenodd;}.cls-2,.cls-3{fill:#0071bb;}.cls-2{stroke:#0071bb;}</style></defs><title>Asset 13</title><g id="Layer_2" data-name="Layer 2"><g id="Layer_1-2" data-name="Layer 1"><polygon class="cls-1" points="25.36 27.39 37.79 14.76 48.38 25.3 53.82 19.91 53.94 24.43 36.27 42.05 34 39.79 36.89 37.07 28.64 28.63 25.59 31.57 25.36 27.39 25.36 27.39"/><polygon class="cls-2" points="79.25 11.17 96.84 11.17 96.84 15.13 94.06 15.13 94.06 29.23 104.92 23.3 104.95 33.66 79.15 33.66 79.15 29.57 82.05 29.57 82.06 15.13 79.27 15.13 79.25 11.17 79.25 11.17"/><path class="cls-1" d="M36.27,13.84A6.87,6.87,0,1,0,29.4,7a6.89,6.89,0,0,0,6.86,6.88Z"/><polygon class="cls-2" points="0.2 11.43 17.77 11.43 17.77 15.38 15.02 15.38 15.02 29.49 25.87 23.55 25.89 33.91 0.1 33.91 0.1 29.84 2.98 29.84 3 15.38 0.18 15.38 0.2 11.43 0.2 11.43"/><path class="cls-3" d="M68.73,33.62H50.42v-4h3.11l-.06-14.38H50.36v-3.9H68.83c5.36,0,9.62,3.72,9.68,11.09,0,7.6-4.77,11.17-9.77,11.17Zm-3.66-7c2.13,0,3.91-1.23,3.93-4.51s-1.84-4.56-3.89-4.56l0,9.07Z"/></g></g></svg>