<svg xmlns="http://www.w3.org/2000/svg" viewBox="0 0 91.53 27.3"><defs><style>.cls-1{fill:#00a94f;fill-rule:evenodd;}</style></defs><title>Asset 7</title><g id="Layer_2" data-name="Layer 2"><g id="Layer_1-2" data-name="Layer 1"><path class="cls-1" d="M83.44.14h-12L68.28,12.75h0a8.28,8.28,0,0,0-.14-1.32c-.1-.56-.25-1.3-.42-1.92a10,10,0,0,0-.59-1.65,11.15,11.15,0,0,0-1-1.76,19.39,19.39,0,0,0-1.55-1.93,9.45,9.45,0,0,0-1.5-1.34A14.82,14.82,0,0,0,61,1.54,13.67,13.67,0,0,0,58.83.72,12,12,0,0,0,57.24.36C56.72.27,56.13.2,55.77.17a4.78,4.78,0,0,0-.62,0h0l-9.32,0v15h0a11.06,11.06,0,0,0-.64-1.29,8.62,8.62,0,0,0-1.4-1.73,7.34,7.34,0,0,0-1.89-1.29A16.72,16.72,0,0,0,39,9.81a19,19,0,0,0-3.17-.55h0l-1.6-.15h0a1.9,1.9,0,0,1-.79-.2,2.22,2.22,0,0,1-.65-.48,1,1,0,0,1-.25-.49,1.27,1.27,0,0,1,.2-1,1.38,1.38,0,0,1,.45-.37A2,2,0,0,1,34,6.3a10.81,10.81,0,0,1,1.68-.09,11.45,11.45,0,0,1,2,.26c.73.15,1.54.37,2.17.57a11.63,11.63,0,0,1,1.53.58h0L44.44,2h0A8.23,8.23,0,0,0,43,1.28,20.19,20.19,0,0,0,40.28.44,17.64,17.64,0,0,0,36.78,0a25.73,25.73,0,0,0-3.41.18A10.34,10.34,0,0,0,31,.69,13.62,13.62,0,0,0,28.22,2a9.56,9.56,0,0,0-1.86,1.57,5.23,5.23,0,0,0-.78,1,11.3,11.3,0,0,0-.69,1.35,8.31,8.31,0,0,0-.47,1.5,7.4,7.4,0,0,0,0,3,7,7,0,0,0,.51,1.63,6.94,6.94,0,0,0,.92,1.44,7.72,7.72,0,0,0,1,1,6.17,6.17,0,0,0,1.43.91,23,23,0,0,0,2.49,1,13.16,13.16,0,0,0,1.8.46c.52.1,1,.18,1.38.23l.71.09a3.28,3.28,0,0,1,.7.13,1.79,1.79,0,0,1,.65.38,1.37,1.37,0,0,1,.33.53,1.48,1.48,0,0,1,.1.62,2.65,2.65,0,0,1-.17.79,1.43,1.43,0,0,1-.42.59,2.63,2.63,0,0,1-.71.43,1.64,1.64,0,0,1-.83.08c-.38,0-.94-.12-1.32-.2a3.36,3.36,0,0,1-.77-.23c-.81-.32-1.62-.64-2.41-1s-1.55-.78-2.32-1.2h0l-2.16,3.54L19,.17H7.12L0,27.24H8.28l1.37-5.51h7.72l1.54,5.52,8,0-.55-1.89h0a8.44,8.44,0,0,0,.91.44,18.1,18.1,0,0,0,2.24.83,18.88,18.88,0,0,0,3.24.64,14.87,14.87,0,0,0,2.87,0,13.52,13.52,0,0,0,2.11-.36,15.77,15.77,0,0,0,3.75-1.43,11.22,11.22,0,0,0,3.21-2.59,7.29,7.29,0,0,0,.69-.92c.17-.27.33-.55.48-.83h0l0,6.17h0c3.45,0,6.89,0,10.34,0a3.55,3.55,0,0,0,.78-.05,13.57,13.57,0,0,0,1.76-.37A16.94,16.94,0,0,0,61.13,26a14,14,0,0,0,2.07-1.16,12.49,12.49,0,0,0,1.6-1.3,17.16,17.16,0,0,0,1.47-1.58h0L65,27.21h7.88l1.5-5.51h7.51l1.76,5.49h7.88L83.44.14ZM11.13,15.9l2-8.48,2.47,8.5Zm49.11-2.06a8.67,8.67,0,0,1-.35,2.29A7.4,7.4,0,0,1,59,18.08a3,3,0,0,1-1,1,5.77,5.77,0,0,1-1.22.56,3.39,3.39,0,0,1-1,.15c-.68,0-1.48,0-2.22,0h0V7.43h0l.82,0a6.18,6.18,0,0,1,1.34.1A8.66,8.66,0,0,1,57.35,8a2.37,2.37,0,0,1,1,.79,10.84,10.84,0,0,1,1.11,1.68,6.31,6.31,0,0,1,.58,1.61,6.92,6.92,0,0,1,.18,1.72Zm15.41,2.08,2.12-8.59,2.31,8.59Z"/></g></g></svg>