<svg xmlns="http://www.w3.org/2000/svg" xmlns:xlink="http://www.w3.org/1999/xlink" viewBox="0 0 88.78 46.34"><defs><style>.cls-1{fill:none;}.cls-2{fill:#cf0a2c;}.cls-3{clip-path:url(#clip-path);}.cls-4{fill:#003da6;}</style><clipPath id="clip-path" transform="translate(-6.91 -1.72)"><rect class="cls-1" width="102.59" height="49.78"/></clipPath></defs><title>Asset 16</title><g id="Layer_2" data-name="Layer 2"><g id="Layer_1-2" data-name="Layer 1"><path class="cls-2" d="M78.06,15.2H82.4s.31-3.49-2.26-3.49-2.08,3.49-2.08,3.49Zm.06,3.67a2.34,2.34,0,0,0,1.47,2.2c1.89,1,5.69.92,9.85-1.1l1.65,4s-19,7.58-21.28-6c0,0-1.65-10.33,10-10.33s9.91,11.19,9.91,11.19Z" transform="translate(-6.91 -1.72)"/><g class="cls-3"><polygon class="cls-2" points="42.05 6.33 47.24 24.18 58.19 24.18 63.45 6.39 55.13 6.39 52.93 17.76 50.67 6.39 42.05 6.33"/><path class="cls-2" d="M27,8.66V2.42S8.41-1.37,7.06,8.66c0,0-1.47,5.26,4.56,7.12,5.07,1.57,5.78,1.44,5.78,1.44s2,.43,2.11,1.65c.11,1.4-2.72,1.47-3.36,1.47s-2.2.55-8.77-1.53V25s20.12,5.2,21.16-6.48c0,0,.92-6.54-8.74-7.7,0,0-3.61-.31-3.61-2.08s6.11-2,10.82-.06Z" transform="translate(-6.91 -1.72)"/></g><path class="cls-2" d="M41.58,18s-5.64-.64-4.54,2.52,5.18.14,4.54-2.52Zm7.8-4.17V25.73h-8V23.07c-1.1,3.81-12.34,4.86-12.15-2.66s12.38-5.87,12.38-5.87,0-2.25-4-2.38a10.85,10.85,0,0,0-6.38,1.56V8.63c18.34-3.94,18.16,5.18,18.16,5.18Z" transform="translate(-6.91 -1.72)"/><path class="cls-4" d="M89.65,24.68s-2.2,6.6-1.16,9.05,5.6-2.08,5.6-2.08,1.53-1.19,1.19,1.25c0,0-3.7,4.37-7.06,3.67s-2.63-5.78-2.14-7.46,1.25-4.62,1.25-4.62l-2-.06s-.95-1.56,1-2.38h1.35s1.9-6.12,3.55-5.9,1.53,1.44.76,2.6a25.81,25.81,0,0,0-1.62,3.15,26.78,26.78,0,0,0,3.36-.83c1.16-.43,2.11.28,1.83,1.1s-.25,1.4-1.59,1.35a13.1,13.1,0,0,0-4.4,1.16Z" transform="translate(-6.91 -1.72)"/><path class="cls-4" d="M52.86,32.32c1.49-.44,5.14-5.45,3.42-6.05s-4.77,3.36-4.77,3.36c-1.33,2-.12,3.13,1.35,2.69ZM58.18,30s1.1,3.07,4.45.27c0,0,1-.41.94,1.28,0,0-2.25,3.65-6,1.77a3.14,3.14,0,0,1-1.22-1.19s-3.1,4.4-6.72,1.79,1.6-7.82,1.6-7.82,3-3.37,6-2a2.56,2.56,0,0,1,1.15,2.8,11.24,11.24,0,0,0-.34,2.32A3.19,3.19,0,0,0,58.18,30Z" transform="translate(-6.91 -1.72)"/><path class="cls-4" d="M66.53,24.73s0-2.57,1.7-2.61a2,2,0,0,1,2,1.7,6,6,0,0,1-.32,1.42c-.28.78-2.75,8.3-2.75,8.3s-.75,2.89.18,3.49,1.38.83,3.9-.78,2.06-1.61,2.8-1.38-.41,1.33-.41,1.33-3.39,3.3-5,3.62-4.13.23-4.22-3.49c0,0,2-10.27,2.16-11.6Z" transform="translate(-6.91 -1.72)"/><path class="cls-4" d="M76.88,32.43c.14.69,1.1,1.65,2.8.37a9.49,9.49,0,0,0,2.71-4.13c.09-.32.68-1.94-.78-1.51-1.79.52-3.71,2.94-3.71,2.94a3.6,3.6,0,0,0-1,2.34Zm-1-4s3.18-4.13,5.78-3.91,3.15,2.63,2.63,4.56-2.78,7.22-7.64,6.54c0,0-5-1.1-.76-7.18Z" transform="translate(-6.91 -1.72)"/><path class="cls-4" d="M94.21,18.51h.31a.24.24,0,0,0,.15,0,.15.15,0,0,0,.05-.13.16.16,0,0,0,0-.12.22.22,0,0,0-.15,0h-.32v.33ZM94,18h.64a.43.43,0,0,1,.29.1.32.32,0,0,1,.11.25.3.3,0,0,1-.12.27l-.07,0,0,0a.24.24,0,0,1,.11.22v.21a.28.28,0,0,0,0,.09.09.09,0,0,0,0,0v0h-.29a.27.27,0,0,1,0-.08,1.09,1.09,0,0,1,0-.14v-.12a.14.14,0,0,0-.05-.12.27.27,0,0,0-.16,0h-.26v.5H94V18Z" transform="translate(-6.91 -1.72)"/><path class="cls-4" d="M94.4,17.58a1,1,0,1,0,1,1,1,1,0,0,0-1-1Zm0,2.22a1.21,1.21,0,1,1,1.21-1.21,1.21,1.21,0,0,1-1.21,1.21Z" transform="translate(-6.91 -1.72)"/><path class="cls-4" d="M26.05,44.09H25V42.86h1.06v-.31c0-1.51.71-2,2.12-2a4.81,4.81,0,0,1,.9.1L29,41.81a1.62,1.62,0,0,0-.56-.08c-.45,0-.62.31-.62.81v.31h1.25v1.23H27.81v3.86H26.05V44.09Z" transform="translate(-6.91 -1.72)"/><path class="cls-4" d="M33.18,45.4c0-.76-.33-1.43-1.14-1.43s-1.14.67-1.14,1.43.33,1.43,1.14,1.43,1.14-.67,1.14-1.43Zm-4.1,0a2.67,2.67,0,0,1,3-2.66,2.67,2.67,0,1,1,0,5.32,2.66,2.66,0,0,1-3-2.66Z" transform="translate(-6.91 -1.72)"/><path class="cls-4" d="M39.25,45.4c0-.76-.33-1.43-1.14-1.43S37,44.64,37,45.4s.33,1.43,1.14,1.43,1.14-.67,1.14-1.43Zm-4.1,0a2.67,2.67,0,0,1,3-2.66,2.67,2.67,0,1,1,0,5.32,2.66,2.66,0,0,1-3-2.66Z" transform="translate(-6.91 -1.72)"/><path class="cls-4" d="M44.1,46.71a1.19,1.19,0,0,0,1.07-1.3c0-.77-.43-1.33-1.07-1.33A1.13,1.13,0,0,0,43,45.35c0,.81.4,1.37,1.06,1.37Zm2.83,1.23H45.31V47h0a1.88,1.88,0,0,1-1.75,1c-1.51,0-2.32-1.25-2.32-2.75a2.36,2.36,0,0,1,2.18-2.57,2,2,0,0,1,1.75.77h0V40.62h1.77v7.32Z" transform="translate(-6.91 -1.72)"/><path class="cls-4" d="M50,46.54a4.35,4.35,0,0,0,1.65.35c.36,0,.71-.06.71-.41,0-.86-2.5-.25-2.5-2.09,0-1.17,1.15-1.65,2.17-1.65a4.84,4.84,0,0,1,1.79.29l-.14,1.22a2.86,2.86,0,0,0-1.37-.34c-.38,0-.81.07-.81.35,0,.79,2.62.17,2.62,2.1,0,1.36-1.22,1.7-2.37,1.7a5.75,5.75,0,0,1-1.84-.24l.1-1.28Z" transform="translate(-6.91 -1.72)"/><path class="cls-4" d="M54.05,42.86h1V41.72l1.73-.54v1.68H58v1.23H56.82V46c0,.62.15.93.7.93a3.34,3.34,0,0,0,.54-.07L58.11,48a8.41,8.41,0,0,1-1.1.1c-1.57,0-2-.69-2-1.9V44.09h-1V42.86Z" transform="translate(-6.91 -1.72)"/><path class="cls-4" d="M62.24,45.4c0-.76-.33-1.43-1.14-1.43S60,44.64,60,45.4s.33,1.43,1.14,1.43,1.14-.67,1.14-1.43Zm-4.1,0a3,3,0,1,1,3,2.66,2.67,2.67,0,0,1-3-2.66Z" transform="translate(-6.91 -1.72)"/><path class="cls-4" d="M68.09,44.26a2,2,0,0,0-.6-.06c-.82,0-1.28.6-1.28,1.59v2.15H64.46V42.86h1.6v.94h0a1.57,1.57,0,0,1,1.5-1.05,3.7,3.7,0,0,1,.6.06l-.09,1.46Z" transform="translate(-6.91 -1.72)"/><path class="cls-4" d="M71.63,44.92a.93.93,0,0,0-1-1.06c-.63,0-.94.48-1,1.06Zm-1.93,1c.1.7.63,1,1.49,1a3.29,3.29,0,0,0,1.55-.39v1.24a5.1,5.1,0,0,1-1.86.32,2.67,2.67,0,0,1-3-2.66,2.52,2.52,0,0,1,2.72-2.65c1.88,0,2.57,1.34,2.57,2.85v.32Z" transform="translate(-6.91 -1.72)"/><path class="cls-4" d="M73.58,46.54a4.35,4.35,0,0,0,1.65.35c.36,0,.71-.06.71-.41,0-.86-2.5-.25-2.5-2.09,0-1.17,1.15-1.65,2.17-1.65A4.84,4.84,0,0,1,77.4,43l-.14,1.22a2.86,2.86,0,0,0-1.37-.34c-.38,0-.81.07-.81.35,0,.79,2.62.17,2.62,2.1,0,1.36-1.22,1.7-2.37,1.7a5.75,5.75,0,0,1-1.84-.24l.1-1.28Z" transform="translate(-6.91 -1.72)"/></g></g></svg>