<svg xmlns="http://www.w3.org/2000/svg" viewBox="0 0 149.56 39.61"><defs><style>.cls-1,.cls-3{fill:#007dc2;}.cls-1,.cls-2{fill-rule:evenodd;}.cls-2{fill:#fcba30;}</style></defs><title>Asset 12</title><g id="Layer_2" data-name="Layer 2"><g id="Layer_1-2" data-name="Layer 1"><path class="cls-1" d="M83.35,20.75a3,3,0,0,1-.11.84,3,3,0,0,1-2.83,2,1.92,1.92,0,0,1-2.09-2.06c0-2.14,2.35-2.72,5-2.71v1.94ZM87.54,17c0-3.52-1.5-6.62-6.58-6.62a12,12,0,0,0-5.81,1.38L76,14.63a8.49,8.49,0,0,1,4.24-1.19c2.58,0,3,1.46,3,2.4v.22C77.59,16,74,18,74,22a4.68,4.68,0,0,0,5,4.69,5.63,5.63,0,0,0,4.52-2h.1s.64,2.68,4.18,1.66a23.21,23.21,0,0,1-.24-3.75V17Z"/><path class="cls-1" d="M0,5.62s3.67,15,4.26,17.48C4.94,26,6.18,27,9.73,26.3L12,17c.58-2.32,1-4,1.34-6.33h.07A62.3,62.3,0,0,0,14.54,17s.93,4.23,1.41,6.46,1.81,3.62,5.29,2.86L26.71,5.62H22.3l-1.87,8.94c-.5,2.6-1,4.64-1.31,7h-.06c-.32-2.36-.72-4.31-1.23-6.84L15.89,5.62H11.3L9.22,14.5c-.59,2.7-1.14,4.88-1.49,7.18H7.66c-.36-2.17-.84-4.9-1.35-7.52,0,0-1.23-6.35-1.67-8.54Z"/><path class="cls-1" d="M35,20.75a2.9,2.9,0,0,1-.1.84,2.94,2.94,0,0,1-2.83,2A1.92,1.92,0,0,1,30,21.52c0-2.14,2.35-2.72,5-2.71v1.94ZM39.24,17c0-3.52-1.5-6.62-6.58-6.62a12,12,0,0,0-5.81,1.38l.83,2.83a8.47,8.47,0,0,1,4.24-1.19c2.58,0,3,1.46,3,2.4v.22C29.29,16,25.74,18,25.74,22a4.68,4.68,0,0,0,4.95,4.69,5.63,5.63,0,0,0,4.52-2h.1s.64,2.68,4.18,1.66a22.58,22.58,0,0,1-.25-3.75V17Z"/><polygon class="cls-1" points="46.24 21.9 46.24 5.62 42.04 5.62 42.04 26.3 46.24 26.3 46.24 21.9 46.24 21.9"/><path class="cls-1" d="M101.18,5.62V20.87c0,2.1.39,3.57,1.24,4.48a4.64,4.64,0,0,0,3.41,1.29,10,10,0,0,0,3-.45l-.05-3.28a6.44,6.44,0,0,1-1.59.19c-1.43,0-1.91-.91-1.91-2.8V14.46H109v-4h-3.66V5.62Z"/><path class="cls-1" d="M90.34,10.76V26.3h4.33v-8a6.09,6.09,0,0,1,.09-1.15,3.27,3.27,0,0,1,3.43-2.73,8,8,0,0,1,1.25.11V10.51a4,4,0,0,0-1-.1,4.57,4.57,0,0,0-4.23,3.28h-.12V10.76Z"/><path class="cls-1" d="M49.18,10.76V26.3H53.4V17.19a3.6,3.6,0,0,1,.2-1.27,2.86,2.86,0,0,1,2.57-2c1.7,0,2.5,1.44,2.5,3.52V26.3h4.22V17.08a4.36,4.36,0,0,1,.18-1.26,2.67,2.67,0,0,1,2.54-1.89c1.73,0,2.55,1.42,2.55,3.86V26.3h4.22V17.15c0-4.83-2.45-6.74-5.22-6.74a5.63,5.63,0,0,0-3.06.84,6.52,6.52,0,0,0-2,1.94h-.06a4.43,4.43,0,0,0-4.28-2.78,4.89,4.89,0,0,0-4.52,2.46h-.06V10.76Z"/><path class="cls-2" d="M132.52,11a1.4,1.4,0,0,0,1.48-.91l.76-8.54c0-.84-1-1.53-2.23-1.53s-2.23.69-2.23,1.53l.75,8.54a1.4,1.4,0,0,0,1.48.91Z"/><path class="cls-2" d="M127.9,13.66a1.39,1.39,0,0,0-.05-1.73l-7-4.93c-.73-.42-1.83.09-2.44,1.16s-.51,2.28.21,2.7l7.77,3.62a1.41,1.41,0,0,0,1.53-.83Z"/><path class="cls-2" d="M137.14,13.65a1.41,1.41,0,0,0,1.53.83l7.77-3.62c.73-.42.84-1.63.21-2.7S144.94,6.58,144.21,7l-7,4.93a1.4,1.4,0,0,0,0,1.73Z"/><path class="cls-2" d="M132.52,21.65a1.4,1.4,0,0,1,1.48.91l.76,8.54c0,.84-1,1.54-2.23,1.54s-2.23-.69-2.23-1.54l.75-8.54a1.4,1.4,0,0,1,1.48-.91Z"/><path class="cls-2" d="M137.14,19a1.4,1.4,0,0,1,1.53-.83l7.77,3.62c.73.42.84,1.62.21,2.7s-1.71,1.59-2.45,1.17l-7-4.93a1.4,1.4,0,0,1,0-1.74Z"/><path class="cls-2" d="M127.9,19a1.4,1.4,0,0,1-.05,1.74l-7,4.92c-.73.42-1.83-.09-2.44-1.16s-.51-2.28.21-2.7l7.77-3.62a1.4,1.4,0,0,1,1.53.82Z"/><path class="cls-2" d="M147.15,27a.66.66,0,0,0,.32.09c.16,0,.24-.07.24-.18s-.07-.16-.24-.22-.36-.2-.36-.39.18-.38.47-.38a.69.69,0,0,1,.32.07l-.06.2a.54.54,0,0,0-.26-.07c-.16,0-.22.08-.22.16s.08.15.25.22.34.2.34.39-.16.4-.5.4a.79.79,0,0,1-.36-.08l.06-.2Z"/><path class="cls-2" d="M149.3,26.77c0-.17,0-.38,0-.56h0c0,.16-.1.34-.16.51l-.19.58h-.19l-.18-.57c0-.17-.1-.35-.13-.52h0c0,.17,0,.38,0,.57l0,.53h-.23l.09-1.33h.32l.17.53c0,.15.09.31.12.46h0c0-.14.08-.31.13-.46l.18-.53h.31l.08,1.33h-.24l0-.54Z"/><path class="cls-3" d="M6.19,36.14l-.43,1.55H4.36l1.83-6H8l1.88,6H8.38l-.46-1.55Zm1.53-1-.38-1.28c-.11-.36-.21-.8-.3-1.16H7c-.09.36-.18.81-.28,1.16l-.36,1.28Z"/><path class="cls-3" d="M10.29,31.34h1.36v2.5h0a1.46,1.46,0,0,1,.54-.46,1.56,1.56,0,0,1,.71-.17c.87,0,1.53.6,1.53,1.92v2.55H13.08v-2.4c0-.57-.2-1-.71-1a.72.72,0,0,0-.68.48.79.79,0,0,0,0,.3v2.59H10.29Z"/><path class="cls-3" d="M19.58,35.45a2.19,2.19,0,0,1-2.31,2.33A2.14,2.14,0,0,1,15,35.53a2.19,2.19,0,0,1,2.34-2.32A2.13,2.13,0,0,1,19.58,35.45Zm-3.16,0c0,.75.31,1.31.89,1.31s.87-.53.87-1.32c0-.64-.25-1.31-.87-1.31S16.41,34.85,16.41,35.49Z"/><path class="cls-3" d="M20.15,34.75c0-.64,0-1.06,0-1.44h1.16l.05.8h0a1.27,1.27,0,0,1,1.18-.91,1.37,1.37,0,0,1,.29,0v1.28a2,2,0,0,0-.37,0,.87.87,0,0,0-.93.69,1.61,1.61,0,0,0,0,.3v2.22H20.15Z"/><path class="cls-3" d="M23.28,34.75c0-.64,0-1.06,0-1.44H24.4l.05.8h0a1.27,1.27,0,0,1,1.18-.91,1.37,1.37,0,0,1,.29,0v1.28a2,2,0,0,0-.37,0,.87.87,0,0,0-.93.69,1.6,1.6,0,0,0,0,.3v2.22H23.28Z"/><path class="cls-3" d="M29.95,36.63A5.67,5.67,0,0,0,30,37.68H28.79l-.08-.44h0a1.57,1.57,0,0,1-1.25.54A1.34,1.34,0,0,1,26,36.44c0-1.14,1-1.67,2.57-1.67v-.05c0-.24-.13-.57-.8-.57a2.46,2.46,0,0,0-1.21.33l-.25-.88a3.59,3.59,0,0,1,1.7-.39,1.7,1.7,0,0,1,1.91,1.9Zm-1.31-1c-.72,0-1.27.17-1.27.69a.49.49,0,0,0,.54.52.75.75,0,0,0,.71-.5,1,1,0,0,0,0-.23Z"/><path class="cls-3" d="M30.75,36.5a2.65,2.65,0,0,0,1.17.32c.41,0,.58-.13.58-.36s-.13-.34-.63-.51c-.91-.3-1.26-.8-1.25-1.31,0-.82.7-1.44,1.78-1.44a2.87,2.87,0,0,1,1.22.26l-.23.94a2.19,2.19,0,0,0-.95-.25c-.33,0-.52.13-.52.35s.17.32.71.51c.83.29,1.17.72,1.18,1.35,0,.82-.63,1.42-1.89,1.42a3.09,3.09,0,0,1-1.41-.31Z"/><path class="cls-3" d="M36,31.75a12,12,0,0,1,1.83-.13,3.93,3.93,0,0,1,2.48.64,2.67,2.67,0,0,1,1,2.27,3.08,3.08,0,0,1-1,2.44,4.35,4.35,0,0,1-2.79.78A11.73,11.73,0,0,1,36,37.66Zm1.36,4.91a2.56,2.56,0,0,0,.47,0,1.88,1.88,0,0,0,2.06-2.11,1.74,1.74,0,0,0-1.91-1.91,2.91,2.91,0,0,0-.62.05Z"/><path class="cls-3" d="M43.3,32.1a.68.68,0,0,1-.73.68.68.68,0,1,1,.73-.68Zm-1.4,5.59V33.31h1.36v4.37Z"/><path class="cls-3" d="M44.08,34.71c0-.55,0-1,0-1.39h1.18l.06.61h0a1.57,1.57,0,0,1,1.35-.71c.89,0,1.56.6,1.56,1.89v2.58H46.87V35.26c0-.56-.2-.95-.69-.95a.75.75,0,0,0-.7.51,1,1,0,0,0,0,.34v2.52H44.08Z"/><path class="cls-3" d="M50.1,35.93c0,.56.6.83,1.23.83a3.61,3.61,0,0,0,1.21-.19l.18.92a4.14,4.14,0,0,1-1.58.28,2.1,2.1,0,0,1-2.33-2.23A2.19,2.19,0,0,1,51,33.21,1.94,1.94,0,0,1,53,35.4a3.22,3.22,0,0,1,0,.54ZM51.7,35a.79.79,0,0,0-.77-.89.9.9,0,0,0-.84.89Z"/><path class="cls-3" d="M53.5,34.75c0-.64,0-1.06,0-1.44h1.16l.05.8h0a1.27,1.27,0,0,1,1.18-.91,1.37,1.37,0,0,1,.29,0v1.28a2,2,0,0,0-.37,0,.87.87,0,0,0-.93.69,1.6,1.6,0,0,0,0,.3v2.22H53.5Z"/><path class="cls-3" d="M60.88,35.45a2.19,2.19,0,0,1-2.31,2.33,2.14,2.14,0,0,1-2.26-2.25,2.19,2.19,0,0,1,2.34-2.32A2.13,2.13,0,0,1,60.88,35.45Zm-3.16,0c0,.75.31,1.31.89,1.31s.87-.53.87-1.32c0-.64-.25-1.31-.87-1.31S57.71,34.85,57.71,35.49Z"/><path class="cls-3" d="M61,37a.8.8,0,1,1,.79.82A.78.78,0,0,1,61,37Z"/><path class="cls-3" d="M65.88,37.68l-1.93-6h1.49l.73,2.55c.21.72.39,1.4.54,2.15h0c.15-.72.34-1.44.55-2.13L68,31.66H69.5l-2,6Z"/><path class="cls-3" d="M71,32.1a.68.68,0,0,1-.73.68A.68.68,0,1,1,71,32.1Zm-1.4,5.59V33.31h1.36v4.37Z"/><path class="cls-3" d="M72.78,33.31l.59,2c.11.38.18.72.25,1.06h0c.07-.36.14-.69.24-1.06l.56-2h1.43l-1.63,4.37H72.89L71.3,33.31Z"/><path class="cls-3" d="M77.15,35.93c0,.56.6.83,1.23.83a3.61,3.61,0,0,0,1.21-.19l.18.92a4.14,4.14,0,0,1-1.58.28,2.1,2.1,0,0,1-2.33-2.23,2.19,2.19,0,0,1,2.21-2.33A1.94,1.94,0,0,1,80,35.4a3.2,3.2,0,0,1,0,.54Zm1.6-.93a.79.79,0,0,0-.77-.89.9.9,0,0,0-.84.89Z"/><path class="cls-3" d="M80.55,36.5a2.66,2.66,0,0,0,1.17.32c.41,0,.58-.13.58-.36s-.13-.34-.63-.51c-.91-.3-1.26-.8-1.25-1.31,0-.82.7-1.44,1.78-1.44a2.87,2.87,0,0,1,1.22.26l-.23.94a2.19,2.19,0,0,0-.95-.25c-.33,0-.52.13-.52.35s.17.32.71.51c.83.29,1.17.72,1.18,1.35,0,.82-.63,1.42-1.89,1.42a3.09,3.09,0,0,1-1.41-.31Z"/><path class="cls-3" d="M90.85,35.38c0-.72-.05-1.6-.05-2.48h0c-.2.77-.45,1.63-.68,2.33l-.73,2.35H88.3l-.64-2.32c-.2-.72-.39-1.57-.55-2.36h0c0,.81-.06,1.74-.1,2.49l-.12,2.29H85.62l.38-6h1.81l.59,2c.2.7.38,1.45.51,2.15h0c.16-.7.37-1.49.57-2.16l.63-2h1.79l.32,6H90.94Z"/><path class="cls-3" d="M94.07,35.93c0,.56.6.83,1.23.83a3.61,3.61,0,0,0,1.21-.19l.18.92a4.14,4.14,0,0,1-1.58.28,2.1,2.1,0,0,1-2.33-2.23A2.19,2.19,0,0,1,95,33.21a1.94,1.94,0,0,1,1.95,2.18,3.22,3.22,0,0,1,0,.54Zm1.6-.93a.79.79,0,0,0-.77-.89.9.9,0,0,0-.84.89Z"/><path class="cls-3" d="M96.58,38.54a1.22,1.22,0,0,0,.8-.29c.2-.21.27-.55.27-1.42V33.31H99v3.85a2.41,2.41,0,0,1-.62,1.9,2.48,2.48,0,0,1-1.68.54Zm2.47-6.45a.68.68,0,0,1-.73.68.68.68,0,1,1,.73-.68Z"/><path class="cls-3" d="M104.13,35.45a2.19,2.19,0,0,1-2.31,2.33,2.14,2.14,0,0,1-2.26-2.25,2.19,2.19,0,0,1,2.34-2.32A2.13,2.13,0,0,1,104.13,35.45Zm-3.17,0c0,.75.31,1.31.89,1.31s.87-.53.87-1.32c0-.64-.25-1.31-.87-1.31S101,34.85,101,35.49Z"/><path class="cls-3" d="M104.7,34.75c0-.64,0-1.06,0-1.44h1.16l.05.8h0a1.27,1.27,0,0,1,1.18-.91,1.37,1.37,0,0,1,.29,0v1.28a2,2,0,0,0-.37,0,.87.87,0,0,0-.93.69,1.59,1.59,0,0,0,0,.3v2.22H104.7Z"/><path class="cls-3" d="M107.15,37a.8.8,0,1,1,.79.82A.78.78,0,0,1,107.15,37Z"/></g></g></svg>