<svg xmlns="http://www.w3.org/2000/svg" viewBox="0 0 153.53 29.35"><defs><style>.cls-1{fill:#f37920;fill-rule:evenodd;}</style></defs><title>Asset 9</title><g id="Layer_2" data-name="Layer 2"><g id="Layer_1-2" data-name="Layer 1"><path class="cls-1" d="M25.29,6A14.17,14.17,0,0,0,19.5,7.2a1,1,0,0,0-.56.89V9.75a.7.7,0,0,0,.63.74c.44,0,.78-.41,1-.56a7.79,7.79,0,0,1,4.56-1.56c2.26,0,2.6,1.48,2.6,3.3v.07c0,.85-.29,1-3.52,1.42-2,.26-6.46,1.15-6.46,5.19,0,3.34,2.67,5.12,5.79,5.12a6.47,6.47,0,0,0,4.3-1.78l.07,1a.42.42,0,0,0,.37.44h3.37a.43.43,0,0,0,.45-.44V11.13c0-3-1.6-5.08-6.83-5.08Zm2.38,13.5c0,.49-1.27,1.79-3,1.79A2.58,2.58,0,0,1,22,18.51c0-2,1.56-3.87,5.7-3.87v4.91Z"/><path class="cls-1" d="M37.4.11C35.76.11,35,1.08,35,2.2A2.2,2.2,0,0,0,37.4,4.43,2.14,2.14,0,0,0,39.74,2.2,2.09,2.09,0,0,0,37.4.11Z"/><path class="cls-1" d="M35.27,6.93v15.8a.42.42,0,0,0,.37.44h3.58a.43.43,0,0,0,.45-.44V6.93a.43.43,0,0,0-.45-.45H35.64a.42.42,0,0,0-.37.45Z"/><path class="cls-1" d="M.63,22.2c6.26,2.94,15.16,1.23,15.16-6.26C15.79,9.05,4,9.5,4,5.25,4,3.54,5.63,2.38,7.71,2.38A7.69,7.69,0,0,1,12.48,4.1a1.79,1.79,0,0,0,1,.48c.41,0,.52-.26.52-.6V1.83a.61.61,0,0,0-.41-.67,18,18,0,0,0-6-1C2.68.18,0,3.24,0,6.7c0,7.52,11.62,6,11.62,11.06C11.62,20.86,7.15,23,2,19.4c-.48-.33-.71-.52-1-.52-.63,0-.75.34-.75.67v1.9a.74.74,0,0,0,.45.75Z"/><path class="cls-1" d="M43.35,6.93v15.8a.42.42,0,0,0,.37.44H47.3a.43.43,0,0,0,.45-.44V10a7.91,7.91,0,0,1,3.46-1.15c2.46,0,2.61,1.49,2.61,2.75V22.72a.42.42,0,0,0,.37.44h3.58a.43.43,0,0,0,.45-.44V11.21c0-3-1.6-5.1-5.18-5.1a11.37,11.37,0,0,0-5.33,1.68h-.07V6.93a.43.43,0,0,0-.45-.45H43.73a.42.42,0,0,0-.37.45Z"/><path class="cls-1" d="M71.88,7C67,5,60.56,6.11,60.56,11.36c0,5.92,9.39,4.69,9.39,7.9,0,2.57-4.43,2.83-7.63.37a1.09,1.09,0,0,0-.71-.29c-.37,0-.59.15-.59.67v1.45a1,1,0,0,0,.56,1c4.13,1.86,11.73,1.9,11.73-5,0-5.88-9.5-4.54-9.5-7.49,0-2.42,4.66-2.2,7.34-.37a1.59,1.59,0,0,0,.71.3c.37,0,.6-.15.6-.67V8a.93.93,0,0,0-.56-1Z"/><path class="cls-1" d="M152.11,7c-4.84-2-11.32-.93-11.32,4.32,0,5.92,9.39,4.69,9.39,7.9,0,2.57-4.43,2.83-7.64.37a1.09,1.09,0,0,0-.71-.29c-.37,0-.59.15-.59.67v1.45a1,1,0,0,0,.56,1c4.13,1.86,11.73,1.9,11.73-5,0-5.88-9.5-4.54-9.5-7.49,0-2.42,4.65-2.2,7.34-.37a1.6,1.6,0,0,0,.71.3c.37,0,.6-.15.6-.67V8a.93.93,0,0,0-.56-1Z"/><path class="cls-1" d="M115.54,11.47c0-1.79.63-2.91,4.51-1.9a5.11,5.11,0,0,0,1.19.22.53.53,0,0,0,.48-.52V7.08c0-.37-.26-.67-.75-.78-2.68-.63-4.32.59-5.7,1.9l-.07,0V6.93a.43.43,0,0,0-.45-.45h-3.24a.42.42,0,0,0-.37.45v15.8a.42.42,0,0,0,.37.44h3.57a.43.43,0,0,0,.45-.44V11.47Z"/><path class="cls-1" d="M140.41,6.56c1.75,0,3.73-6.56.48-6.56h-1.75c-.41,0-.48.3-.48.52,0,.45,1.11,1.57,1.11,3.09a9.14,9.14,0,0,1-.59,2.61c0,.19.19.34.45.34Z"/><path class="cls-1" d="M131,18l-.22-.71L127.23,6.89a.54.54,0,0,0-.6-.41h-3.8a.3.3,0,0,0-.33.34,1.73,1.73,0,0,0,.19.6l6.18,15c1,2.53-2,4.36-5,3.54a4.49,4.49,0,0,0-1.15-.22.53.53,0,0,0-.48.52v2.12c0,.45.3,1,1.94,1,3.95,0,6.07-2,8-6.74L138.29,7.3a1.7,1.7,0,0,0,.15-.48.34.34,0,0,0-.33-.34h-2.65a.52.52,0,0,0-.52.41l-3.65,10.43L131,18Z"/><path class="cls-1" d="M107.94,22.72V6.93a.42.42,0,0,0-.37-.45H104a.43.43,0,0,0-.45.45V19.67a7.93,7.93,0,0,1-3.46,1.15c-2.46,0-2.61-1.49-2.61-2.76V6.93a.42.42,0,0,0-.37-.45H93.52a.43.43,0,0,0-.45.45V18.44c0,3,1.6,5.1,5.18,5.1a11.42,11.42,0,0,0,5.32-1.67h.08v.86a.43.43,0,0,0,.45.44h3.46a.42.42,0,0,0,.37-.44Z"/><path class="cls-1" d="M75.31.63a.42.42,0,0,1,.37-.45h3.57a.43.43,0,0,1,.45.45V8a7.42,7.42,0,0,1,4.88-1.9c3.84,0,6.26,3.35,6.26,7.82,0,5.74-4,9.54-8.9,9.54a9.6,9.6,0,0,1-6-1.94,2,2,0,0,1-.67-1.71V.63Zm4.92,20.45a3.78,3.78,0,0,0,2,.41c2.38,0,4.06-2.46,4.06-6.63,0-1.57-.33-6-3.72-6a4.81,4.81,0,0,0-2.87,1.16V20.11a1,1,0,0,0,.52,1Z"/></g></g></svg>