<svg xmlns="http://www.w3.org/2000/svg" viewBox="0 0 107.6 30.95"><defs><style>.cls-1{fill:#00539e;}.cls-1,.cls-2{fill-rule:evenodd;}.cls-2{fill:#ec1b2e;}</style></defs><title>Asset 6</title><g id="Layer_2" data-name="Layer 2"><g id="Layer_1-2" data-name="Layer 1"><path class="cls-1" d="M8.26,25.59h13.1c.15,0,.15.08,0,.15a18.31,18.31,0,0,0-3.6,2.83C16.3,30,15.15,31,12.62,31H.06C0,31,0,30.8.06,30.8a20.88,20.88,0,0,0,3.45-2.91,6.55,6.55,0,0,1,4.75-2.3Z"/><path class="cls-1" d="M94.37,25.59h13.18c.08,0,.08.08,0,.15a16.1,16.1,0,0,0-3.6,2.83C102.41,30,101.26,31,98.81,31H86.25c-.08,0-.08-.15,0-.15a20.89,20.89,0,0,0,3.45-2.91,6.37,6.37,0,0,1,4.67-2.3Z"/><path class="cls-1" d="M29.78,25.59h13.1c.15,0,.15.08,0,.15a18.31,18.31,0,0,0-3.6,2.83C37.83,30,36.68,31,34.15,31H21.66c-.15,0-.15-.15-.08-.15A20.88,20.88,0,0,0,25,27.89a6.55,6.55,0,0,1,4.75-2.3Z"/><path class="cls-1" d="M51.31,25.59h13.1c.15,0,.15.08,0,.15a18.31,18.31,0,0,0-3.6,2.83C59.36,30,58.21,31,55.76,31H43.19c-.08,0-.08-.15-.08-.15a17.89,17.89,0,0,0,3.45-2.91,6.55,6.55,0,0,1,4.75-2.3Z"/><path class="cls-1" d="M72.84,25.59H86c.08,0,.08.08-.08.15a18.31,18.31,0,0,0-3.6,2.83C80.88,30,79.74,31,77.28,31H64.72c-.08,0-.08-.15,0-.15a20.88,20.88,0,0,0,3.45-2.91,6.23,6.23,0,0,1,4.67-2.3Z"/><path class="cls-2" d="M76.44,0C68.17,0,62.65,4.29,62.65,10.8c0,6,5.06,10,12.56,10a25.78,25.78,0,0,0,7.12-1v-5a7.92,7.92,0,0,1-6.21,2.76c-4.44,0-7.51-2.91-7.51-7.2s3.14-7.28,7.58-7.28A7.75,7.75,0,0,1,82,5.59V.54A30.8,30.8,0,0,0,76.44,0Z"/><path class="cls-2" d="M14.69,3.52c3.06,0,6.74.61,8.27,1.92V.69H1.21V5.44C2.74,4.14,6,3.6,9.56,3.6v13c0,1.92-.15,2.45-.92,3.45h7c-.77-1-.92-1.53-.92-3.45V3.52Z"/><path class="cls-2" d="M36.91,8.2a16.54,16.54,0,0,1-4.67.54H30.4V3.6h2.45c2.22,0,6,.46,7.43,1.76V.69H24.42c.77.92.92,1.53.92,3.37V16.63c0,1.92-.15,2.45-.84,3.45H41.35V15.32c-2.3,1.76-6.74,1.76-8.5,1.76H30.4V11.65h1.76a17.21,17.21,0,0,1,4.75.61V8.2Z"/><path class="cls-2" d="M60.43,1.3A28.75,28.75,0,0,0,52.08,0c-4.6,0-9,1.46-9,6.36,0,8.43,13.79,4,13.79,9.19,0,1.69-2.45,2.38-4.44,2.38a14.84,14.84,0,0,1-9-2.6v4.29a29.07,29.07,0,0,0,8.81,1.23c4.75,0,9.19-1.38,9.19-6.36,0-8.89-13.71-4.9-13.71-9.19,0-1.76,2.22-2.37,4.14-2.37,3.22,0,6.74,1,8.66,2.91V1.3Z"/><path class="cls-2" d="M95.82.31C88.39.31,83.11,4.6,83.11,10.65s4.75,9.88,11.72,9.88c7.51,0,12.72-4.14,12.72-10.27,0-6-4.75-10-11.72-10Zm-.54,17.31c-4,0-6.51-3.22-6.51-7.2s2.53-7.2,6.51-7.2,6.51,3.22,6.51,7.2-2.6,7.2-6.51,7.2Z"/></g></g></svg>