<svg xmlns="http://www.w3.org/2000/svg" viewBox="0 0 49.85 59.81"><defs><style>.cls-1{fill:#ffc132;}.cls-2{fill:#f37920;}.cls-3{fill:#ee402f;}.cls-4{fill:#004687;}.cls-5{fill:#00b7dd;}.cls-5,.cls-6{fill-rule:evenodd;}.cls-6{fill:#fff;}</style></defs><title>Asset 17</title><g id="Layer_2" data-name="Layer 2"><g id="Layer_1-2" data-name="Layer 1"><path class="cls-1" d="M2,0H47.85a2,2,0,0,1,2,2V57.82a2,2,0,0,1-2,2H2a2,2,0,0,1-2-2V2A2,2,0,0,1,2,0Z"/><path class="cls-2" d="M5.48,3.74H44.36a1,1,0,0,1,1,1V55.08a1,1,0,0,1-1,1H5.48a1,1,0,0,1-1-1V4.74a1,1,0,0,1,1-1Z"/><path class="cls-3" d="M7.23,5.23H42.62a.5.5,0,0,1,.5.5V54.08a.5.5,0,0,1-.5.5H7.23a.5.5,0,0,1-.5-.5V5.73a.5.5,0,0,1,.5-.5Z"/><path class="cls-4" d="M8.22,6h33.4a.25.25,0,0,1,.25.25V53.58a.25.25,0,0,1-.25.25H8.22A.25.25,0,0,1,8,53.58V6.23A.25.25,0,0,1,8.22,6Z"/><path class="cls-5" d="M21.33,34.39H19.71L26.86,9h1.61L21.33,34.39Zm-2.69,0H17L24.17,9h1.61L18.64,34.39Zm-2.69,0H14.33L21.48,9h1.61L15.94,34.39ZM12,8.22H37.88V35.14H12V8.22Zm-1.25-.75H39.13V35.89H10.72V7.48Zm14,18.69.42-1.5H36.39v1.5Zm.7-2.49.42-1.5H36.39v1.5Zm-1.41,5,.42-1.5h12v1.5Z"/><path class="cls-6" d="M16,45.68H14.53L15.25,42,16,45.68Zm3.94,2.94-2.6-9H13.45l-2.64,9h3.1l.24-1h2.17l.26,1Zm6.36,0L26,46.18H23.74V39.63h-3.1v9Zm8.43-4.5c0-4.37-1.47-4.49-4.61-4.49H27.19v9h2.89c3.14,0,4.61-.12,4.61-4.5Zm-3.11,0c0,1.73,0,2.55-1,2.55h-.26V41.58h.26c1,0,1,.84,1,2.54Zm7.32,4.5v-9h-3.1v9Z"/></g></g></svg>