<svg xmlns="http://www.w3.org/2000/svg" viewBox="0 0 171.97 54"><defs><style>.cls-1{fill:#ffc132;}.cls-2{fill:#f37920;}.cls-3{fill:#ee402f;}.cls-4{fill:#004687;}.cls-5{fill:#00b7dd;}.cls-5,.cls-6{fill-rule:evenodd;}.cls-6{fill:#fff;}.cls-7{fill:none;}</style></defs><title>Asset 109</title><g id="Layer_2" data-name="Layer 2"><g id="Layer_1-2" data-name="Layer 1"><path class="cls-1" d="M65.28,0h41.4a1.8,1.8,0,0,1,1.8,1.8V52.2a1.8,1.8,0,0,1-1.8,1.8H65.28a1.8,1.8,0,0,1-1.8-1.8V1.8A1.8,1.8,0,0,1,65.28,0Z"/><path class="cls-2" d="M68.43,3.38h35.1a.9.9,0,0,1,.9.9V49.72a.9.9,0,0,1-.9.9H68.43a.9.9,0,0,1-.9-.9V4.28a.9.9,0,0,1,.9-.9Z"/><path class="cls-3" d="M70,4.73H102a.45.45,0,0,1,.45.45V48.83a.45.45,0,0,1-.45.45H70a.45.45,0,0,1-.45-.45V5.18A.45.45,0,0,1,70,4.73Z"/><path class="cls-4" d="M70.91,5.4h30.15a.22.22,0,0,1,.22.22V48.37a.23.23,0,0,1-.22.23H70.91a.23.23,0,0,1-.22-.23V5.62a.22.22,0,0,1,.22-.22Z"/><path class="cls-5" d="M82.74,31H81.28L87.73,8.1h1.46L82.74,31Zm-2.43,0H78.85L85.3,8.1h1.46L80.31,31Zm-2.43,0H76.42L82.87,8.1h1.46L77.88,31ZM74.28,7.43h23.4v24.3H74.28V7.43Zm-1.12-.68H98.81V32.4H73.16V6.75ZM85.79,23.62l.38-1.35H96.33v1.35Zm.63-2.25L86.8,20h9.53v1.35Zm-1.27,4.5.38-1.35h10.8v1.35Z"/><path class="cls-6" d="M77.9,41.24H76.61l.65-3.3.65,3.3Zm3.55,2.65L79.1,35.77H75.63l-2.39,8.12H76l.22-.94h2l.23.94Zm5.74,0-.27-2.2h-2V35.77h-2.8v8.12Zm7.61-4.07c0-3.94-1.33-4.05-4.16-4.05H88v8.12h2.61c2.84,0,4.16-.11,4.16-4.07Zm-2.81,0c0,1.56,0,2.3-.94,2.3h-.23V37.54h.23c.9,0,.94.75.94,2.29Zm6.61,4.07V35.77H95.8v8.12Z"/><rect class="cls-7" y="0.15" width="171.97" height="53.72"/></g></g></svg>