<svg xmlns="http://www.w3.org/2000/svg" viewBox="0 0 171.97 53.72"><defs><style>.cls-1{fill:#00a94f;fill-rule:evenodd;}.cls-2{fill:none;}</style></defs><title>Asset 101</title><g id="Layer_2" data-name="Layer 2"><g id="Layer_1-2" data-name="Layer 1"><path class="cls-1" d="M116.6,15.88h-9.74l-2.57,10.24h0a6.72,6.72,0,0,0-.11-1.07c-.08-.46-.2-1.06-.34-1.56a8.14,8.14,0,0,0-.48-1.34,9.06,9.06,0,0,0-.82-1.43,15.75,15.75,0,0,0-1.26-1.57,7.68,7.68,0,0,0-1.22-1.09,12,12,0,0,0-1.71-1,11.1,11.1,0,0,0-1.74-.67,9.73,9.73,0,0,0-1.29-.3c-.42-.07-.9-.13-1.2-.15a3.88,3.88,0,0,0-.5,0H86V28.11h0a9,9,0,0,0-.52-1,7,7,0,0,0-1.14-1.4,6,6,0,0,0-1.54-1.05,13.59,13.59,0,0,0-2.34-.87,15.44,15.44,0,0,0-2.58-.45h0l-1.3-.13h0A1.54,1.54,0,0,1,76,23a1.8,1.8,0,0,1-.53-.39.85.85,0,0,1-.2-.4,1,1,0,0,1,.17-.85,1.12,1.12,0,0,1,.36-.3,1.63,1.63,0,0,1,.61-.17,8.79,8.79,0,0,1,1.37-.07,9.31,9.31,0,0,1,1.65.21c.59.12,1.25.3,1.76.46a9.45,9.45,0,0,1,1.25.48h0l2.48-4.61h0a6.68,6.68,0,0,0-1.16-.55,16.41,16.41,0,0,0-2.22-.69,14.34,14.34,0,0,0-2.84-.35,20.91,20.91,0,0,0-2.77.15,8.4,8.4,0,0,0-1.95.41,11.07,11.07,0,0,0-2.24,1,7.77,7.77,0,0,0-1.51,1.28,4.25,4.25,0,0,0-.63.83A9.19,9.19,0,0,0,69,20.58a6.76,6.76,0,0,0-.38,1.22,6,6,0,0,0,0,2.46,5.22,5.22,0,0,0,1.16,2.49,6.27,6.27,0,0,0,.84.84,5,5,0,0,0,1.16.74,18.66,18.66,0,0,0,2,.79,10.7,10.7,0,0,0,1.46.37l1.12.19.58.08a2.67,2.67,0,0,1,.57.11,1.45,1.45,0,0,1,.53.31,1.11,1.11,0,0,1,.27.43,1.2,1.2,0,0,1,.08.51,2.15,2.15,0,0,1-.14.64,1.16,1.16,0,0,1-.34.48,2.13,2.13,0,0,1-.58.35,1.33,1.33,0,0,1-.67.06c-.31,0-.76-.1-1.07-.16A2.73,2.73,0,0,1,75,32.3c-.66-.26-1.32-.52-2-.82s-1.26-.64-1.89-1h0L69.4,33.38,64.26,15.91H54.59l-5.79,22h6.73l1.11-4.48h6.27l1.25,4.49,6.5,0-.45-1.53h0a6.86,6.86,0,0,0,.74.36,14.71,14.71,0,0,0,1.82.67,15.34,15.34,0,0,0,2.63.52,12.08,12.08,0,0,0,2.33,0,11,11,0,0,0,1.71-.3,12.81,12.81,0,0,0,3-1.16,9.12,9.12,0,0,0,2.61-2.1,5.93,5.93,0,0,0,.56-.75c.14-.22.27-.44.39-.68h0v5h0c2.8,0,5.6,0,8.4,0a2.89,2.89,0,0,0,.63,0,11,11,0,0,0,1.43-.3,13.77,13.77,0,0,0,1.93-.71,11.37,11.37,0,0,0,1.68-.95,10.15,10.15,0,0,0,1.3-1.06,13.94,13.94,0,0,0,1.19-1.29h0l-1,4.29H108l1.22-4.47h6.1l1.43,4.46h6.4l-6.57-22ZM57.84,28.69l1.65-6.89,2,6.9ZM97.75,27a7,7,0,0,1-.28,1.86,6,6,0,0,1-.76,1.58,2.45,2.45,0,0,1-.8.78,4.69,4.69,0,0,1-1,.46,2.76,2.76,0,0,1-.82.12c-.55,0-1.2,0-1.81,0h0v-10h0l.67,0a5,5,0,0,1,1.09.08,7,7,0,0,1,1.34.43,1.92,1.92,0,0,1,.83.64,8.81,8.81,0,0,1,.9,1.36,5.13,5.13,0,0,1,.47,1.31,5.62,5.62,0,0,1,.15,1.4Zm12.53,1.69,1.73-7,1.88,7Z"/><rect class="cls-2" width="171.97" height="53.72"/></g></g></svg>