<svg xmlns="http://www.w3.org/2000/svg" viewBox="0 0 171.97 53.72"><defs><style>.cls-1{fill:#ee814b;}.cls-1,.cls-2,.cls-3{fill-rule:evenodd;}.cls-2{fill:#f3a02b;}.cls-3{fill:#d36f3a;}.cls-4{fill:none;}</style></defs><title>Asset 105</title><g id="Layer_2" data-name="Layer 2"><g id="Layer_1-2" data-name="Layer 1"><path class="cls-1" d="M74.33,11.85c-8.66,0-15.69,5.37-15.69,12a9.44,9.44,0,0,0,.77,3.72,17.35,17.35,0,0,1-9.94,3.05,6.46,6.46,0,1,1,0-12.92c1.68,0,4.36,1.69,4.36,1.69s5.37-5,4.77-5.3a19.06,19.06,0,0,0-9.12-2.24c-8.66,0-15.69,5.37-15.69,12s7,12,15.69,12A17.7,17.7,0,0,0,61.9,31.16a17.7,17.7,0,0,0,12.43,4.68C83,35.84,90,30.47,90,23.84s-7-12-15.69-12Zm0,18.76a6.46,6.46,0,1,1,6.46-6.46,6.46,6.46,0,0,1-6.46,6.46Z"/><path class="cls-2" d="M124.91,12.17a14.65,14.65,0,0,0-7.81,2.2V12.09h-7.66v4.82c-2.82-3.21-7.6-5.32-13-5.32-8.66,0-15.69,5.37-15.69,12s7,12,15.69,12c5.43,0,10.22-2.11,13-5.32V42.13h7.66V32.9a14.66,14.66,0,0,0,7.81,2.2c7.33,0,13.28-5.13,13.28-11.47s-5.94-11.47-13.28-11.47ZM96.4,30.35a6.46,6.46,0,1,1,6.46-6.46,6.46,6.46,0,0,1-6.46,6.46l26.86-.56a6.16,6.16,0,1,1,6.16-6.16,6.16,6.16,0,0,1-6.16,6.16l-26.86.56Z"/><path class="cls-3" d="M90,24.6c0-.23,0-1.2,0-1.44a11,11,0,0,0-4.79-8,10.8,10.8,0,0,0-4.47,8.08c0,.29.05,1.15,0,1.29a11.11,11.11,0,0,0,4.76,7.67A10.91,10.91,0,0,0,90,24.6Z"/><rect class="cls-4" width="171.97" height="53.72"/></g></g></svg>