<svg xmlns="http://www.w3.org/2000/svg" viewBox="0 0 128.5 37.6"><defs><style>.cls-1{fill:#ee814b;}.cls-1,.cls-2,.cls-3{fill-rule:evenodd;}.cls-2{fill:#f3a02b;}.cls-3{fill:#d36f3a;}</style></defs><title>Asset 11</title><g id="Layer_2" data-name="Layer 2"><g id="Layer_1-2" data-name="Layer 1"><path class="cls-1" d="M49.9.32C39.24.32,30.6,6.93,30.6,15.08a11.62,11.62,0,0,0,.95,4.57,21.36,21.36,0,0,1-12.24,3.76,8,8,0,1,1,0-15.9c2.07,0,5.36,2.08,5.36,2.08s6.61-6.12,5.87-6.52A23.45,23.45,0,0,0,19.31.32C8.64.32,0,6.93,0,15.08S8.64,29.85,19.31,29.85c6.23,0,11.77-2.26,15.3-5.76,3.53,3.5,9.07,5.76,15.3,5.76,10.66,0,19.31-6.61,19.31-14.77S60.57.32,49.9.32Zm0,23.09a8,8,0,1,1,7.95-8,8,8,0,0,1-7.95,8Z"/><path class="cls-2" d="M112.16.72a18,18,0,0,0-9.62,2.71V.62H93.12V6.55C89.65,2.6,83.76,0,77.08,0,66.41,0,57.77,6.61,57.77,14.77s8.64,14.76,19.31,14.76c6.69,0,12.58-2.6,16-6.55V37.6h9.43V26.23a18,18,0,0,0,9.62,2.7c9,0,16.34-6.32,16.34-14.11S121.19.72,112.16.72ZM77.08,23.09a8,8,0,1,1,8-8,8,8,0,0,1-8,8l33.05-.69a7.58,7.58,0,1,1,7.58-7.58,7.58,7.58,0,0,1-7.58,7.58l-33.05.69Z"/><path class="cls-3" d="M69.16,16c0-.29,0-1.47,0-1.77a13.57,13.57,0,0,0-5.9-9.79,13.29,13.29,0,0,0-5.5,9.94c0,.35.07,1.42.06,1.59a13.67,13.67,0,0,0,5.86,9.44A13.43,13.43,0,0,0,69.16,16Z"/></g></g></svg>