<svg xmlns="http://www.w3.org/2000/svg" viewBox="0 0 61.22 61.07"><defs><style>.cls-1{fill:#fcfdfc;}.cls-2{fill:#8bc540;}.cls-3{fill:#4d8c40;}</style></defs><title>Asset 18</title><g id="Layer_2" data-name="Layer 2"><g id="Layer_1-2" data-name="Layer 1"><path class="cls-1" d="M23.79,56.74c-.45-.86,0-1.77,1.7-3.37C27,52,27.68,51.72,31.06,51.45a9.35,9.35,0,0,0,3-.51c.54-.26.57-.29.2-.23s-1.61.13-3.06.22c-3,.16-4.06.41-5.38,1.31L25,52.8l0-.45a3.05,3.05,0,0,1,1.07-2.29c1.35-1.25,2.84-1.57,5.67-1.23,3.06.36,4.6.26,6.09-.38.35-.15.65-.2.7-.13S38,49.63,37,51.17a13.78,13.78,0,0,1-4.24,4.08,6.56,6.56,0,0,1-6.92-.17c-.71-.52-.71-.52-1-.22a4.54,4.54,0,0,0-.59,1.25c-.29.87-.33.93-.49.64ZM14,41.25l0-2.87h1l.73,1.71a13.52,13.52,0,0,0,.81,1.7A13.56,13.56,0,0,0,17.32,40L18,38.3h1v5.8H18l0-1.61,0-1.61L17.4,42.1c-.44,1-.58,1.2-.88,1.25s-.41-.06-.84-1.12a4.18,4.18,0,0,0-.61-1.18,5.35,5.35,0,0,0-.12,1.52v1.52h-1l0-2.86Zm6.43,2.54c.06-.19.49-1.48,1-2.87.81-2.45.86-2.54,1.23-2.54s.42.09,1.31,2.68c.51,1.48.91,2.77.91,2.87s-.15.17-.52.15-.57-.1-.68-.52l-.13-.48-.88,0c-.86,0-.88.06-1,.52s-.17.46-.7.46S20.3,44.08,20.38,43.79ZM23.15,42c-.06-.13-.16-.54-.26-.91-.23-1-.33-1-.61,0-.32,1.18-.32,1.19.36,1.19.49,0,.58,0,.51-.23Zm3-.74,0-2.87,1.31,0c1.58,0,2.18.19,2.58,1a1.45,1.45,0,0,1-.29,1.8c-.36.33-.36.35-.12,1,.13.35.38.93.52,1.32l.28.68H29.34l-.49-1.23-.48-1.25-.58,0-.58,0,0,1.2,0,1.19h-1ZM29,40.59a.92.92,0,0,0,.17-.58c0-.55-.52-.87-1.33-.81-.61,0-.62.06-.67.61-.07.87,0,1,.88,1A1.87,1.87,0,0,0,29,40.59Zm3.08.61V38.3h1l0,1.26,0,1.28,1-1.28c.94-1.19,1-1.26,1.57-1.26.3,0,.55,0,.55.12a9.06,9.06,0,0,1-.94,1.22l-.94,1.12,1.09,1.68,1.07,1.67H35.18l-.77-1.23-.78-1.23-.28.35a1.86,1.86,0,0,0-.28,1.23v.88h-1Zm5.69,0,0-2.87h3.63l0,.41,0,.39H38.88v1.6h2.18v.87H38.88v1.58l1.28,0c1.26,0,1.26,0,1.31.45l0,.39H37.72Zm5.92.39V39.17H43c-.62,0-.65,0-.65-.44V38.3h3.77v.44c0,.42,0,.44-.65.44h-.65v4.93H43.67Zm-4.42-6.95a4.85,4.85,0,0,1-.88-.35A4,4,0,0,1,37,32.93a4.42,4.42,0,0,1,1.39-1c.12,0,.45.15.77.44,1.39,1.26,3.71.67,3.71-.94,0-.78-.55-1.23-2.31-1.93-2.42-1-3.25-1.74-3.38-3.22-.2-2.26,1.09-3.66,3.53-3.79a4.13,4.13,0,0,1,3.48,1.06,3.52,3.52,0,0,1,.64.78,5,5,0,0,1-1.58,1,2.26,2.26,0,0,1-.62-.48,2,2,0,0,0-3,.09,1.17,1.17,0,0,0,.07,1.6,6.69,6.69,0,0,0,2.42,1.26c2.23.91,2.93,1.77,2.93,3.55a3,3,0,0,1-2.32,3.21,10.29,10.29,0,0,1-3.47.07Zm-35.59-6,0-5.85,3.82,0,3.8,0v1.74l-2.71,0-2.73,0v3l2.29,0,2.28,0v1.71l-2.28,0-2.29,0,0,2.51,0,2.5H3.63Zm10.71-.06V22.76l3.09,0c2.86,0,3.12.07,3.69.36a3.46,3.46,0,0,1,1.73,3.57,3.18,3.18,0,0,1-1.32,2c-.2.09-.36.23-.36.32s.46,1.28,1,2.64,1,2.58,1,2.67-.36.15-1.12.12l-1.12,0L20,32l-1-2.51H16.54v5.08H14.36Zm5.89-1.26a1.36,1.36,0,0,0,.45-1.07,1.16,1.16,0,0,0-.36-1.22l-.44-.49-1.68,0-1.68-.06v3.22h1.65c1.54,0,1.7,0,2.06-.33Zm6.44,1.28V22.78h7.54v1.74H28.87v3.19h4.5v1.74h-4.5v3.34h5.37v1.74H26.69Zm21.91,0V22.78h2.18l0,2.44,0,2.42H55.2l0-2.42,0-2.44h2.18V34.53H55.28V29.45h-4.5v5.08H48.6ZM23.91,16.44l0-2.44-.68,0c-.67,0-.7-.06-.7-.48V13l1.93,0,1.92,0,0,.41c0,.38,0,.39-.68.39H25v4.93h-1Zm3.66-.49V13l.55,0,.54,0,0,1.2,0,1.2,1,0,1,0,0-1.19,0-1.2h1v5.8h-1l0-1.19,0-1.2-1,0-1.06,0v2.48H27.57Zm6.38,0v-2.9h3.63v.87H35v1.6h2.18v.87H35V18h2.61v.87H33.95Z"/><path class="cls-2" d="M7.62,53.84a2.23,2.23,0,0,1-.87-.68c-.28-.41-.29-.75-.33-7.63l0-7.22h1.9V52.23h13l.58.83a10.81,10.81,0,0,1,.62.93c0,.07-3.16.12-7.11.12C8.72,54.12,8.15,54.09,7.62,53.84Zm30.1.19a9.53,9.53,0,0,1,.59-.94l.61-.86H51.79V38.3h1.9l0,7.31,0,7.33-.42.44a2.57,2.57,0,0,1-.94.59c-.55.16-14.52.2-14.52.06ZM6.49,18.91c-.06,0-.1-2.38-.1-5.18,0-4.69,0-5.14.28-5.7C7.2,6.88,5.15,7,30.18,7H52.52l.55.49.54.49,0,5.54,0,5.53-.91,0-.91,0,0-5.12,0-5.11-21.73,0-21.72,0,0,5.12,0,5.11H7.43A2.63,2.63,0,0,1,6.49,18.91Z"/><path class="cls-3" d="M1.06,61a1.67,1.67,0,0,1-.68-.44L0,60.17V.84L.42.42.84,0h29.7C63.31,0,60.73-.07,61.06.9c.12.32.16,9.18.16,29.6,0,25.26,0,29.2-.22,29.65-.42,1,1.9.93-30.42.91C14.52,61.05,1.23,61,1.06,61Zm23.82-6.12c.26-.3.26-.3,1,.22a6.56,6.56,0,0,0,6.92.17A13.78,13.78,0,0,0,37,51.17c1-1.54,1.62-2.67,1.51-2.86s-.35,0-.7.13c-1.49.64-3,.74-6.09.38-2.83-.33-4.32,0-5.67,1.23A3.05,3.05,0,0,0,25,52.35l0,.45.84-.57c1.32-.9,2.36-1.15,5.38-1.31,1.45-.09,2.83-.17,3.06-.22s.33,0-.2.23a9.35,9.35,0,0,1-3,.51c-3.38.28-4.09.51-5.57,1.93-1.68,1.6-2.15,2.51-1.7,3.37.16.29.2.23.49-.64a4.53,4.53,0,0,1,.59-1.25ZM22.46,54a10.79,10.79,0,0,0-.62-.93l-.58-.83h-13V38.3H6.37l0,7.22c0,6.88.06,7.22.33,7.63a2.23,2.23,0,0,0,.87.68c.54.25,1.1.28,7.73.28C19.3,54.12,22.49,54.07,22.46,54Zm29.78,0a2.57,2.57,0,0,0,.94-.59l.42-.44,0-7.33,0-7.31h-1.9V52.23H38.93l-.61.86a9.56,9.56,0,0,0-.59.94c0,.15,14,.1,14.52-.06ZM14.94,42.58a5.35,5.35,0,0,1,.12-1.52,4.18,4.18,0,0,1,.61,1.18c.44,1.06.51,1.16.84,1.12s.45-.23.88-1.25l.52-1.22,0,1.61,0,1.61h1V38.3H18L17.32,40a13.56,13.56,0,0,1-.78,1.74,13.52,13.52,0,0,1-.81-1.7L15,38.38H14l0,2.87,0,2.86h1Zm6.62,1.06c.13-.46.16-.48,1-.52l.88,0,.13.48c.12.42.2.48.68.52s.54,0,.52-.15-.41-1.39-.91-2.87c-.88-2.6-.93-2.68-1.31-2.68s-.42.09-1.23,2.54c-.46,1.39-.9,2.68-1,2.87s0,.32.48.32S21.44,44.06,21.56,43.64Zm5.6-.73,0-1.2.58,0,.58,0,.48,1.25.49,1.23h1.13l-.28-.68c-.15-.39-.39-1-.52-1.32-.25-.61-.25-.62.12-1a1.45,1.45,0,0,0,.29-1.8c-.41-.83-1-1.06-2.58-1l-1.31,0,0,2.87,0,2.86h1l0-1.19Zm5.92.3A1.86,1.86,0,0,1,33.35,42l.28-.35.78,1.23.77,1.23h1.36l-1.07-1.67-1.09-1.68.94-1.12a9.06,9.06,0,0,0,.94-1.22c0-.07-.25-.12-.55-.12-.54,0-.62.07-1.57,1.26l-1,1.28,0-1.28,0-1.26h-1v5.8h1Zm8.39.49c0-.41,0-.41-1.31-.45l-1.28,0V41.64h2.18v-.87H38.88v-1.6h2.63l0-.39,0-.41H37.79l0,2.87,0,2.86h3.79l0-.39Zm3.37-2.07V39.17h.65c.62,0,.65,0,.65-.44V38.3H42.36v.44c0,.42,0,.44.65.44h.65v4.93h1.16Zm-2.12-7A3,3,0,0,0,45,31.41c0-1.78-.7-2.64-2.93-3.55s-2.79-1.32-2.79-2c0-1.51,2.13-2.12,3.31-.93a2.26,2.26,0,0,0,.62.48,5,5,0,0,0,1.58-1,3.52,3.52,0,0,0-.64-.78,4.13,4.13,0,0,0-3.48-1.06C38.27,22.65,37,24,37.18,26.3c.13,1.48,1,2.26,3.38,3.22,1.76.7,2.31,1.15,2.31,1.93,0,1.61-2.32,2.21-3.71.94-.32-.29-.65-.48-.77-.44a4.42,4.42,0,0,0-1.39,1,4,4,0,0,0,1.36,1.41,4.85,4.85,0,0,0,.88.35A10.28,10.28,0,0,0,42.71,34.62ZM5.83,32l0-2.51,2.29,0,2.28,0V27.73l-2.28,0-2.29,0v-3l2.73,0,2.71,0V22.78l-3.8,0-3.82,0,0,5.85,0,5.83H5.8Zm10.71,0V29.45h2.41L20,32l1,2.5,1.12,0c.75,0,1.12,0,1.12-.12s-.46-1.29-1-2.67-1-2.55-1-2.64.16-.23.36-.32a3.18,3.18,0,0,0,1.32-2,3.46,3.46,0,0,0-1.73-3.57c-.57-.29-.83-.32-3.69-.36l-3.09,0V34.53h2.18V32Zm17.7,1.67v-.87H28.87V29.45h4.5V27.71h-4.5V24.52h5.37V22.78H26.69V34.53h7.54ZM50.78,32V29.45h4.5v5.08h2.18V22.78H55.28l0,2.44,0,2.42H50.85l0-2.42,0-2.44H48.6V34.53h2.18ZM8.3,13.9l0-5.12,21.72,0,21.73,0,0,5.11,0,5.12.91,0,.91,0,0-5.53,0-5.54-.54-.49L52.52,7H30.18C5.15,7,7.2,6.88,6.66,8c-.25.57-.28,1-.28,5.7,0,2.8,0,5.14.1,5.18a2.63,2.63,0,0,0,.94.1h.84l0-5.11ZM25,16.4V13.93h.74c.71,0,.73,0,.68-.39l0-.41-1.92,0-1.93,0v.44c0,.42,0,.44.7.48l.68,0,0,2.44,0,2.42h1Zm3.77,1.23V16.38l1.06,0,1,0,0,1.2,0,1.19h1v-5.8h-1l0,1.2,0,1.19-1,0-1,0,0-1.2,0-1.2-.54,0-.55,0v5.82h1.16Zm8.85.8V18H35V16.4h2.18v-.87H35v-1.6h2.61v-.87H33.95v5.8h3.63Z"/><path class="cls-3" d="M22.05,42a4.69,4.69,0,0,1,.58-1.76,3.07,3.07,0,0,1,.26.78c.1.38.2.78.26.91s0,.23-.51.23-.59-.07-.59-.17Zm5.14-1.48a2.32,2.32,0,0,1,0-.75c0-.55.06-.57.67-.61.81-.06,1.33.26,1.33.81a.92.92,0,0,1-.17.58c-.25.25-1.7.23-1.8,0ZM16.54,26.1V24.49l1.68.06,1.68,0,.44.49a1.16,1.16,0,0,1,.36,1.22,1.36,1.36,0,0,1-.45,1.07c-.36.3-.52.33-2.06.33H16.54V26.1Z"/></g></g></svg>