<svg xmlns="http://www.w3.org/2000/svg" viewBox="0 0 171.97 53.72"><defs><style>.cls-1{fill:#fcfdfc;}.cls-2{fill:#8bc540;}.cls-3{fill:#4d8c40;}.cls-4{fill:none;}</style></defs><title>Asset 108</title><g id="Layer_2" data-name="Layer 2"><g id="Layer_1-2" data-name="Layer 1"><path class="cls-1" d="M80.85,45.59c-.34-.64,0-1.33,1.28-2.54,1.11-1.07,1.65-1.25,4.2-1.45a7,7,0,0,0,2.29-.38c.4-.2.43-.22.15-.17s-1.21.1-2.31.16c-2.27.12-3.06.31-4.05,1l-.63.43,0-.34a2.3,2.3,0,0,1,.81-1.73c1-.94,2.14-1.18,4.27-.93,2.31.27,3.46.2,4.59-.28.26-.11.49-.15.52-.1a5.81,5.81,0,0,1-1.14,2.15,10.38,10.38,0,0,1-3.19,3.07,4.94,4.94,0,0,1-5.21-.13c-.54-.39-.54-.39-.73-.16a3.42,3.42,0,0,0-.45.94c-.22.66-.25.7-.37.48ZM73.44,33.92l0-2.16h.75L74.77,33a10.18,10.18,0,0,0,.61,1.28A10.22,10.22,0,0,0,76,33l.52-1.31h.74v4.37h-.75l0-1.21,0-1.21-.39.92c-.33.76-.44.91-.67.94s-.31,0-.63-.84a3.15,3.15,0,0,0-.46-.89,4,4,0,0,0-.09,1.15v1.15h-.76l0-2.15Zm4.84,1.91c0-.14.37-1.11.72-2.16.61-1.85.64-1.91.93-1.91s.32.07,1,2c.38,1.11.69,2.09.69,2.16s-.11.13-.39.11-.43-.08-.51-.39l-.1-.36-.67,0c-.64,0-.67,0-.76.39s-.13.35-.52.35S78.22,36,78.28,35.83Zm2.09-1.36c0-.1-.12-.4-.2-.69-.17-.74-.25-.74-.46,0-.24.89-.24.9.27.9s.44,0,.38-.17Zm2.25-.56,0-2.16,1,0c1.19,0,1.64.14,1.95.76a1.09,1.09,0,0,1-.22,1.35c-.27.25-.27.26-.09.72.1.26.28.7.39,1l.21.51H85l-.37-.93-.36-.94-.44,0-.44,0,0,.91,0,.9H82.6Zm2.14-.49a.69.69,0,0,0,.13-.44c0-.42-.39-.66-1-.61-.46,0-.47,0-.5.46-.05.66,0,.72.67.72A1.41,1.41,0,0,0,84.76,33.42Zm2.32.46V31.7h.75l0,1,0,1,.75-1c.71-.9.78-1,1.18-1,.23,0,.42,0,.42.09a6.83,6.83,0,0,1-.71.92l-.71.84.82,1.27.81,1.26h-1l-.58-.93-.59-.93-.21.26a1.4,1.4,0,0,0-.21.93v.67h-.77Zm4.28,0,0-2.16h2.73l0,.31,0,.3h-2v1.2h1.64v.66H92.21V35.4l1,0c1,0,1,0,1,.34l0,.3H91.34Zm4.46.3V32.35h-.49c-.47,0-.49,0-.49-.33V31.7h2.84V32c0,.32,0,.33-.49.33h-.49v3.72h-.87ZM92.49,29a3.66,3.66,0,0,1-.67-.26,3,3,0,0,1-1-1.06,3.33,3.33,0,0,1,1-.73c.09,0,.34.11.58.33,1,1,2.8.5,2.8-.71,0-.59-.42-.93-1.74-1.45-1.82-.72-2.45-1.31-2.55-2.43-.15-1.7.82-2.75,2.66-2.85a3.11,3.11,0,0,1,2.62.8,2.65,2.65,0,0,1,.48.59A3.75,3.75,0,0,1,95.5,22a1.7,1.7,0,0,1-.47-.36,1.51,1.51,0,0,0-2.27.07.88.88,0,0,0,.05,1.2,5,5,0,0,0,1.82,1c1.68.69,2.21,1.33,2.21,2.68a2.28,2.28,0,0,1-1.75,2.41,7.75,7.75,0,0,1-2.61.05ZM65.68,24.46l0-4.4,2.87,0,2.86,0v1.31l-2,0-2.05,0v2.29l1.73,0,1.72,0V25l-1.72,0-1.73,0,0,1.89,0,1.88H65.66Zm8.06,0V20l2.33,0c2.15,0,2.35.05,2.78.27A2.6,2.6,0,0,1,80.15,23a2.4,2.4,0,0,1-1,1.52c-.15.07-.27.17-.27.24s.35,1,.76,2,.76,1.95.76,2-.27.11-.84.09l-.84,0L78,26.92,77.2,25H75.39v3.82H73.75Zm4.44-1a1,1,0,0,0,.34-.81.87.87,0,0,0-.27-.92l-.33-.37-1.27,0-1.27,0v2.43h1.25c1.16,0,1.28,0,1.55-.25Zm4.85,1V20h5.68v1.31h-4v2.4h3.39V25H84.67v2.51h4v1.31H83Zm16.5,0V20h1.64l0,1.84,0,1.82h3.28l0-1.82,0-1.84h1.64v8.85h-1.64V25h-3.39v3.82H99.54Zm-18.6-9.2,0-1.84-.51,0c-.5,0-.52,0-.52-.36v-.33l1.45,0,1.44,0,0,.31c0,.28,0,.3-.51.3h-.56v3.72H81Zm2.75-.37V12.67l.42,0,.4,0,0,.91,0,.91.79,0,.79,0,0-.9,0-.91H87v4.37h-.75l0-.9,0-.91-.79,0-.8,0v1.87h-.87Zm4.81,0V12.68h2.73v.66h-2v1.2H90.9v.66H89.26v1.2h2v.66H88.5Z"/><path class="cls-2" d="M68.66,43.4a1.68,1.68,0,0,1-.66-.51c-.21-.31-.22-.57-.25-5.75l0-5.44h1.43V42.19h9.78l.44.62a8.14,8.14,0,0,1,.47.7c0,.05-2.38.09-5.35.09C69.5,43.61,69.07,43.59,68.66,43.4Zm22.67.14a7.17,7.17,0,0,1,.45-.71l.46-.64h9.69V31.7h1.43l0,5.51,0,5.52-.32.33a1.94,1.94,0,0,1-.71.45c-.42.12-10.94.15-10.94,0ZM67.81,17.09s-.08-1.79-.08-3.9c0-3.53,0-3.87.21-4.29.4-.86-1.14-.8,17.71-.8h16.83l.42.37.4.37,0,4.17,0,4.16-.69,0-.69,0,0-3.86,0-3.85-16.37,0-16.36,0,0,3.86,0,3.85h-.63A2,2,0,0,1,67.81,17.09Z"/><path class="cls-3" d="M63.73,48.78a1.26,1.26,0,0,1-.51-.33l-.28-.28V3.48l.32-.32.32-.32H85.93c24.69,0,22.74-.05,23,.68.09.24.12,6.92.12,22.29,0,19,0,22-.16,22.34-.32.75,1.43.7-22.92.69-12.1,0-22.11,0-22.24-.07Zm17.94-4.61c.2-.23.2-.23.73.16a4.94,4.94,0,0,0,5.21.13,10.38,10.38,0,0,0,3.19-3.07,5.81,5.81,0,0,0,1.14-2.15c0-.05-.26,0-.52.1-1.13.48-2.28.56-4.59.28-2.13-.25-3.26,0-4.27.93a2.3,2.3,0,0,0-.81,1.73l0,.34.63-.43c1-.68,1.78-.86,4.05-1,1.09-.07,2.13-.13,2.31-.16s.25,0-.15.17a7,7,0,0,1-2.29.38c-2.55.21-3.08.38-4.2,1.45-1.27,1.2-1.62,1.89-1.28,2.54.12.22.15.17.37-.48a3.41,3.41,0,0,1,.45-.94Zm-1.82-.64a8.13,8.13,0,0,0-.47-.7l-.44-.62H69.16V31.7H67.73l0,5.44c0,5.18,0,5.44.25,5.75a1.68,1.68,0,0,0,.66.51c.4.19.83.21,5.82.21C77.46,43.61,79.87,43.58,79.84,43.52Zm22.43,0a1.94,1.94,0,0,0,.71-.45l.32-.33,0-5.52,0-5.51h-1.43V42.19H92.25l-.46.64a7.2,7.2,0,0,0-.45.71c0,.11,10.52.08,10.94,0ZM74.18,34.92a4,4,0,0,1,.09-1.15,3.15,3.15,0,0,1,.46.89c.33.8.38.87.63.84s.34-.17.67-.94l.39-.92,0,1.21,0,1.21h.75V31.7H76.5L76,33a10.22,10.22,0,0,1-.59,1.31A10.18,10.18,0,0,1,74.77,33l-.55-1.29h-.75l0,2.16,0,2.15h.76Zm5,.8c.1-.35.12-.36.76-.39l.67,0,.1.36c.09.32.15.36.51.39s.4,0,.39-.11-.31-1-.69-2.16c-.67-2-.7-2-1-2s-.32.07-.93,1.91c-.35,1-.68,2-.72,2.16s0,.24.36.24S79.08,36,79.17,35.72Zm4.22-.55,0-.91.44,0,.44,0,.36.94.37.93h.85l-.21-.51c-.11-.3-.3-.73-.39-1-.19-.46-.19-.47.09-.72a1.09,1.09,0,0,0,.22-1.35c-.31-.62-.75-.8-1.95-.76l-1,0,0,2.16,0,2.15h.75l0-.9Zm4.46.23a1.4,1.4,0,0,1,.21-.93l.21-.26.59.93.58.93h1l-.81-1.26-.82-1.27.71-.84a6.83,6.83,0,0,0,.71-.92c0-.05-.19-.09-.42-.09-.4,0-.47.05-1.18,1l-.75,1,0-1,0-1h-.75v4.37h.76Zm6.32.37c0-.31,0-.31-1-.34l-1,0V34.21h1.64v-.66H92.21v-1.2h2l0-.3,0-.31H91.39l0,2.16,0,2.15h2.85l0-.3Zm2.54-1.56V32.35h.49c.47,0,.49,0,.49-.33V31.7H94.84V32c0,.32,0,.33.49.33h.49v3.72h.87Zm-1.6-5.29a2.28,2.28,0,0,0,1.75-2.41c0-1.34-.52-2-2.21-2.68s-2.1-1-2.1-1.52c0-1.14,1.61-1.6,2.49-.7a1.7,1.7,0,0,0,.47.36,3.75,3.75,0,0,0,1.19-.78,2.65,2.65,0,0,0-.48-.59,3.11,3.11,0,0,0-2.62-.8c-1.84.1-2.81,1.15-2.66,2.85.1,1.11.72,1.7,2.55,2.43,1.32.52,1.74.86,1.74,1.45,0,1.21-1.75,1.66-2.8.71-.24-.22-.49-.36-.58-.33a3.33,3.33,0,0,0-1,.73,3,3,0,0,0,1,1.06,3.65,3.65,0,0,0,.67.26A7.75,7.75,0,0,0,95.1,28.92ZM67.32,27l0-1.89,1.73,0,1.72,0V23.73l-1.72,0-1.73,0V21.37l2.05,0,2,0V20l-2.86,0-2.87,0,0,4.4,0,4.39H67.3Zm8.06,0V25H77.2L78,26.92l.76,1.88.84,0c.57,0,.84,0,.84-.09s-.35-1-.76-2-.76-1.92-.76-2,.12-.17.27-.24a2.4,2.4,0,0,0,1-1.52,2.6,2.6,0,0,0-1.3-2.69c-.43-.22-.62-.24-2.78-.27l-2.33,0v8.86h1.64V26.94ZM88.72,28.2v-.66h-4V25h3.39V23.72H84.67v-2.4h4V20H83v8.85h5.68Zm12.46-1.26V25h3.39v3.82h1.64V20h-1.64l0,1.84,0,1.82h-3.28l0-1.82,0-1.84H99.54v8.85h1.64Zm-32-13.63,0-3.86,16.36,0,16.37,0,0,3.85,0,3.86.69,0,.69,0,0-4.16,0-4.17-.4-.37-.42-.37H85.66c-18.85,0-17.31-.07-17.71.8-.19.43-.21.76-.21,4.29,0,2.11,0,3.87.08,3.9a2,2,0,0,0,.71.08h.63l0-3.85ZM81.72,15.2V13.34h.56c.54,0,.55,0,.51-.3l0-.31-1.44,0-1.45,0V13c0,.32,0,.33.52.36l.51,0,0,1.84,0,1.82h.76Zm2.84.93v-.94l.8,0,.79,0,0,.91,0,.9H87V12.68h-.75l0,.91,0,.9-.79,0-.79,0,0-.91,0-.91-.4,0-.42,0v4.38h.87Zm6.67.6V16.4h-2V15.2H90.9v-.66H89.26v-1.2h2v-.66H88.5v4.37h2.73Z"/><path class="cls-3" d="M79.54,34.52A3.53,3.53,0,0,1,80,33.19a2.31,2.31,0,0,1,.2.59c.08.28.15.59.2.69s0,.17-.38.17-.45-.05-.45-.13Zm3.87-1.11a1.75,1.75,0,0,1,0-.57c0-.42,0-.43.5-.46.61,0,1,.2,1,.61a.69.69,0,0,1-.13.44c-.19.19-1.28.17-1.36,0Zm-8-10.89V21.29l1.27,0,1.27,0,.33.37a.87.87,0,0,1,.27.92,1,1,0,0,1-.34.81c-.27.23-.39.25-1.55.25H75.39V22.51Z"/><rect class="cls-4" width="171.97" height="53.72"/></g></g></svg>