<svg xmlns="http://www.w3.org/2000/svg" xmlns:xlink="http://www.w3.org/1999/xlink" viewBox="0 0 65.66 53.5"><defs><style>.cls-1{fill:url(#linear-gradient);}.cls-2,.cls-6{fill:#fff;}.cls-3{fill:url(#linear-gradient-2);}.cls-10,.cls-11,.cls-12,.cls-13,.cls-4,.cls-5,.cls-6,.cls-7,.cls-8,.cls-9{fill-rule:evenodd;}.cls-4,.cls-5{opacity:0.81;}.cls-4{fill:url(#linear-gradient-3);}.cls-5{fill:url(#linear-gradient-4);}.cls-7{fill:#231f20;}.cls-8{fill:url(#linear-gradient-5);}.cls-9{fill:url(#linear-gradient-6);}.cls-10{fill:url(#linear-gradient-7);}.cls-11{fill:url(#linear-gradient-8);}.cls-12{fill:url(#linear-gradient-9);}.cls-13{fill:url(#linear-gradient-10);}</style><linearGradient id="linear-gradient" x1="12.72" y1="6.64" x2="53.77" y2="47.69" gradientUnits="userSpaceOnUse"><stop offset="0.01" stop-color="#98272b"/><stop offset="0.15" stop-color="#ed272a"/><stop offset="0.23" stop-color="#ed2a2d"/><stop offset="0.29" stop-color="#ee3336"/><stop offset="0.34" stop-color="#ef4345"/><stop offset="0.39" stop-color="#f1595b"/><stop offset="0.44" stop-color="#f47577"/><stop offset="0.48" stop-color="#f6999a"/><stop offset="0.52" stop-color="#fac2c3"/><stop offset="0.56" stop-color="#fef1f1"/><stop offset="0.57" stop-color="#fff"/><stop offset="0.58" stop-color="#fcdfe0"/><stop offset="0.59" stop-color="#f9b4b6"/><stop offset="0.61" stop-color="#f68e90"/><stop offset="0.62" stop-color="#f36e70"/><stop offset="0.64" stop-color="#f15457"/><stop offset="0.66" stop-color="#ef4043"/><stop offset="0.68" stop-color="#ee3235"/><stop offset="0.7" stop-color="#ed292c"/><stop offset="0.75" stop-color="#ed272a"/><stop offset="1" stop-color="#98272b"/></linearGradient><linearGradient id="linear-gradient-2" x1="32.83" y1="4.14" x2="32.83" y2="48.94" gradientUnits="userSpaceOnUse"><stop offset="0.01" stop-color="#2d2f6f"/><stop offset="0.58" stop-color="#0073ba"/></linearGradient><linearGradient id="linear-gradient-3" x1="37.55" y1="18.06" x2="47.77" y2="7.83" gradientUnits="userSpaceOnUse"><stop offset="0.01" stop-color="#2d2f6f"/><stop offset="0.56" stop-color="#0073ba"/><stop offset="0.97" stop-color="#fff"/></linearGradient><linearGradient id="linear-gradient-4" x1="45.12" y1="23.52" x2="54.19" y2="14.46" xlink:href="#linear-gradient-3"/><linearGradient id="linear-gradient-5" x1="30.16" y1="8.33" x2="30.16" y2="43.65" gradientUnits="userSpaceOnUse"><stop offset="0.01" stop-color="#fff"/><stop offset="0.02" stop-color="#f4f7fa"/><stop offset="0.04" stop-color="#e0e8f2"/><stop offset="0.05" stop-color="#d2deec"/><stop offset="0.08" stop-color="#c9d8e8"/><stop offset="0.12" stop-color="#c7d6e7"/><stop offset="0.25" stop-color="#fff"/><stop offset="0.29" stop-color="#f4f5f7"/><stop offset="0.36" stop-color="#ebeef2"/><stop offset="0.46" stop-color="#e9ecf0"/><stop offset="0.8" stop-color="#7d98ce"/></linearGradient><linearGradient id="linear-gradient-6" x1="48.57" y1="8.33" x2="48.57" y2="43.67" xlink:href="#linear-gradient-5"/><linearGradient id="linear-gradient-7" x1="23.18" y1="8.36" x2="23.18" y2="43.62" xlink:href="#linear-gradient-5"/><linearGradient id="linear-gradient-8" x1="36.42" y1="8.27" x2="36.42" y2="43.63" xlink:href="#linear-gradient-5"/><linearGradient id="linear-gradient-9" x1="56.01" y1="8.37" x2="56.01" y2="43.62" xlink:href="#linear-gradient-5"/><linearGradient id="linear-gradient-10" x1="21.31" y1="8.33" x2="21.31" y2="43.66" xlink:href="#linear-gradient-5"/></defs><title>Asset 14</title><g id="Layer_2" data-name="Layer 2"><g id="Layer_1-2" data-name="Layer 1"><ellipse class="cls-1" cx="32.83" cy="26.75" rx="32.83" ry="26.75"/><ellipse class="cls-2" cx="32.83" cy="26.61" rx="29.6" ry="23.53"/><ellipse class="cls-3" cx="32.83" cy="26.61" rx="28.27" ry="22.47"/><path class="cls-4" d="M38.26,6c2.06,0,2.25,6.9,2.48,8.46.43,2.91,3.64,4.07,6.19,5.84a6.83,6.83,0,0,0-.45-1c-.29-3.21-.07-8.1-1.41-11-.46-1-3.76-2.79-6.73-2.62"/><path class="cls-5" d="M46.87,9.14c1.71,0,4.3,1.89,5.67,2.83a17.08,17.08,0,0,1,4.37,4.28,7,7,0,0,1,.71,6.05c-.51,1.91-2,4.58-4.25,3.2s-4.67-3.67-5.08-6.22A42.57,42.57,0,0,1,48,14.17a19,19,0,0,0-.75-4.67"/><path class="cls-6" d="M51.77,24.15a.32.32,0,0,0-.12-.29.61.61,0,0,0-.41-.12h-.49v1.43H51v-.65h.28l.29.65h.2l-.29-.65c.12,0,.16-.08.24-.12a.57.57,0,0,0,.08-.24Zm-.28.2a.6.6,0,0,1-.29,0H51v-.49h.24a.61.61,0,0,1,.29,0,.31.31,0,0,1,.08.2.31.31,0,0,1-.08.2Z"/><path class="cls-6" d="M52.26,24a3.62,3.62,0,0,0-.24-.41,1.9,1.9,0,0,0-.37-.24.87.87,0,0,0-.45-.08.8.8,0,0,0-.45.08,1,1,0,0,0-.37.24,3.77,3.77,0,0,0-.24.41,1.28,1.28,0,0,0,0,.9,1.38,1.38,0,0,0,.24.41,1,1,0,0,0,.37.24.8.8,0,0,0,.45.08.73.73,0,0,0,.41-.08.84.84,0,0,0,.41-.24,3.62,3.62,0,0,0,.24-.41,1.27,1.27,0,0,0,0-.9Zm-.12.86a.88.88,0,0,1-.2.33,1,1,0,0,1-.37.24,1.2,1.2,0,0,1-.37.08,1.46,1.46,0,0,1-.41-.08.84.84,0,0,1-.33-.24.88.88,0,0,1-.2-.33,1.06,1.06,0,0,1,0-.82.63.63,0,0,1,.24-.33.55.55,0,0,1,.28-.24,1.2,1.2,0,0,1,.41-.08,1.19,1.19,0,0,1,.37.08,1,1,0,0,1,.37.24.88.88,0,0,1,.2.33,1.44,1.44,0,0,1,.08.41,1.2,1.2,0,0,1-.08.41Z"/><path class="cls-7" d="M21.76,22.87H19.6c0,.53.2,1.43.29,1.91v9.37h2.48v-6.6c0-1.67.81-2.77,2.44-2.48V22.62a3,3,0,0,0-2.49.9c-.16-.24-.33-.33-.57-.65Z"/><path class="cls-7" d="M15,25.44c2.4-.73,3.63-1.91,4.07-6.31.57-6.31,1.34-7.37,4.52-7.41,3.79,0,4.52,2.65,4.52,9H30.8c.12-10.51-4.24-10.92-7-10.88-3.83.08-6.84,2.08-7.09,7.17-.16,3.38-.12,4.6-1.22,6.27-.65,1.06-2.81,1.79-3.06,1V17H9.86V34.15h2.65V27.07c.81-.57,2.61.33,2.85,1.83.2,1.26.41,5,1,5.25h2.2c.12,0,.2-.49,0-1.26-.45-4.36-1-6.07-3.71-7-.16,0-.24-.33.12-.45Z"/><path class="cls-7" d="M33.49,28.33c0-3.38-1.26-6.11-4.32-6.11s-4.32,2.73-4.32,6.11,1.47,6.11,4.32,6.11,4.32-2.77,4.32-6.11Zm-6.15,0c0-2,.45-3.75,1.75-3.83s1.83,1.59,1.83,3.79-.41,3.87-1.75,3.87-1.83-1.79-1.83-3.83Z"/><path class="cls-7" d="M55.16,23.64a7.16,7.16,0,0,0-.57-.69H52.43c0,.53.2,1.43.29,1.91v9.33l2.53,0V27.63c0-1.67.77-2.77,2.4-2.48V22.71a2.89,2.89,0,0,0-2.49.94Z"/><path class="cls-7" d="M40.37,22.79c-.2.16-.37.16-.45.45a2.39,2.39,0,0,0-2-.69,3.31,3.31,0,0,0-2.77,1.79c-.57.94-.65,2.61-.73,4.36a7,7,0,0,0,.81,4c1,1.79,3.54,2.24,4.73,1V38c0,3.67-2.2,5.62-4.77,5.66-2.12,0-4.2-1.22-4.2-5.42V36.43H28.23c0,4.11.69,6.19,2.85,7.78a7.58,7.58,0,0,0,8.27,0c2.77-2,2.93-4.16,2.93-7.94v-4l-.12-7.45a3.72,3.72,0,0,1,.49-2Zm-.65,7.82c0,.49-.61,1.34-1.1,1.34C37.24,32,37,30.89,37,28.49c0-3.42.69-3.67,1.83-3.71a1,1,0,0,1,.94,1,15.84,15.84,0,0,1,0,4.81Z"/><path class="cls-7" d="M47.66,22.34a3.24,3.24,0,0,0-2.89,1.39,7.94,7.94,0,0,0-1.22,4.64A7.67,7.67,0,0,0,44.81,33a3.22,3.22,0,0,0,2.93,1.3,3.33,3.33,0,0,0,2.61-1.06,5.56,5.56,0,0,0,1.22-3.46l-2.32,0c-.2,1.91-.81,2.4-1.75,2.4s-1.51-2.28-1.43-3.5h5.54c0-2.2,0-3.67-.94-5.13-1-1.06-1.51-1.14-3-1.18ZM49,27.11H46.52c-.16,0-.24-.49-.12-1.06s.2-1.47,1.38-1.55S49,25.31,49.13,26c.08.57,0,1.06-.16,1.06Z"/><path class="cls-2" d="M22.12,22.11H20c0,.53.2,1.43.29,1.91V33.4h2.48V26.8c0-1.67.81-2.77,2.44-2.48V21.87a3,3,0,0,0-2.48.9c-.16-.24-.33-.33-.57-.65Z"/><path class="cls-2" d="M15.35,24.68c2.4-.73,3.63-1.91,4.07-6.31C20,12.05,20.77,11,23.95,11c3.79,0,4.52,2.65,4.52,9h2.69C31.28,9.4,26.92,9,24.11,9c-3.83.08-6.84,2.08-7.09,7.17-.16,3.38-.12,4.6-1.22,6.27-.65,1.06-2.81,1.79-3.05,1V16.21H10.22V33.4h2.65V26.31c.81-.57,2.61.33,2.85,1.83.2,1.26.41,5,1,5.25h2.2c.12,0,.2-.49,0-1.26-.45-4.36-1-6.07-3.71-7-.16,0-.24-.33.12-.45Z"/><path class="cls-2" d="M33.85,27.57c0-3.38-1.26-6.11-4.32-6.11s-4.32,2.73-4.32,6.11,1.47,6.11,4.32,6.11,4.32-2.77,4.32-6.11Zm-6.15,0c0-2,.45-3.75,1.75-3.83s1.83,1.59,1.83,3.79-.41,3.87-1.75,3.87-1.83-1.79-1.83-3.83Z"/><path class="cls-2" d="M55.52,22.89a7.11,7.11,0,0,0-.57-.69H52.79c0,.53.2,1.43.29,1.91v9.33l2.53,0V26.88c0-1.67.77-2.77,2.4-2.48V22a2.89,2.89,0,0,0-2.49.94Z"/><path class="cls-2" d="M40.73,22c-.2.16-.37.16-.45.45a2.4,2.4,0,0,0-2-.69,3.31,3.31,0,0,0-2.77,1.79c-.57.94-.65,2.61-.73,4.36a7.05,7.05,0,0,0,.81,4c1,1.79,3.54,2.24,4.73,1v4.4c0,3.67-2.2,5.62-4.77,5.66-2.12,0-4.2-1.22-4.2-5.42V35.68H28.59c0,4.11.69,6.19,2.85,7.78a7.58,7.58,0,0,0,8.27,0c2.77-2,2.93-4.16,2.93-7.94v-4L42.53,24A3.73,3.73,0,0,1,43,22Zm-.65,7.82c0,.49-.61,1.34-1.1,1.34-1.38,0-1.63-1.06-1.67-3.46,0-3.42.69-3.67,1.83-3.71a1,1,0,0,1,.94,1,15.86,15.86,0,0,1,0,4.81Z"/><path class="cls-2" d="M48,21.58A3.24,3.24,0,0,0,45.13,23a7.94,7.94,0,0,0-1.22,4.64,7.67,7.67,0,0,0,1.26,4.64,3.22,3.22,0,0,0,2.93,1.3,3.32,3.32,0,0,0,2.61-1.06A5.56,5.56,0,0,0,51.93,29l-2.32,0c-.2,1.91-.81,2.4-1.75,2.4s-1.51-2.28-1.43-3.5H52c0-2.2,0-3.67-.94-5.13-1-1.06-1.51-1.14-3-1.18Zm1.3,4.77H46.88c-.16,0-.24-.49-.12-1.06s.2-1.47,1.39-1.55,1.18.81,1.34,1.55c.08.57,0,1.06-.16,1.06Z"/><path class="cls-8" d="M28.83,32.88a3.85,3.85,0,0,0,3.85-.74,6.07,6.07,0,0,0,1.67-3.54c.46-2.76-.12-7.23-3.57-7.64h.13a5,5,0,0,0-1.55,0h.16c-2.64.33-3.7,3.19-3.7,5.54s.43,5.42,3,6.39M28.31,27c0-1.22.18-4.1,2-3.81.85.13,1.15,1.06,1.35,1.78a11.25,11.25,0,0,1,.18,2.51C31.82,28.6,31.68,31,30,30.85s-1.7-2.69-1.7-3.86"/><path class="cls-9" d="M52.55,24.91c-.08-.49-.21-1-.29-1.46-.11-.27-.24-.53-.36-.79s-.3-.41-.41-.63a3.84,3.84,0,0,0-3-1C46,21,44.72,23.56,44.6,25.73A9.18,9.18,0,0,0,44.68,29,6.64,6.64,0,0,0,46,31.94c1.34,1.57,4.62,1.49,5.67-.38a6.3,6.3,0,0,0,.67-1.45,16.66,16.66,0,0,0,.24-1.66l-1.56,0h-.73c-.06,0-.25,1.14-.32,1.33a1.48,1.48,0,0,1-1,1,1,1,0,0,1-1.13-.28,5.15,5.15,0,0,1-.8-3.15h5.36c.29,0,.22-.16.22-.45,0-.67,0-1.33-.08-2m-5.18.69a2.41,2.41,0,0,1,.11-1.44,1.16,1.16,0,0,1,.87-.9,1.23,1.23,0,0,1,1.4.41,3.15,3.15,0,0,1,.38,1.63c0,.25,0,.47-.3.47h-.92c-.19,0-1.54.15-1.54-.16"/><path class="cls-10" d="M23.51,22l-.2.2c-.06-.12-.52-.69-.61-.69H20.57c0,.79.29,1.56.29,2.35v8.55c0,.15-.08.42.1.42h2.38s0-.48,0-.51V27.1a14.74,14.74,0,0,1,.09-1.63,2,2,0,0,1,2.36-1.74V21.34s-.41,0-.47,0a2.64,2.64,0,0,0-1.81.69"/><path class="cls-11" d="M41.35,21.45c-.2.16-.38.22-.45.49-1.21-1.45-3.59-.59-4.54.68s-.75,2.91-1,4.42a7.82,7.82,0,0,0,1,4.48,3.07,3.07,0,0,0,4.59.78v2.61a12.88,12.88,0,0,1-.3,4.06,4.79,4.79,0,0,1-3.66,3.36,4,4,0,0,1-3.84-1.23c-1.12-1.36-1.16-3.2-1.16-4.87v-.9c0-.15,0-.21-.13-.21H29.24a7.09,7.09,0,0,0,0,1.33,13.83,13.83,0,0,0,.45,3.06,6.21,6.21,0,0,0,3.15,3.91,7.92,7.92,0,0,0,6.67,0A6.47,6.47,0,0,0,43,39a22.37,22.37,0,0,0,.29-4.86V31.45c0-1.45,0-2.93-.06-4.38,0-.73,0-1.47,0-2.2a7.19,7.19,0,0,1,.45-3.42H41.35m-.49,5.21c0,.67,0,1.31-.09,2A2.52,2.52,0,0,1,40,30.5c-.63.48-1.5-.13-1.74-.74a6.87,6.87,0,0,1-.33-2.37c0-1.23-.15-3.79,1.56-3.9.65,0,1.21.24,1.21,1s.16,1.46.16,2.2"/><path class="cls-12" d="M56.42,22a2,2,0,0,1-.29.28c-.14-.21-.33-.35-.48-.55s-.06-.14-.21-.14l-1,0-.92,0c-.31,0-.14.31-.1.58a10.43,10.43,0,0,1,.23,1.48v8.63s0,.51,0,.51h2.49a6,6,0,0,0,0-1.16V26.42a3.06,3.06,0,0,1,.53-2,2.05,2.05,0,0,1,1.88-.63V21.66s0-.22,0-.26a5.71,5.71,0,0,0-.59,0,2.89,2.89,0,0,0-1.61.6"/><path class="cls-13" d="M20.08,17.41A15.07,15.07,0,0,1,21.18,12a2.94,2.94,0,0,1,2.47-1.59,4.7,4.7,0,0,1,3.82.87c1.15,1.1,1.38,2.93,1.5,4.43.1,1.17.12,2.34.12,3.51,0,.18.25.1.4.1h2c.4,0,.28-.1.28-.53a26,26,0,0,0-.2-3.33c-.36-2.83-1.44-6-4.53-6.81-2.58-.63-5.83-.12-7.64,1.93-1.4,1.58-1.69,3.63-1.81,5.66s0,4.36-1.43,5.92a3.4,3.4,0,0,1-1.56.92c-.35.1-1.11.24-1.25-.26a5,5,0,0,1,0-1.25V16.16a2.51,2.51,0,0,0,0-.54H10.85s0,9.73,0,10.64v6.56a10.75,10.75,0,0,0,1.5,0h.91c.22,0,.23,0,.23-.2V26c0-.15,0-.21.11-.3a1.1,1.1,0,0,1,.69-.1,2.42,2.42,0,0,1,1.48.84c.73.88.67,2.05.81,3.13.07.53.1,1.07.19,1.6a3.23,3.23,0,0,0,.48,1.64c.11.11.4,0,.54,0h1.11c.42,0,.7.12.75-.38A7.66,7.66,0,0,0,19.5,31c0-.47-.11-.94-.17-1.41-.22-1.8-.83-3.76-2.52-4.69-.25-.14-1-.25-1.09-.5s.74-.49.92-.56a4.2,4.2,0,0,0,2.11-1.55,7.25,7.25,0,0,0,1-2.36,8.66,8.66,0,0,0,.24-1.35,8.3,8.3,0,0,1,.15-1.21"/><path class="cls-6" d="M47.17,36.76a.32.32,0,0,0-.12-.29.61.61,0,0,0-.41-.12h-.49v1.43h.2v-.65h.29l.29.65h.2l-.29-.65c.12,0,.16-.08.24-.12a.57.57,0,0,0,.08-.24Zm-.28.2a.61.61,0,0,1-.29,0h-.24v-.49h.24a.61.61,0,0,1,.29,0,.3.3,0,0,1,0,.41Z"/><path class="cls-6" d="M47.66,36.64a3.57,3.57,0,0,0-.24-.41A1.9,1.9,0,0,0,47,36a.87.87,0,0,0-.45-.08.8.8,0,0,0-.45.08,1,1,0,0,0-.37.24,3.72,3.72,0,0,0-.24.41,1.28,1.28,0,0,0,0,.9,1.39,1.39,0,0,0,.24.41,1,1,0,0,0,.37.24.81.81,0,0,0,.45.08.74.74,0,0,0,.41-.08.85.85,0,0,0,.41-.24,3.66,3.66,0,0,0,.24-.41,1.28,1.28,0,0,0,0-.9Zm-.12.86a.88.88,0,0,1-.2.33,1,1,0,0,1-.37.24,1.2,1.2,0,0,1-.37.08,1.45,1.45,0,0,1-.41-.08.84.84,0,0,1-.33-.24.87.87,0,0,1-.2-.33,1.05,1.05,0,0,1,0-.81.63.63,0,0,1,.24-.33.54.54,0,0,1,.28-.24A1.18,1.18,0,0,1,46.6,36a1.17,1.17,0,0,1,.37.08,1,1,0,0,1,.37.24.88.88,0,0,1,.2.33,1.42,1.42,0,0,1,.08.41,1.19,1.19,0,0,1-.08.41Z"/></g></g></svg>