<svg xmlns="http://www.w3.org/2000/svg" xmlns:xlink="http://www.w3.org/1999/xlink" viewBox="0 0 171.97 53.72"><defs><style>.cls-1{fill:url(#linear-gradient);}.cls-2,.cls-6{fill:#fff;}.cls-3{fill:url(#linear-gradient-2);}.cls-10,.cls-11,.cls-12,.cls-13,.cls-4,.cls-5,.cls-6,.cls-7,.cls-8,.cls-9{fill-rule:evenodd;}.cls-4,.cls-5{opacity:0.81;}.cls-4{fill:url(#linear-gradient-3);}.cls-5{fill:url(#linear-gradient-4);}.cls-7{fill:#231f20;}.cls-8{fill:url(#linear-gradient-5);}.cls-9{fill:url(#linear-gradient-6);}.cls-10{fill:url(#linear-gradient-7);}.cls-11{fill:url(#linear-gradient-8);}.cls-12{fill:url(#linear-gradient-9);}.cls-13{fill:url(#linear-gradient-10);}.cls-14{fill:none;}</style><linearGradient id="linear-gradient" x1="69.64" y1="10.52" x2="103" y2="43.88" gradientUnits="userSpaceOnUse"><stop offset="0.01" stop-color="#98272b"/><stop offset="0.15" stop-color="#ed272a"/><stop offset="0.23" stop-color="#ed2a2d"/><stop offset="0.29" stop-color="#ee3336"/><stop offset="0.34" stop-color="#ef4345"/><stop offset="0.39" stop-color="#f1595b"/><stop offset="0.44" stop-color="#f47577"/><stop offset="0.48" stop-color="#f6999a"/><stop offset="0.52" stop-color="#fac2c3"/><stop offset="0.56" stop-color="#fef1f1"/><stop offset="0.57" stop-color="#fff"/><stop offset="0.58" stop-color="#fcdfe0"/><stop offset="0.59" stop-color="#f9b4b6"/><stop offset="0.61" stop-color="#f68e90"/><stop offset="0.62" stop-color="#f36e70"/><stop offset="0.64" stop-color="#f15457"/><stop offset="0.66" stop-color="#ef4043"/><stop offset="0.68" stop-color="#ee3235"/><stop offset="0.7" stop-color="#ed292c"/><stop offset="0.75" stop-color="#ed272a"/><stop offset="1" stop-color="#98272b"/></linearGradient><linearGradient id="linear-gradient-2" x1="85.98" y1="8.49" x2="85.98" y2="44.89" gradientUnits="userSpaceOnUse"><stop offset="0.01" stop-color="#2d2f6f"/><stop offset="0.58" stop-color="#0073ba"/></linearGradient><linearGradient id="linear-gradient-3" x1="89.82" y1="19.8" x2="98.12" y2="11.49" gradientUnits="userSpaceOnUse"><stop offset="0.01" stop-color="#2d2f6f"/><stop offset="0.56" stop-color="#0073ba"/><stop offset="0.97" stop-color="#fff"/></linearGradient><linearGradient id="linear-gradient-4" x1="95.97" y1="24.23" x2="103.34" y2="16.87" xlink:href="#linear-gradient-3"/><linearGradient id="linear-gradient-5" x1="83.82" y1="11.89" x2="83.82" y2="40.59" gradientUnits="userSpaceOnUse"><stop offset="0.01" stop-color="#fff"/><stop offset="0.02" stop-color="#f4f7fa"/><stop offset="0.04" stop-color="#e0e8f2"/><stop offset="0.05" stop-color="#d2deec"/><stop offset="0.08" stop-color="#c9d8e8"/><stop offset="0.12" stop-color="#c7d6e7"/><stop offset="0.25" stop-color="#fff"/><stop offset="0.29" stop-color="#f4f5f7"/><stop offset="0.36" stop-color="#ebeef2"/><stop offset="0.46" stop-color="#e9ecf0"/><stop offset="0.8" stop-color="#7d98ce"/></linearGradient><linearGradient id="linear-gradient-6" x1="98.77" y1="11.89" x2="98.77" y2="40.61" xlink:href="#linear-gradient-5"/><linearGradient id="linear-gradient-7" x1="78.14" y1="11.92" x2="78.14" y2="40.57" xlink:href="#linear-gradient-5"/><linearGradient id="linear-gradient-8" x1="88.9" y1="11.84" x2="88.9" y2="40.58" xlink:href="#linear-gradient-5"/><linearGradient id="linear-gradient-9" x1="104.82" y1="11.92" x2="104.82" y2="40.57" xlink:href="#linear-gradient-5"/><linearGradient id="linear-gradient-10" x1="76.63" y1="11.89" x2="76.63" y2="40.6" xlink:href="#linear-gradient-5"/></defs><title>Asset 112</title><g id="Layer_2" data-name="Layer 2"><g id="Layer_1-2" data-name="Layer 1"><ellipse class="cls-1" cx="85.98" cy="26.86" rx="26.68" ry="21.74"/><ellipse class="cls-2" cx="85.98" cy="26.75" rx="24.05" ry="19.12"/><ellipse class="cls-3" cx="85.98" cy="26.75" rx="22.97" ry="18.26"/><path class="cls-4" d="M90.4,10c1.67,0,1.83,5.6,2,6.87.35,2.37,3,3.31,5,4.75a5.55,5.55,0,0,0-.36-.81c-.23-2.61-.06-6.58-1.15-8.95-.37-.81-3.05-2.27-5.47-2.13"/><path class="cls-5" d="M97.39,12.55c1.39,0,3.5,1.54,4.61,2.3a13.88,13.88,0,0,1,3.55,3.48,5.68,5.68,0,0,1,.58,4.92c-.42,1.55-1.62,3.72-3.45,2.6s-3.79-3-4.12-5.05a34.59,34.59,0,0,1-.25-4.15,15.43,15.43,0,0,0-.61-3.79"/><path class="cls-6" d="M101.37,24.75a.26.26,0,0,0-.1-.23.49.49,0,0,0-.33-.1h-.4v1.16h.17V25h.23l.23.53h.17l-.23-.53c.1,0,.13-.07.2-.1a.46.46,0,0,0,.07-.2Zm-.23.16a.49.49,0,0,1-.23,0h-.2v-.4h.2a.5.5,0,0,1,.23,0,.25.25,0,0,1,.07.17.25.25,0,0,1-.07.16Z"/><path class="cls-6" d="M101.77,24.65a2.94,2.94,0,0,0-.2-.33,1.54,1.54,0,0,0-.3-.2.71.71,0,0,0-.36-.07.65.65,0,0,0-.36.07.78.78,0,0,0-.3.2,3.07,3.07,0,0,0-.2.33,1,1,0,0,0,0,.73,1.12,1.12,0,0,0,.2.33.78.78,0,0,0,.3.2.65.65,0,0,0,.36.07.59.59,0,0,0,.33-.07.69.69,0,0,0,.33-.2,2.94,2.94,0,0,0,.2-.33,1,1,0,0,0,0-.73Zm-.1.7a.71.71,0,0,1-.17.26.78.78,0,0,1-.3.2,1,1,0,0,1-.3.07,1.18,1.18,0,0,1-.33-.07.69.69,0,0,1-.26-.2.71.71,0,0,1-.17-.26.86.86,0,0,1,0-.66.51.51,0,0,1,.2-.26.44.44,0,0,1,.23-.2,1,1,0,0,1,.33-.07,1,1,0,0,1,.3.07.78.78,0,0,1,.3.2.71.71,0,0,1,.17.26,1.17,1.17,0,0,1,.07.33,1,1,0,0,1-.07.33Z"/><path class="cls-7" d="M77,23.71H75.23c0,.43.17,1.16.23,1.56v7.61h2V27.51c0-1.36.66-2.25,2-2v-2a2.44,2.44,0,0,0-2,.73c-.13-.2-.26-.26-.46-.53Z"/><path class="cls-7" d="M71.49,25.79c2-.6,2.95-1.56,3.31-5.13.46-5.13,1.09-6,3.67-6,3.08,0,3.67,2.15,3.67,7.28h2.18c.1-8.54-3.44-8.87-5.73-8.84-3.11.07-5.56,1.69-5.76,5.83-.13,2.75-.1,3.74-1,5.1-.53.86-2.28,1.46-2.48.79V18.91H67.32v14h2.15V27.12c.66-.46,2.12.26,2.32,1.49.17,1,.33,4.07.79,4.27h1.79c.1,0,.17-.4,0-1-.36-3.54-.83-4.93-3-5.69-.13,0-.2-.26.1-.36Z"/><path class="cls-7" d="M86.52,28.14c0-2.75-1-5-3.51-5s-3.51,2.22-3.51,5,1.19,5,3.51,5,3.51-2.25,3.51-5Zm-5,0c0-1.65.36-3,1.42-3.11s1.49,1.29,1.49,3.08S84.1,31.25,83,31.25s-1.49-1.46-1.49-3.11Z"/><path class="cls-7" d="M104.13,24.34a5.82,5.82,0,0,0-.46-.56h-1.75c0,.43.17,1.16.23,1.55v7.58l2.05,0v-5.3c0-1.36.63-2.25,2-2v-2a2.35,2.35,0,0,0-2,.76Z"/><path class="cls-7" d="M92.11,23.64c-.17.13-.3.13-.36.36a2,2,0,0,0-1.65-.56,2.69,2.69,0,0,0-2.25,1.46,8.54,8.54,0,0,0-.6,3.54,5.73,5.73,0,0,0,.66,3.21c.83,1.46,2.88,1.82,3.84.79V36c0,3-1.79,4.57-3.87,4.6-1.72,0-3.41-1-3.41-4.4V34.73H82.25c0,3.34.56,5,2.32,6.32a6.16,6.16,0,0,0,6.72,0c2.25-1.65,2.38-3.38,2.38-6.45V31.32l-.1-6.06a3,3,0,0,1,.4-1.62ZM91.58,30c0,.4-.5,1.09-.89,1.09-1.13,0-1.32-.86-1.36-2.81,0-2.78.56-3,1.49-3a.78.78,0,0,1,.76.83,12.87,12.87,0,0,1,0,3.91Z"/><path class="cls-7" d="M98,23.28a2.63,2.63,0,0,0-2.35,1.13,6.45,6.45,0,0,0-1,3.77,6.23,6.23,0,0,0,1,3.77A2.61,2.61,0,0,0,98.1,33a2.7,2.7,0,0,0,2.12-.86,4.52,4.52,0,0,0,1-2.81l-1.89,0c-.17,1.56-.66,2-1.42,2s-1.22-1.85-1.16-2.85h4.5c0-1.79,0-3-.76-4.17a2.66,2.66,0,0,0-2.45-1Zm1.06,3.87h-2c-.13,0-.2-.4-.1-.86s.17-1.19,1.13-1.26,1,.66,1.09,1.26,0,.86-.13.86Z"/><path class="cls-2" d="M77.28,23.09H75.52c0,.43.17,1.16.23,1.56v7.61h2V26.9c0-1.36.66-2.25,2-2v-2a2.44,2.44,0,0,0-2,.73c-.13-.2-.26-.26-.46-.53Z"/><path class="cls-2" d="M71.78,25.18c2-.6,2.95-1.56,3.31-5.13.46-5.13,1.09-6,3.67-6,3.08,0,3.67,2.15,3.67,7.28h2.18c.1-8.54-3.44-8.87-5.73-8.84-3.11.07-5.56,1.69-5.76,5.83C73,21,73,22,72.15,23.39c-.53.86-2.28,1.46-2.48.79V18.29H67.61v14h2.15V26.5c.66-.46,2.12.26,2.32,1.49.17,1,.33,4.07.79,4.27h1.79c.1,0,.17-.4,0-1-.36-3.54-.83-4.93-3-5.69-.13,0-.2-.27.1-.36Z"/><path class="cls-2" d="M86.81,27.53c0-2.75-1-5-3.51-5s-3.51,2.22-3.51,5,1.19,5,3.51,5,3.51-2.25,3.51-5Zm-5,0c0-1.66.36-3,1.42-3.11s1.49,1.29,1.49,3.08-.33,3.14-1.42,3.14-1.49-1.46-1.49-3.11Z"/><path class="cls-2" d="M104.42,23.72a5.78,5.78,0,0,0-.46-.56H102.2c0,.43.17,1.16.23,1.56v7.58l2.05,0V27c0-1.36.63-2.25,2-2V23a2.35,2.35,0,0,0-2,.76Z"/><path class="cls-2" d="M92.4,23c-.17.13-.3.13-.36.36a2,2,0,0,0-1.65-.56,2.69,2.69,0,0,0-2.25,1.46,8.54,8.54,0,0,0-.6,3.54A5.73,5.73,0,0,0,88.2,31c.83,1.46,2.88,1.82,3.84.79v3.58c0,3-1.79,4.57-3.87,4.6-1.72,0-3.41-1-3.41-4.4V34.11H82.54c0,3.34.56,5,2.32,6.32a6.16,6.16,0,0,0,6.72,0C93.83,38.75,94,37,94,33.95V30.71l-.1-6.06a3,3,0,0,1,.4-1.62Zm-.53,6.36c0,.4-.5,1.09-.89,1.09-1.13,0-1.32-.86-1.36-2.81,0-2.78.56-3,1.49-3a.78.78,0,0,1,.76.83,12.89,12.89,0,0,1,0,3.91Z"/><path class="cls-2" d="M98.33,22.66A2.63,2.63,0,0,0,96,23.79a6.45,6.45,0,0,0-1,3.77,6.24,6.24,0,0,0,1,3.77,2.61,2.61,0,0,0,2.38,1.06,2.7,2.7,0,0,0,2.12-.86,4.52,4.52,0,0,0,1-2.81l-1.89,0c-.17,1.56-.66,2-1.42,2S97,28.79,97,27.79h4.5c0-1.79,0-3-.76-4.17a2.66,2.66,0,0,0-2.45-1Zm1.06,3.87h-2c-.13,0-.2-.4-.1-.86s.17-1.19,1.13-1.26,1,.66,1.09,1.26,0,.86-.13.86Z"/><path class="cls-8" d="M82.74,31.84a3.13,3.13,0,0,0,3.13-.6,4.94,4.94,0,0,0,1.36-2.88c.37-2.24-.1-5.87-2.9-6.21h.11a4,4,0,0,0-1.26,0h.13c-2.15.26-3,2.59-3,4.5s.35,4.4,2.44,5.19m-.42-4.79c0-1,.15-3.33,1.66-3.09.69.11.93.86,1.1,1.44a9.14,9.14,0,0,1,.15,2c-.06.92-.17,2.88-1.53,2.75S82.31,28,82.31,27.05"/><path class="cls-9" d="M102,25.36c-.07-.4-.17-.79-.23-1.19-.09-.22-.19-.43-.29-.64s-.25-.33-.34-.52a3.12,3.12,0,0,0-2.44-.8c-2,0-3.06,2.06-3.15,3.82a7.46,7.46,0,0,0,.07,2.65,5.39,5.39,0,0,0,1,2.39c1.09,1.27,3.75,1.21,4.61-.31a5.12,5.12,0,0,0,.55-1.18,13.53,13.53,0,0,0,.2-1.35l-1.26,0h-.59s-.2.92-.26,1.08a1.21,1.21,0,0,1-.79.85.82.82,0,0,1-.92-.23,4.18,4.18,0,0,1-.65-2.56h4.35c.23,0,.18-.13.18-.37,0-.54,0-1.08-.06-1.62m-4.21.56a2,2,0,0,1,.09-1.17A.94.94,0,0,1,98.6,24a1,1,0,0,1,1.14.33,2.56,2.56,0,0,1,.31,1.32c0,.2,0,.38-.24.38h-.75c-.15,0-1.25.12-1.25-.13"/><path class="cls-10" d="M78.41,23l-.17.17c0-.1-.42-.56-.5-.56H76c0,.64.23,1.27.23,1.91v7c0,.12-.07.34.08.34h1.94s0-.39,0-.42V27.14a12,12,0,0,1,.07-1.32,1.59,1.59,0,0,1,1.91-1.42V22.47s-.33,0-.38,0a2.15,2.15,0,0,0-1.47.56"/><path class="cls-11" d="M92.9,22.55c-.16.13-.31.18-.36.4-1-1.18-2.92-.48-3.69.55s-.61,2.37-.81,3.59a6.35,6.35,0,0,0,.77,3.64,2.5,2.5,0,0,0,3.73.63v2.12a10.46,10.46,0,0,1-.24,3.3,3.9,3.9,0,0,1-3,2.73,3.23,3.23,0,0,1-3.12-1,6,6,0,0,1-.94-4v-.73c0-.13,0-.17-.1-.17H83.07a5.76,5.76,0,0,0,0,1.08,11.24,11.24,0,0,0,.36,2.49A5,5,0,0,0,86,40.39a6.43,6.43,0,0,0,5.42,0,5.25,5.25,0,0,0,2.81-3.54,18.18,18.18,0,0,0,.23-3.95V30.68c0-1.18,0-2.38,0-3.56,0-.6,0-1.19,0-1.79a5.84,5.84,0,0,1,.36-2.78H92.9m-.4,4.24c0,.54,0,1.07-.08,1.61a2,2,0,0,1-.63,1.52c-.51.39-1.22-.1-1.41-.6a5.58,5.58,0,0,1-.26-1.93c0-1-.12-3.08,1.27-3.17.53,0,1,.19,1,.79s.13,1.19.13,1.79"/><path class="cls-12" d="M105.15,23a1.61,1.61,0,0,1-.23.23c-.12-.17-.27-.29-.39-.45s0-.11-.17-.11h-1.53c-.25,0-.12.25-.08.47a8.47,8.47,0,0,1,.19,1.2v7s0,.42,0,.42h2a4.86,4.86,0,0,0,0-.94V26.59a2.48,2.48,0,0,1,.43-1.61,1.67,1.67,0,0,1,1.53-.51V22.72s0-.18,0-.21h-.48a2.34,2.34,0,0,0-1.31.49"/><path class="cls-13" d="M75.63,19.27a12.24,12.24,0,0,1,.89-4.36,2.39,2.39,0,0,1,2-1.29,3.82,3.82,0,0,1,3.1.71,5.52,5.52,0,0,1,1.22,3.6c.08.95.1,1.9.1,2.85,0,.15.2.08.33.08H84.9c.32,0,.23-.08.23-.43A21.14,21.14,0,0,0,85,17.73c-.29-2.3-1.17-4.92-3.68-5.53a6.46,6.46,0,0,0-6.21,1.57,7.25,7.25,0,0,0-1.47,4.6c-.09,1.62,0,3.54-1.16,4.81a2.76,2.76,0,0,1-1.27.75c-.29.08-.9.19-1-.21a4.05,4.05,0,0,1,0-1V18.25a2,2,0,0,0,0-.44h-2s0,7.91,0,8.65v5.33a8.74,8.74,0,0,0,1.22,0h.74c.18,0,.19,0,.19-.16V26.24c0-.12,0-.17.09-.24a.89.89,0,0,1,.56-.08,2,2,0,0,1,1.2.69,4.64,4.64,0,0,1,.66,2.54c.06.43.09.87.15,1.3a2.63,2.63,0,0,0,.39,1.33c.09.09.33,0,.44,0h.9c.34,0,.57.1.61-.3a6.22,6.22,0,0,0-.12-1.16c0-.38-.09-.77-.14-1.15a4.75,4.75,0,0,0-2-3.81c-.21-.11-.77-.2-.89-.4s.6-.4.75-.46a3.42,3.42,0,0,0,1.71-1.26,5.89,5.89,0,0,0,.77-1.92,7,7,0,0,0,.19-1.09,6.74,6.74,0,0,1,.12-1"/><path class="cls-6" d="M97.64,35a.26.26,0,0,0-.1-.23.49.49,0,0,0-.33-.1h-.4v1.16H97v-.53h.23l.23.53h.17l-.23-.53c.1,0,.13-.07.2-.1a.46.46,0,0,0,.07-.2Zm-.23.17a.49.49,0,0,1-.23,0H97v-.4h.2a.49.49,0,0,1,.23,0,.24.24,0,0,1,0,.33Z"/><path class="cls-6" d="M98,34.89a2.9,2.9,0,0,0-.2-.33,1.55,1.55,0,0,0-.3-.2.71.71,0,0,0-.36-.07.65.65,0,0,0-.36.07.79.79,0,0,0-.3.2,3,3,0,0,0-.2.33,1,1,0,0,0,0,.73,1.13,1.13,0,0,0,.2.33.78.78,0,0,0,.3.2.66.66,0,0,0,.36.07.6.6,0,0,0,.33-.07.69.69,0,0,0,.33-.2,3,3,0,0,0,.2-.33,1,1,0,0,0,0-.73Zm-.1.69a.71.71,0,0,1-.17.26.78.78,0,0,1-.3.2,1,1,0,0,1-.3.07,1.18,1.18,0,0,1-.33-.07.69.69,0,0,1-.26-.2.71.71,0,0,1-.17-.26.86.86,0,0,1,0-.66.51.51,0,0,1,.2-.26.44.44,0,0,1,.23-.2,1,1,0,0,1,.33-.07,1,1,0,0,1,.3.07.77.77,0,0,1,.3.2.72.72,0,0,1,.17.26,1.16,1.16,0,0,1,.07.33,1,1,0,0,1-.07.33Z"/><rect class="cls-14" width="171.97" height="53.72"/></g></g></svg>