<svg xmlns="http://www.w3.org/2000/svg" viewBox="0 0 171.97 53.72"><defs><style>.cls-1{fill:#ec1c24;stroke:#ec1c24;}.cls-1,.cls-2{stroke-miterlimit:2.61;stroke-width:0.17px;}.cls-1,.cls-2,.cls-3{fill-rule:evenodd;}.cls-2,.cls-3{fill:#0071bb;}.cls-2{stroke:#0071bb;}.cls-4{fill:none;}</style></defs><title>Asset 103</title><g id="Layer_2" data-name="Layer 2"><g id="Layer_1-2" data-name="Layer 1"><polygon class="cls-1" points="63.91 31.99 74.01 21.73 82.62 30.29 87.03 25.91 87.13 29.59 72.77 43.9 70.93 42.07 73.28 39.86 66.58 33 64.1 35.38 63.91 31.99 63.91 31.99"/><polygon class="cls-2" points="107.7 18.81 121.99 18.81 121.99 22.03 119.73 22.03 119.73 33.49 128.55 28.67 128.58 37.09 107.62 37.09 107.62 33.76 109.97 33.76 109.98 22.03 107.71 22.03 107.7 18.81 107.7 18.81"/><path class="cls-1" d="M72.77,21a5.58,5.58,0,1,0-5.58-5.59A5.59,5.59,0,0,0,72.77,21Z"/><polygon class="cls-2" points="43.47 19.02 57.75 19.02 57.75 22.24 55.51 22.24 55.51 33.7 64.32 28.87 64.34 37.29 43.39 37.29 43.39 33.98 45.72 33.98 45.74 22.24 43.45 22.24 43.47 19.02 43.47 19.02"/><path class="cls-3" d="M99.15,37.06H84.27V33.82h2.52l0-11.68H84.22V19h15c4.35,0,7.81,3,7.86,9,0,6.18-3.88,9.07-7.94,9.07Zm-3-5.65c1.73,0,3.18-1,3.19-3.66S97.88,24,96.21,24l0,7.37Z"/><rect class="cls-4" width="171.97" height="53.72"/></g></g></svg>