<svg xmlns="http://www.w3.org/2000/svg" viewBox="0 0 171.97 53.72"><defs><style>.cls-1{fill:#005740;}.cls-2{fill:#ffc114;}.cls-3{fill:none;}</style></defs><title>Asset 98</title><g id="Layer_2" data-name="Layer 2"><g id="Layer_1-2" data-name="Layer 1"><path class="cls-1" d="M75.48,49.58c.68,0,1.23-.34,1.23-1h0c0-.55-.34-.82-1-1S75,47.4,75,47.2h0c0-.14.14-.27.41-.27a1.42,1.42,0,0,1,.82.34l.34-.55a1.91,1.91,0,0,0-1.23-.41,1,1,0,0,0-1.16,1h0c0,.68.41.82,1.09,1s.68.2.68.41h0c0,.2-.2.34-.48.34a1.35,1.35,0,0,1-1-.41l-.41.48a2,2,0,0,0,1.36.48m1.71-2.8h.75v-.61h-.75Zm0,2.73h.68V47h-.68Zm1.36,0h.68V48.08a.43.43,0,0,1,.48-.48c.27,0,.41.2.41.48v1.43h.68V47.88a.87.87,0,0,0-.82-1,1,1,0,0,0-.75.41V47h-.68Zm4,.07a1.33,1.33,0,0,0,1-.48l-.41-.41c-.2.14-.34.27-.55.27a.63.63,0,0,1-.61-.68h0a.67.67,0,0,1,.61-.68.71.71,0,0,1,.55.27l.41-.48a1.2,1.2,0,0,0-1-.41,1.3,1.3,0,0,0-1.3,1.3h0a1.25,1.25,0,0,0,1.3,1.3m2.59,0a1.23,1.23,0,0,0,1-.48l-.41-.34a.74.74,0,0,1-.61.27.54.54,0,0,1-.61-.48h1.77v-.2A1.25,1.25,0,0,0,85.1,47a1.24,1.24,0,0,0-1.23,1.3h0a1.22,1.22,0,0,0,1.3,1.3m-.61-1.5c.07-.34.27-.55.55-.55s.48.2.55.55Zm3.62,1.43h.68V46.24h-.48l-.89.27.14.61.55-.14Zm2.59.07c.75,0,1.3-.34,1.3-1h0a.74.74,0,0,0-.55-.75.69.69,0,0,0,.41-.68h0c0-.48-.48-.89-1.16-.89s-1.16.41-1.16.89h0a.69.69,0,0,0,.41.68.82.82,0,0,0-.55.82h0c0,.55.55.89,1.3.89m0-2a.46.46,0,0,1-.48-.41h0a.48.48,0,0,1,1,0h0c0,.27-.2.41-.48.41m0,1.36c-.34,0-.55-.2-.55-.41h0c0-.27.2-.41.55-.41s.55.14.55.41h0c0,.27-.2.41-.55.41m2.8.61c1,0,1.43-.75,1.43-1.77h0a1.47,1.47,0,0,0-.41-1.23,1.11,1.11,0,0,0-1-.34A1.13,1.13,0,0,0,92.4,47.4h0a1.06,1.06,0,0,0,1.16,1.09,1.15,1.15,0,0,0,.68-.2c-.07.41-.27.75-.68.75a.88.88,0,0,1-.68-.27l-.41.55a2.57,2.57,0,0,0,1.09.27m.14-1.77a.49.49,0,0,1-.55-.48h0a.55.55,0,0,1,1.09,0h0c.07.27-.2.48-.55.48m2.93,1.77c1,0,1.43-.75,1.43-1.77h0a1.47,1.47,0,0,0-.41-1.23,1.11,1.11,0,0,0-1-.34,1.13,1.13,0,0,0-1.23,1.16h0a1.06,1.06,0,0,0,1.16,1.09,1.15,1.15,0,0,0,.68-.2c-.07.41-.27.75-.68.75a.88.88,0,0,1-.68-.27l-.41.55a2.33,2.33,0,0,0,1.09.27m.14-1.77a.49.49,0,0,1-.55-.48h0a.55.55,0,0,1,1.09,0h0a.49.49,0,0,1-.55.48"/><path class="cls-1" d="M87.89,29.52a1.84,1.84,0,1,1-1.84-1.84,1.79,1.79,0,0,1,1.84,1.84M127.13,37c-.14-.07-.2-.07-.34-.14-1-.34-1.64-.55-1.64-1v-.07c0-.41.48-.68,1-.68a5,5,0,0,1,2.39.75h.07c.07,0,.07,0,.14-.07l1.09-1.91v-.07c0-.07,0-.07-.07-.14a7.28,7.28,0,0,0-3.55-1c-2.46,0-4.09,1.23-4.09,3.21v.07c0,2,1.57,2.73,3.28,3.21.14.07.27.07.41.14,1.09.34,1.5.55,1.5,1v.07c-.07.41-.41.61-1.09.61a5.44,5.44,0,0,1-3.07-1.09h-.07c-.07,0-.07,0-.14.07l-1.16,1.84v.07c0,.07,0,.07.07.14a7.08,7.08,0,0,0,4.16,1.5c2.73,0,4.3-1.16,4.3-3.28v-.07c.07-1.84-1.57-2.66-3.21-3.21M97.45,40.17h0c0,2.12-1.64,3.34-4.3,3.34A6.92,6.92,0,0,1,89,42c-.07,0-.07-.07-.07-.14V41.8L90.08,40c0-.07.07-.07.14-.07h.07A5.28,5.28,0,0,0,93.35,41c.68,0,1.09-.2,1.09-.61V40.3c0-.48-.48-.75-1.5-1-.14-.07-.27-.07-.41-.14-1.77-.48-3.28-1.23-3.28-3.21h0c0-2,1.57-3.21,4.09-3.21a7.48,7.48,0,0,1,3.55,1c.07,0,.07.07.07.14v.07L95.88,35.8c0,.07-.07.07-.14.07h-.07a5.58,5.58,0,0,0-2.39-.75c-.61,0-1,.27-1,.68v.07c0,.48.61.68,1.64,1,.14.07.2.07.34.14,1.57.41,3.21,1.23,3.21,3.14M79.84,43.37H77.11a.15.15,0,0,1-.14-.14v-10a.15.15,0,0,1,.14-.14h2.59a.15.15,0,0,1,.14.14V34.5A3.41,3.41,0,0,1,82.57,33H83a.15.15,0,0,1,.14.14V35.8c0,.07,0,.07-.07.14a.09.09,0,0,1-.14,0h-.48a2.37,2.37,0,0,0-2.32,1.84A8.52,8.52,0,0,0,80,39.21v4c0,.14-.07.2-.14.2m-7.44-.14v-4a4.69,4.69,0,0,1,.2-1.5,2.43,2.43,0,0,1,2.32-1.84h.61a.24.24,0,0,0,.07-.14V33.14a.15.15,0,0,0-.14-.14h-.41a3.23,3.23,0,0,0-2.73,1.5V33.28a.15.15,0,0,0-.14-.14H69.61a.15.15,0,0,0-.14.14v10a.15.15,0,0,0,.14.14h2.73c.07,0,.07-.07.07-.14m-17.06.14H52.62a.15.15,0,0,1-.14-.14c0-3.14-.27-6.69-.34-7.78a26.4,26.4,0,0,0-2.66,4.78c0,.07-.07.07-.14.07H47.77c-.07,0-.14,0-.14-.07A22.83,22.83,0,0,0,45,35.46c-.07,1.09-.34,4.64-.34,7.78a.15.15,0,0,1-.14.14H41.77a.15.15,0,0,1-.14-.14,68.17,68.17,0,0,1,1-12.69.15.15,0,0,1,.14-.14H45c.07,0,.07,0,.14.07a23.88,23.88,0,0,1,3.48,5,22.26,22.26,0,0,1,3.48-5,.24.24,0,0,1,.14-.07h2.18a.15.15,0,0,1,.14.14,68.17,68.17,0,0,1,1,12.69c-.07.07-.14.14-.2.14m65.24-.14V36.89c0-2.59-1.23-4-3.62-4a4.12,4.12,0,0,0-3.14,1.36v-1a.15.15,0,0,0-.14-.14H111.1a.15.15,0,0,0-.14.14v10a.15.15,0,0,0,.14.14h2.73a.15.15,0,0,0,.14-.14V38.67a6.12,6.12,0,0,1,.14-1.23,2.4,2.4,0,0,1,2.32-1.77c.89,0,1.23.41,1.23,1.64v5.87a.15.15,0,0,0,.14.14h2.66c.14.07.14,0,.14-.07m-16.51-7.71a2.74,2.74,0,1,0,2.52,2.73,2.58,2.58,0,0,0-2.52-2.73m0,8.05a5.33,5.33,0,1,1,5.6-5.32,5.35,5.35,0,0,1-5.6,5.32m-16.51-.34v-10a.15.15,0,0,0-.14-.14H84.69a.15.15,0,0,0-.14.14v10a.15.15,0,0,0,.14.14h2.73a.15.15,0,0,0,.14-.14M62.44,35.53A2.74,2.74,0,1,0,65,38.26a2.58,2.58,0,0,0-2.52-2.73m0,8.05A5.33,5.33,0,1,1,68,38.26a5.44,5.44,0,0,1-5.6,5.32"/><path class="cls-2" d="M94.72,28.91a5.34,5.34,0,0,1-4.64-.75,4.82,4.82,0,0,1,7.71-2.8,5.43,5.43,0,0,1-3.07,3.55m6.48-12.42a5.35,5.35,0,0,0-4.71.07,5.28,5.28,0,0,0-2.39,4,5.35,5.35,0,0,0,4.71-.07,5.28,5.28,0,0,0,2.39-4m-10.3,6a5.12,5.12,0,0,1-3.75,2.73,5.23,5.23,0,0,1-.34-4.64,5.12,5.12,0,0,1,3.75-2.73,5.23,5.23,0,0,1,.34,4.64M74.45,25.36a4.82,4.82,0,0,0,7.71,2.8,4.82,4.82,0,0,0-7.71-2.8m1.16-8.8a5.28,5.28,0,0,1,2.39,4,5.35,5.35,0,0,1-4.71-.07,5.28,5.28,0,0,1-2.39-4,5.39,5.39,0,0,1,4.71.07m3-4.37a5.34,5.34,0,0,0,1.3,4.5,5.34,5.34,0,0,0,4.5,1.3,5.34,5.34,0,0,0-1.3-4.5,5.34,5.34,0,0,0-4.5-1.3m9.69-4a5.19,5.19,0,0,1-2.25,4.09A5.19,5.19,0,0,1,83.8,8.23a5.19,5.19,0,0,1,2.25-4.09A5.4,5.4,0,0,1,88.3,8.23m4.5,5.87a1.91,1.91,0,1,1-3.82,0,2,2,0,0,1,1.91-1.91,1.91,1.91,0,0,1,1.91,1.91m-8.6,7.85a1.91,1.91,0,0,1-1.91,1.91,2,2,0,0,1-1.91-1.91A1.91,1.91,0,0,1,82.3,20a2,2,0,0,1,1.91,1.91"/><rect class="cls-3" width="171.97" height="53.72"/></g></g></svg>