<svg xmlns="http://www.w3.org/2000/svg" viewBox="0 0 109.18 55.93"><defs><style>.cls-1{fill:#005740;}.cls-2{fill:#ffc114;}</style></defs><title>Asset 5</title><g id="Layer_2" data-name="Layer 2"><g id="Layer_1-2" data-name="Layer 1"><path class="cls-1" d="M41.65,55.93c.84,0,1.51-.42,1.51-1.26h0c0-.67-.42-1-1.26-1.18-.67-.17-.84-.25-.84-.5h0c0-.17.17-.34.5-.34a1.74,1.74,0,0,1,1,.42L43,52.4a2.34,2.34,0,0,0-1.51-.5,1.27,1.27,0,0,0-1.43,1.18h0c0,.84.5,1,1.34,1.26.67.17.84.25.84.5h0c0,.25-.25.42-.59.42a1.66,1.66,0,0,1-1.18-.5l-.5.59a2.42,2.42,0,0,0,1.68.59m2.1-3.44h.92v-.76h-.92Zm0,3.36h.84V52.74h-.84Zm1.68,0h.84V54.08a.53.53,0,0,1,.59-.59c.34,0,.5.25.5.59v1.76h.84v-2a1.07,1.07,0,0,0-1-1.18,1.28,1.28,0,0,0-.92.5v-.42h-.84Zm5,.08a1.64,1.64,0,0,0,1.26-.59l-.5-.5c-.25.17-.42.34-.67.34a.77.77,0,0,1-.76-.84h0a.83.83,0,0,1,.76-.84.87.87,0,0,1,.67.34l.5-.59a1.47,1.47,0,0,0-1.26-.5,1.59,1.59,0,0,0-1.6,1.6h0a1.54,1.54,0,0,0,1.6,1.6m3.19,0a1.52,1.52,0,0,0,1.26-.59l-.5-.42a.91.91,0,0,1-.76.34.67.67,0,0,1-.76-.59H55v-.25a1.54,1.54,0,0,0-1.51-1.68A1.52,1.52,0,0,0,52,54.34h0a1.5,1.5,0,0,0,1.6,1.6m-.76-1.85c.08-.42.34-.67.67-.67s.59.25.67.67Zm4.45,1.76h.84v-4h-.59l-1.09.34.17.76.67-.17Zm3.19.08c.92,0,1.6-.42,1.6-1.18h0a.91.91,0,0,0-.67-.92.84.84,0,0,0,.5-.84h0c0-.59-.59-1.09-1.43-1.09S59,52.4,59,53h0a.84.84,0,0,0,.5.84,1,1,0,0,0-.67,1h0c0,.67.67,1.09,1.6,1.09m0-2.44a.56.56,0,0,1-.59-.5h0a.59.59,0,0,1,1.18,0h0c0,.34-.25.5-.59.5m0,1.68c-.42,0-.67-.25-.67-.5h0c0-.34.25-.5.67-.5s.67.17.67.5h0c0,.34-.25.5-.67.5m3.44.76c1.18,0,1.76-.92,1.76-2.18h0a1.81,1.81,0,0,0-.5-1.51A1.36,1.36,0,0,0,64,51.82a1.39,1.39,0,0,0-1.51,1.43h0a1.3,1.3,0,0,0,1.43,1.34,1.42,1.42,0,0,0,.84-.25c-.08.5-.34.92-.84.92a1.08,1.08,0,0,1-.84-.34l-.5.67a3.16,3.16,0,0,0,1.34.34m.17-2.18a.6.6,0,0,1-.67-.59h0a.68.68,0,0,1,1.34,0h0c.08.34-.25.59-.67.59m3.61,2.18c1.18,0,1.76-.92,1.76-2.18h0a1.81,1.81,0,0,0-.5-1.51,1.36,1.36,0,0,0-1.18-.42,1.39,1.39,0,0,0-1.51,1.43h0a1.3,1.3,0,0,0,1.43,1.34,1.42,1.42,0,0,0,.84-.25c-.08.5-.34.92-.84.92a1.08,1.08,0,0,1-.84-.34l-.5.67a2.86,2.86,0,0,0,1.34.34m.17-2.18a.6.6,0,0,1-.67-.59h0a.68.68,0,0,1,1.34,0h0a.6.6,0,0,1-.67.59"/><path class="cls-1" d="M56.94,31.24A2.27,2.27,0,1,1,54.67,29a2.21,2.21,0,0,1,2.27,2.27m48.29,9.15c-.17-.08-.25-.08-.42-.17-1.26-.42-2-.67-2-1.26v-.08c0-.5.59-.84,1.26-.84A6.11,6.11,0,0,1,107,39h.08c.08,0,.08,0,.17-.08l1.34-2.35v-.08c0-.08,0-.08-.08-.17a9,9,0,0,0-4.37-1.18c-3,0-5,1.51-5,3.95v.08c0,2.44,1.93,3.36,4,3.95.17.08.34.08.5.17,1.34.42,1.85.67,1.85,1.26v.08c-.08.5-.5.76-1.34.76A6.69,6.69,0,0,1,100.36,44h-.08c-.08,0-.08,0-.17.08l-1.43,2.27v.08c0,.08,0,.08.08.17a8.71,8.71,0,0,0,5.12,1.85c3.36,0,5.29-1.43,5.29-4v-.08c.08-2.27-1.93-3.28-3.95-3.95M68.7,44.34h0c0,2.6-2,4.12-5.29,4.12a8.52,8.52,0,0,1-5.12-1.85c-.08,0-.08-.08-.08-.17v-.08l1.43-2.27c0-.08.08-.08.17-.08h.08a6.49,6.49,0,0,0,3.78,1.34c.84,0,1.34-.25,1.34-.76v-.08c0-.59-.59-.92-1.85-1.26-.17-.08-.34-.08-.5-.17-2.18-.59-4-1.51-4-3.95h0c0-2.44,1.93-3.95,5-3.95A9.21,9.21,0,0,1,68,36.36c.08,0,.08.08.08.17v.08L66.77,39c0,.08-.08.08-.17.08h-.08a6.87,6.87,0,0,0-2.94-.92c-.76,0-1.26.34-1.26.84v.08c0,.59.76.84,2,1.26.17.08.25.08.42.17,1.93.5,3.95,1.51,3.95,3.86M47,48.29H43.67a.18.18,0,0,1-.17-.17V35.86a.18.18,0,0,1,.17-.17h3.19a.18.18,0,0,1,.17.17v1.51a4.2,4.2,0,0,1,3.36-1.85h.5a.18.18,0,0,1,.17.17V39c0,.08,0,.08-.08.17a.12.12,0,0,1-.17,0h-.59a2.92,2.92,0,0,0-2.86,2.27,10.48,10.48,0,0,0-.17,1.76V48c0,.17-.08.25-.17.25m-9.15-.17V43.25a5.77,5.77,0,0,1,.25-1.85A3,3,0,0,1,41,39.14h.76a.29.29,0,0,0,.08-.17V35.69a.18.18,0,0,0-.17-.17h-.5a4,4,0,0,0-3.36,1.85V35.86a.18.18,0,0,0-.17-.17H34.43a.18.18,0,0,0-.17.17V48.12a.18.18,0,0,0,.17.17h3.36c.08,0,.08-.08.08-.17m-21,.17H13.52a.18.18,0,0,1-.17-.17c0-3.86-.34-8.23-.42-9.57a32.49,32.49,0,0,0-3.28,5.88c0,.08-.08.08-.17.08H7.56c-.08,0-.17,0-.17-.08a28.1,28.1,0,0,0-3.28-5.88C4,39.89,3.7,44.26,3.7,48.12a.18.18,0,0,1-.17.17H.17A.18.18,0,0,1,0,48.12C0,42.91.42,36,1.26,32.5a.18.18,0,0,1,.17-.17H4.12c.08,0,.08,0,.17.08a29.39,29.39,0,0,1,4.28,6.21,27.4,27.4,0,0,1,4.28-6.21.29.29,0,0,1,.17-.08H15.7a.18.18,0,0,1,.17.17c.84,3.53,1.26,10.41,1.26,15.62-.08.08-.17.17-.25.17m80.29-.17V40.31c0-3.19-1.51-4.87-4.45-4.87a5.07,5.07,0,0,0-3.86,1.68V35.86a.18.18,0,0,0-.17-.17H85.49a.18.18,0,0,0-.17.17V48.12a.18.18,0,0,0,.17.17h3.36a.18.18,0,0,0,.17-.17V42.49A7.53,7.53,0,0,1,89.19,41,3,3,0,0,1,92,38.8c1.09,0,1.51.5,1.51,2V48a.18.18,0,0,0,.17.17H97c.17.08.17,0,.17-.08M76.84,38.63A3.37,3.37,0,1,0,80,42a3.18,3.18,0,0,0-3.11-3.36m0,9.91A6.56,6.56,0,1,1,83.73,42a6.59,6.59,0,0,1-6.89,6.55m-20.32-.42V35.86a.18.18,0,0,0-.17-.17H53a.18.18,0,0,0-.17.17V48.12a.18.18,0,0,0,.17.17h3.36a.18.18,0,0,0,.17-.17M25.61,38.63A3.37,3.37,0,1,0,28.72,42a3.18,3.18,0,0,0-3.11-3.36m0,9.91a6.56,6.56,0,1,1,0-13.1A6.59,6.59,0,0,1,32.5,42a6.69,6.69,0,0,1-6.89,6.55"/><path class="cls-2" d="M65.34,30.49a6.58,6.58,0,0,1-5.71-.92,5.93,5.93,0,0,1,9.49-3.44,6.68,6.68,0,0,1-3.78,4.37m8-15.28a6.58,6.58,0,0,0-5.79.08,6.5,6.5,0,0,0-2.94,5,6.58,6.58,0,0,0,5.79-.08,6.5,6.5,0,0,0,2.94-5M60.63,22.59A6.3,6.3,0,0,1,56,26a6.44,6.44,0,0,1-.42-5.71,6.3,6.3,0,0,1,4.62-3.36,6.44,6.44,0,0,1,.42,5.71M40.4,26.12a6.52,6.52,0,0,0,3.78,4.37,6.58,6.58,0,0,0,5.71-.92,6.52,6.52,0,0,0-3.78-4.37,6.48,6.48,0,0,0-5.71.92m1.43-10.83a6.5,6.5,0,0,1,2.94,5A6.58,6.58,0,0,1,39,20.16a6.5,6.5,0,0,1-2.94-5,6.63,6.63,0,0,1,5.79.08m3.7-5.37a6.57,6.57,0,0,0,1.6,5.54A6.57,6.57,0,0,0,52.66,17a6.57,6.57,0,0,0-1.6-5.54,6.57,6.57,0,0,0-5.54-1.6M57.44,5a6.39,6.39,0,0,1-2.77,5A6.39,6.39,0,0,1,51.9,5a6.39,6.39,0,0,1,2.77-5,6.64,6.64,0,0,1,2.77,5M63,12.26a2.35,2.35,0,1,1-4.7,0,2.4,2.4,0,0,1,2.35-2.35A2.35,2.35,0,0,1,63,12.26M52.4,21.92a2.35,2.35,0,0,1-2.35,2.35,2.4,2.4,0,0,1-2.35-2.35,2.35,2.35,0,0,1,2.35-2.35,2.4,2.4,0,0,1,2.35,2.35"/></g></g></svg>