<svg xmlns="http://www.w3.org/2000/svg" viewBox="0 0 163.6 31.4"><defs><style>.cls-1{fill:#231f20;fill-rule:evenodd;}</style></defs><title>Asset 10</title><g id="Layer_2" data-name="Layer 2"><g id="Layer_1-2" data-name="Layer 1"><path class="cls-1" d="M26.45,11.75a7.8,7.8,0,0,0,1.78-4.94,10.81,10.81,0,0,0-.14-1.63,10.61,10.61,0,0,0-1.17-.11,7.78,7.78,0,0,0-4.26,1.24A9.37,9.37,0,0,0,16.83,3.8a4.63,4.63,0,0,0-2.91,1C10.58,2.95,8,.32,7.56.32s0,1-2,1S2.8,1.77,2.52,3.76c-.25,1.7-.25,1.7-.5,1.81C1,6.1.78,6.18.78,6.85.78,8.09,2,9.37,3.27,12.67A23.34,23.34,0,0,0,0,13.92C.71,17.82,1.88,20.17,5.15,22a4.83,4.83,0,0,0,2.31,3.37c1.14,3.37,3.48,4.83,5.43,4.83a3.88,3.88,0,0,0,1.63-.36,6.3,6.3,0,0,0,3,.71c1.81,0,3.69-.67,5.43-3.23a6.36,6.36,0,0,0,3.69-5.68A4.41,4.41,0,0,0,26,19.35a6,6,0,0,0,1-3.37,20.24,20.24,0,0,0-.6-4.22ZM5.28,2.21,6,2.14H6c.6,0,.64,0,.78.71h0L7.1,4.91h0c0,.18,0,.25-.14.25s-.25-.11-.6-.57h0L5.11,3h0a1.53,1.53,0,0,1-.32-.53c0-.11.07-.21.5-.28ZM3.4,4.42c0-.6.14-.92.5-.92.14,0,.21,0,.5.35h0L6.2,5.77h0c.25.25.39.43.39.53s-.43.36-.89.36c-2.38,0-2.38-.28-2.38-1h0L3.4,4.42Zm-1.3,3a.28.28,0,0,1,.32-.32c.07,0,.21.25,3.3.53,2.8.28,2.52,1.07,3.09,1.07.11,0,.18-.11.18-.32s-1.31-4-1.31-5.82c0-.43.07-.6.25-.6.43,0,.89,1,3.8,2.77.82.43,1.1.6,1.1,1a24,24,0,0,1-1.35,2.59c-.53,1.21-.85,2.41-1.07,2.7s-5.57,1.49-5.65,1.49c-.32,0-.46-.25-.78-1.1-.39-1-.39-1.07-.53-1.38A15.42,15.42,0,0,1,2.1,7.38ZM26,15.45a8.41,8.41,0,0,1-.71,3.12c-.85,0-1.1,0-1.1.28,0,.5,1.49.53,1.49,2.56s-1.31,4.4-3.12,4.69a5.27,5.27,0,0,1-5.11,3.37,6.73,6.73,0,0,1-3.37-1,1.54,1.54,0,0,1-1.38.64c-1.6,0-3.44-1.78-4.4-4.65A5.06,5.06,0,0,1,5.89,21C3.76,19.89,2,18.33,1.39,14.6a7.65,7.65,0,0,1,2.88-.75c1.85,0,3.09,1.74,3.52,1.74a.32.32,0,0,0,.32-.32c0-.5-1.07-1.38-1.85-1.88a4.86,4.86,0,0,1,2.95-.82,7.92,7.92,0,0,0-.43,1.49c0,.21.11.35.25.35.71,0,.46-2.38,2.24-2.38.82,0,1.46.92,1.81.92a.31.31,0,0,0,.28-.32c0-.25,0-.25-1.6-1.49C13,6,14.95,4.87,16.69,4.87a8.3,8.3,0,0,1,6,2.95A5.81,5.81,0,0,1,27.2,6.26C27.09,9,26.63,10,25.28,11.47a19.52,19.52,0,0,1,.67,4Z"/><path class="cls-1" d="M18.88,9c.32,0,2.06.6,2.06,1.63,0,.11,0,.18-.18.18-.39,0-.92-1.17-1.92-1.17-1.28,0-1.53,1.92-2,1.92-.11,0-.18-.11-.18-.28A2.37,2.37,0,0,1,18.88,9Z"/><path class="cls-1" d="M25.83,6.74c.25,0,.43.11.43.32S23.77,8.48,23.7,8.48a.25.25,0,0,1-.28-.25,3.25,3.25,0,0,1,2.41-1.49Z"/><path class="cls-1" d="M7.27,16.72a.16.16,0,0,1-.14.18c-.25,0-1.56-1.56-3.48-1.56l-.82,0c-.21,0-.46-.18-.46-.36s.46-.39,1-.39c1.21,0,3.94.92,3.94,2.09Z"/><path class="cls-1" d="M16.67,25.9c.57,1,1.28,1.81,2.06,1.81s1.35-1.17,1.46-3h0l-.57.14h0c-.89.21-.89.64-.89,1.49a2.43,2.43,0,0,0-1.46-.6,1.46,1.46,0,0,0-.6.14Z"/><path class="cls-1" d="M21.09,21.44c-.18,0-.43.21-.43.64s.18.64.39.64.43-.21.43-.67-.18-.6-.39-.6Z"/><path class="cls-1" d="M18.95,22.4a.32.32,0,0,0-.32.32,1,1,0,0,0,.78.82.36.36,0,0,0,.35-.35,1,1,0,0,0-.82-.78Z"/><path class="cls-1" d="M20.53,19.73l.5-.32h0c0-1-.25-2.41-.89-3h0l-.36.82h0c-.28-.6-.64-.89-.85-.89-.46,0-.78.89-.78,1.78A4.75,4.75,0,0,0,18.51,20a2.52,2.52,0,0,0-.85,2,4.62,4.62,0,0,0,.82,2.73h0l-.5.18h0a5.15,5.15,0,0,1-.82-2.73,2.42,2.42,0,0,1,1.1-2.24,4.38,4.38,0,0,1-1.1-3.23c0-2,1-2.91,1.85-2.91,1.88,0,2.8,3.05,2.8,5.79h0l.46,0h0c0-.43,0-.67,0-.78,0-2.91-1.46-5.54-3.3-5.54-1.35,0-2.38,1.28-2.38,3.41a6.9,6.9,0,0,0,.85,3.27,2.07,2.07,0,0,1-.71.14c-.46,0-.89-.11-1.1-.11s-.43.11-.43.25.85.11.85.39-.39.43-.39.6a.17.17,0,0,0,.18.18c.07,0,.07,0,.6-.46h0l.25,0h0a2.94,2.94,0,0,0-.18,1A7.73,7.73,0,0,0,17.37,25a3.87,3.87,0,0,1-1.31.18,1.81,1.81,0,0,1-.78-.14c-.46-1.92-.75-2.52-1.81-3.37h0l.64-.21h0c0-1.67-.35-2.59-1.1-3.05h0l-.43,1h0c-.32-.75-.32-.85-.53-.85-.5,0-.82,1-.82,1.53a3.91,3.91,0,0,0,.21,1.14h0l-.85.5h0a9.41,9.41,0,0,1-.6-3.09c0-1.53.5-2.52,1.74-2.52,1.63,0,2.7,2.31,3,5h0L15,21h0c0-3.2-1.6-5.5-3.44-5.5-1.42,0-2.13,1.17-2.13,3.2A8.43,8.43,0,0,0,10.16,22c-1,1.1-1,1.42-1,1.49a.24.24,0,0,0,.25.21c.32,0,1.17-1.92,2.73-1.92,2.45,0,2.77,4.44,2.84,4.44s.36-.21.57-.46c1.35.64,1.49,2.38,3,2.38,1.21,0,2-.71,2.34-3.8h0l1.85-1.56h0a4.15,4.15,0,0,0-2.17-3.05Zm-1.36,4.69c-.32,0-1-.92-1-2.45,0-1.07.57-2,1.63-2A3.12,3.12,0,0,1,22,22.47c0,.92-2.52,2-2.84,2Z"/><polygon class="cls-1" points="162.98 27.11 162.98 24.48 32.33 24.48 32.33 27.11 162.98 27.11 162.98 27.11 162.98 27.11"/><polygon class="cls-1" points="162.98 31.4 162.98 28.77 32.33 28.77 32.33 31.4 162.98 31.4 162.98 31.4 162.98 31.4"/><path class="cls-1" d="M29.58,2.62a1.34,1.34,0,0,0-1.36,1.31,1.36,1.36,0,1,0,1.36-1.31Zm0,2.38a1.06,1.06,0,1,1,1.09-1.07A1.07,1.07,0,0,1,29.58,5Z"/><path class="cls-1" d="M30.27,3.59a.36.36,0,0,0-.17-.32.74.74,0,0,0-.37-.07h-.66V4.67h.22V4h.26l.43.68h.26L29.79,4h0c.27,0,.48-.12.48-.41Zm-.73.22H29.3V3.37h.39c.19,0,.36,0,.36.22s-.29.23-.5.23Z"/><polygon class="cls-1" points="146.45 17.29 150.57 17.29 150.57 0.04 146.45 0.04 146.45 17.29 146.45 17.29 146.45 17.29"/><path class="cls-1" d="M145.63,11.07a5.3,5.3,0,0,0-1.35-3.59h0l1.1-2H143c-1.24,0-1.67-.18-2.84-.18a5.83,5.83,0,0,0-6.14,6,5.53,5.53,0,0,0,5.79,5.57,6.12,6.12,0,0,0,1.53-.18,1.17,1.17,0,0,1,.18.64c0,.85-.6,1.38-1.81,1.38s-2-.35-3.48-1.46h0l-2.13,3.12h0a8.78,8.78,0,0,0,5.57,2.09c3.48,0,6-2,6-4.83a5.75,5.75,0,0,0-1.21-3.34,4.56,4.56,0,0,0,1.24-3.23Zm-5.82,1.76a1.64,1.64,0,0,1-1.67-1.67,1.7,1.7,0,0,1,1.67-1.7,1.69,1.69,0,0,1,0,3.37Z"/><path class="cls-1" d="M133.57,11.07a5.3,5.3,0,0,0-1.35-3.59h0l1.1-2h-2.41c-1.24,0-1.67-.18-2.84-.18a5.83,5.83,0,0,0-6.14,6,5.53,5.53,0,0,0,5.79,5.57,6.12,6.12,0,0,0,1.53-.18,1.17,1.17,0,0,1,.18.64c0,.85-.6,1.38-1.81,1.38s-2-.35-3.48-1.46h0L122,20.37h0a8.78,8.78,0,0,0,5.57,2.09c3.48,0,6-2,6-4.83a5.75,5.75,0,0,0-1.21-3.34,4.56,4.56,0,0,0,1.24-3.23Zm-5.82,1.76a1.64,1.64,0,0,1-1.67-1.67,1.7,1.7,0,0,1,1.67-1.7,1.69,1.69,0,0,1,0,3.37Z"/><path class="cls-1" d="M74,11.07a5.3,5.3,0,0,0-1.35-3.59h0l1.1-2H71.31c-1.24,0-1.67-.18-2.84-.18a5.83,5.83,0,0,0-6.14,6,5.53,5.53,0,0,0,5.79,5.57,6.12,6.12,0,0,0,1.53-.18,1.17,1.17,0,0,1,.18.64c0,.85-.6,1.38-1.81,1.38s-2-.35-3.48-1.46h0L62.4,20.37h0A8.77,8.77,0,0,0,68,22.47c3.48,0,6-2,6-4.83a5.75,5.75,0,0,0-1.21-3.34A4.56,4.56,0,0,0,74,11.07Zm-5.82,1.76a1.64,1.64,0,0,1-1.67-1.67,1.7,1.7,0,0,1,1.67-1.7,1.69,1.69,0,0,1,0,3.37Z"/><polygon class="cls-1" points="117.13 3.3 121.25 3.3 121.25 0 117.13 0 117.13 3.3 117.13 3.3 117.13 3.3"/><polygon class="cls-1" points="117.13 17.3 121.25 17.3 121.25 4.91 117.13 4.91 117.13 17.3 117.13 17.3 117.13 17.3"/><path class="cls-1" d="M61.92,11.07a5.3,5.3,0,0,0-1.35-3.59h0l1.1-2H59.25c-1.24,0-1.67-.18-2.84-.18a5.83,5.83,0,0,0-6.14,6,5.53,5.53,0,0,0,5.79,5.57,6.12,6.12,0,0,0,1.53-.18,1.17,1.17,0,0,1,.18.64c0,.85-.6,1.38-1.81,1.38s-2-.35-3.48-1.46h0l-2.13,3.12h0a8.78,8.78,0,0,0,5.57,2.09c3.48,0,6-2,6-4.83a5.75,5.75,0,0,0-1.21-3.34,4.56,4.56,0,0,0,1.24-3.23Zm-5.82,1.76a1.64,1.64,0,0,1-1.67-1.67,1.7,1.7,0,0,1,1.67-1.7,1.69,1.69,0,0,1,0,3.37Z"/><path class="cls-1" d="M39.35,4.64a4.78,4.78,0,0,0-3.23,1.17h0V4.92H32V21.47h4.23V16.6h0a5.75,5.75,0,0,0,3.09,1c3.23,0,5.79-3,5.79-6.64s-2.52-6.28-5.79-6.28Zm-.89,8.8a2.34,2.34,0,0,1-2.34-2.34,2.3,2.3,0,0,1,2.31-2.27,2.37,2.37,0,0,1,2.38,2.34,2.33,2.33,0,0,1-2.34,2.27Z"/><polygon class="cls-1" points="86.45 10.82 84.43 5.1 79.85 5.1 84.32 16.85 82.8 22.22 87.16 22.22 92.31 5.1 88.09 5.1 86.45 10.82 86.45 10.82 86.45 10.82"/><polygon class="cls-1" points="110.78 10.38 109.21 5.09 105.95 5.09 104.56 10.38 103.39 5.09 99.02 5.09 101.83 17.3 106.12 17.3 107.51 12.37 108.79 17.3 113.22 17.3 116.06 5.09 111.73 5.09 110.78 10.38 110.78 10.38 110.78 10.38"/><polygon class="cls-1" points="45.72 3.3 49.84 3.3 49.84 0 45.72 0 45.72 3.3 45.72 3.3 45.72 3.3"/><polygon class="cls-1" points="45.72 17.3 49.84 17.3 49.84 4.91 45.72 4.91 45.72 17.3 45.72 17.3 45.72 17.3"/><polygon class="cls-1" points="75.08 17.29 79.2 17.29 79.2 0.04 75.08 0.04 75.08 17.29 75.08 17.29 75.08 17.29"/><polygon class="cls-1" points="159.37 5.1 157.74 10.82 155.71 5.1 151.13 5.1 155.61 16.85 154.08 22.22 158.45 22.22 163.6 5.1 159.37 5.1 159.37 5.1 159.37 5.1"/></g></g></svg>