<svg xmlns="http://www.w3.org/2000/svg" viewBox="0 0 171.97 53.72"><defs><style>.cls-1{fill:#231f20;fill-rule:evenodd;}.cls-2{fill:none;}</style></defs><title>Asset 106</title><g id="Layer_2" data-name="Layer 2"><g id="Layer_1-2" data-name="Layer 1"><path class="cls-1" d="M41,23.65a6.34,6.34,0,0,0,1.44-4,8.78,8.78,0,0,0-.12-1.33,8.62,8.62,0,0,0-1-.09,6.32,6.32,0,0,0-3.46,1,7.61,7.61,0,0,0-4.73-2,3.76,3.76,0,0,0-2.37.78c-2.71-1.47-4.82-3.61-5.16-3.61s0,.81-1.62.81-2.25.38-2.48,2c-.2,1.38-.2,1.38-.4,1.47-.87.43-1,.49-1,1,0,1,1,2,2,4.73a19,19,0,0,0-2.65,1c.58,3.17,1.53,5.08,4.18,6.55a3.92,3.92,0,0,0,1.88,2.74c.92,2.74,2.83,3.92,4.41,3.92a3.15,3.15,0,0,0,1.33-.29,5.16,5.16,0,0,0,6.87-2,5.16,5.16,0,0,0,3-4.62,3.58,3.58,0,0,0-.52-1.85,4.89,4.89,0,0,0,.84-2.74A16.44,16.44,0,0,0,41,23.65ZM23.82,15.9l.55-.06h0c.49,0,.52,0,.63.58h0l.29,1.67h0c0,.14,0,.2-.12.2s-.2-.09-.49-.46h0l-1-1.27h0a1.25,1.25,0,0,1-.26-.43c0-.09.06-.17.4-.23ZM22.28,17.7c0-.49.12-.75.4-.75.12,0,.17,0,.4.29h0l1.47,1.56h0c.2.2.32.35.32.43s-.35.29-.72.29c-1.93,0-1.93-.23-1.93-.81h0l.06-1Zm-1.06,2.4a.23.23,0,0,1,.26-.26,8.27,8.27,0,0,0,2.68.43c2.28.23,2,.87,2.51.87.09,0,.14-.09.14-.26s-1.07-3.26-1.07-4.73c0-.35.06-.49.2-.49.35,0,.72.81,3.09,2.25.66.35.89.49.89.81a19.54,19.54,0,0,1-1.1,2.11c-.43,1-.69,2-.87,2.19s-4.53,1.21-4.59,1.21c-.26,0-.38-.2-.63-.89s-.32-.87-.43-1.13a12.53,12.53,0,0,1-1.1-2.11Zm19.39,6.56A6.83,6.83,0,0,1,40,29.2c-.69,0-.89,0-.89.23,0,.4,1.21.43,1.21,2.08s-1.07,3.58-2.54,3.81a4.28,4.28,0,0,1-4.15,2.74,5.47,5.47,0,0,1-2.74-.78,1.25,1.25,0,0,1-1.13.52c-1.3,0-2.8-1.44-3.58-3.78a4.11,4.11,0,0,1-1.9-2.88A6.25,6.25,0,0,1,20.65,26,6.21,6.21,0,0,1,23,25.36c1.5,0,2.51,1.41,2.86,1.41a.26.26,0,0,0,.26-.26c0-.4-.87-1.13-1.5-1.53A4,4,0,0,1,27,24.32a6.43,6.43,0,0,0-.35,1.21c0,.17.09.29.2.29.58,0,.38-1.93,1.82-1.93.66,0,1.18.75,1.47.75a.25.25,0,0,0,.23-.26c0-.2,0-.2-1.3-1.21,1-4.15,2.6-5.11,4-5.11A6.75,6.75,0,0,1,38,20.46a4.72,4.72,0,0,1,3.66-1.27c-.09,2.22-.46,3-1.56,4.24a15.86,15.86,0,0,1,.55,3.23Z"/><path class="cls-1" d="M34.86,21.41c.26,0,1.67.49,1.67,1.33,0,.09,0,.14-.14.14-.32,0-.75-1-1.56-1-1,0-1.24,1.56-1.59,1.56-.09,0-.14-.09-.14-.23a1.93,1.93,0,0,1,1.76-1.85Z"/><path class="cls-1" d="M40.51,19.58c.2,0,.35.09.35.26S38.84,21,38.78,21a.2.2,0,0,1-.23-.2,2.64,2.64,0,0,1,2-1.21Z"/><path class="cls-1" d="M25.43,27.69a.13.13,0,0,1-.12.14c-.2,0-1.27-1.27-2.83-1.27l-.66,0c-.17,0-.38-.14-.38-.29s.38-.32.78-.32c1,0,3.2.75,3.2,1.7Z"/><path class="cls-1" d="M33.07,35.15c.46.81,1,1.47,1.67,1.47s1.1-1,1.18-2.42h0l-.46.12h0c-.72.17-.72.52-.72,1.21A2,2,0,0,0,33.56,35a1.19,1.19,0,0,0-.49.12Z"/><path class="cls-1" d="M36.66,31.53c-.14,0-.35.17-.35.52s.14.52.32.52S37,32.39,37,32s-.14-.49-.32-.49Z"/><path class="cls-1" d="M34.92,32.31a.26.26,0,0,0-.26.26.8.8,0,0,0,.63.66.29.29,0,0,0,.29-.29.8.8,0,0,0-.66-.63Z"/><path class="cls-1" d="M36.2,30.13l.4-.26h0a3.9,3.9,0,0,0-.72-2.42h0l-.29.66h0c-.23-.49-.52-.72-.69-.72-.38,0-.63.72-.63,1.44a3.86,3.86,0,0,0,.29,1.5,2,2,0,0,0-.69,1.59,3.75,3.75,0,0,0,.66,2.22h0l-.4.14h0a4.18,4.18,0,0,1-.66-2.22,2,2,0,0,1,.89-1.82,3.56,3.56,0,0,1-.89-2.63c0-1.62.84-2.37,1.5-2.37,1.53,0,2.28,2.48,2.28,4.7h0l.38,0h0c0-.35,0-.55,0-.63,0-2.37-1.18-4.5-2.68-4.5-1.1,0-1.93,1-1.93,2.77a5.61,5.61,0,0,0,.69,2.65,1.68,1.68,0,0,1-.58.12c-.38,0-.72-.09-.89-.09s-.35.09-.35.2.69.09.69.32-.32.35-.32.49a.14.14,0,0,0,.14.14c.06,0,.06,0,.49-.38h0l.2,0h0a2.39,2.39,0,0,0-.14.81,6.28,6.28,0,0,0,.66,2.57,3.14,3.14,0,0,1-1.07.14,1.47,1.47,0,0,1-.63-.12c-.38-1.56-.61-2-1.47-2.74h0l.52-.17h0c0-1.36-.29-2.11-.89-2.48h0l-.35.78h0c-.26-.61-.26-.69-.43-.69-.4,0-.66.78-.66,1.24a3.18,3.18,0,0,0,.17.92h0l-.69.4h0a7.64,7.64,0,0,1-.49-2.51c0-1.24.4-2,1.41-2,1.33,0,2.19,1.88,2.45,4.07h0l.23-.09h0c0-2.6-1.3-4.47-2.8-4.47-1.15,0-1.73,1-1.73,2.6A6.85,6.85,0,0,0,27.78,32c-.78.89-.84,1.15-.84,1.21a.19.19,0,0,0,.2.17c.26,0,1-1.56,2.22-1.56,2,0,2.25,3.61,2.31,3.61s.29-.17.46-.38c1.1.52,1.21,1.93,2.42,1.93,1,0,1.62-.58,1.9-3.09h0L38,32.62h0a3.37,3.37,0,0,0-1.76-2.48ZM35.1,33.95c-.26,0-.84-.75-.84-2,0-.87.46-1.59,1.33-1.59a2.53,2.53,0,0,1,1.82,2c0,.75-2,1.59-2.31,1.59Z"/><polygon class="cls-1" points="151.95 36.13 151.95 33.99 45.79 33.99 45.79 36.13 151.95 36.13 151.95 36.13 151.95 36.13"/><polygon class="cls-1" points="151.95 39.62 151.95 37.48 45.79 37.48 45.79 39.62 151.95 39.62 151.95 39.62 151.95 39.62"/><path class="cls-1" d="M43.55,16.23a1.07,1.07,0,1,0,1.1,1.06,1.09,1.09,0,0,0-1.1-1.06Zm0,1.93a.86.86,0,1,1,.89-.87.87.87,0,0,1-.89.87Z"/><path class="cls-1" d="M44.12,17a.29.29,0,0,0-.14-.26.61.61,0,0,0-.3-.06h-.54v1.2h.18v-.55h.22l.35.55h.21l-.37-.55h0c.22,0,.39-.09.39-.33Zm-.59.18h-.2v-.36h.32c.15,0,.29,0,.29.18s-.24.18-.41.18Z"/><polygon class="cls-1" points="138.52 28.15 141.86 28.15 141.86 14.13 138.52 14.13 138.52 28.15 138.52 28.15 138.52 28.15"/><path class="cls-1" d="M137.85,23.1a4.3,4.3,0,0,0-1.1-2.91h0l.89-1.62h-2c-1,0-1.36-.14-2.31-.14a4.73,4.73,0,0,0-5,4.85,4.49,4.49,0,0,0,4.7,4.53,5,5,0,0,0,1.24-.14,1,1,0,0,1,.14.52c0,.69-.49,1.13-1.47,1.13a4.43,4.43,0,0,1-2.83-1.18h0l-1.73,2.54h0a7.13,7.13,0,0,0,4.53,1.7c2.83,0,4.85-1.59,4.85-3.92a4.67,4.67,0,0,0-1-2.71,3.71,3.71,0,0,0,1-2.63Zm-4.73,1.43a1.34,1.34,0,0,1-1.36-1.36,1.38,1.38,0,0,1,1.36-1.38,1.37,1.37,0,0,1,0,2.74Z"/><path class="cls-1" d="M128.05,23.1a4.3,4.3,0,0,0-1.1-2.91h0l.89-1.62h-2c-1,0-1.36-.14-2.31-.14a4.73,4.73,0,0,0-5,4.85,4.49,4.49,0,0,0,4.7,4.53,5,5,0,0,0,1.24-.14,1,1,0,0,1,.14.52c0,.69-.49,1.13-1.47,1.13a4.43,4.43,0,0,1-2.83-1.18h0l-1.73,2.54h0a7.13,7.13,0,0,0,4.53,1.7c2.83,0,4.85-1.59,4.85-3.92a4.67,4.67,0,0,0-1-2.71,3.71,3.71,0,0,0,1-2.63Zm-4.73,1.43A1.34,1.34,0,0,1,122,23.17a1.38,1.38,0,0,1,1.36-1.38,1.37,1.37,0,0,1,0,2.74Z"/><path class="cls-1" d="M79.63,23.1a4.31,4.31,0,0,0-1.1-2.91h0l.89-1.62h-2c-1,0-1.36-.14-2.31-.14a4.73,4.73,0,0,0-5,4.85,4.49,4.49,0,0,0,4.7,4.53,5,5,0,0,0,1.24-.14,1,1,0,0,1,.14.52c0,.69-.49,1.13-1.47,1.13A4.43,4.43,0,0,1,72,28.12h0l-1.73,2.54h0a7.13,7.13,0,0,0,4.53,1.7c2.83,0,4.85-1.59,4.85-3.92a4.67,4.67,0,0,0-1-2.71,3.71,3.71,0,0,0,1-2.63ZM74.9,24.53a1.34,1.34,0,0,1-1.36-1.36,1.38,1.38,0,0,1,1.36-1.38,1.37,1.37,0,0,1,0,2.74Z"/><polygon class="cls-1" points="114.69 16.79 118.04 16.79 118.04 14.1 114.69 14.1 114.69 16.79 114.69 16.79 114.69 16.79"/><polygon class="cls-1" points="114.69 28.16 118.04 28.16 118.04 18.09 114.69 18.09 114.69 28.16 114.69 28.16 114.69 28.16"/><path class="cls-1" d="M69.83,23.1a4.3,4.3,0,0,0-1.1-2.91h0l.89-1.62h-2c-1,0-1.36-.14-2.31-.14a4.73,4.73,0,0,0-5,4.85,4.49,4.49,0,0,0,4.7,4.53,5,5,0,0,0,1.24-.14,1,1,0,0,1,.14.52c0,.69-.49,1.13-1.47,1.13a4.43,4.43,0,0,1-2.83-1.18h0l-1.73,2.54h0A7.13,7.13,0,0,0,65,32.36c2.83,0,4.85-1.59,4.85-3.92a4.67,4.67,0,0,0-1-2.71,3.7,3.7,0,0,0,1-2.63ZM65.1,24.53a1.34,1.34,0,0,1-1.36-1.36,1.38,1.38,0,0,1,1.36-1.38,1.37,1.37,0,0,1,0,2.74Z"/><path class="cls-1" d="M51.5,17.87a3.88,3.88,0,0,0-2.63,1h0V18.1H45.55V31.55H49v-4h0a4.67,4.67,0,0,0,2.51.78c2.63,0,4.7-2.45,4.7-5.4a4.81,4.81,0,0,0-4.7-5.11ZM50.78,25a1.9,1.9,0,0,1-1.9-1.9,1.87,1.87,0,0,1,1.88-1.85,1.93,1.93,0,0,1,1.93,1.9A1.89,1.89,0,0,1,50.78,25Z"/><polygon class="cls-1" points="89.77 22.89 88.12 18.25 84.4 18.25 88.04 27.8 86.8 32.16 90.34 32.16 94.53 18.25 91.09 18.25 89.77 22.89 89.77 22.89 89.77 22.89"/><polygon class="cls-1" points="109.53 22.54 108.26 18.24 105.61 18.24 104.48 22.54 103.53 18.24 99.98 18.24 102.26 28.16 105.75 28.16 106.88 24.15 107.91 28.16 111.52 28.16 113.83 18.24 110.31 18.24 109.53 22.54 109.53 22.54 109.53 22.54"/><polygon class="cls-1" points="56.67 16.79 60.02 16.79 60.02 14.1 56.67 14.1 56.67 16.79 56.67 16.79 56.67 16.79"/><polygon class="cls-1" points="56.67 28.16 60.02 28.16 60.02 18.09 56.67 18.09 56.67 28.16 56.67 28.16 56.67 28.16"/><polygon class="cls-1" points="80.53 28.15 83.88 28.15 83.88 14.13 80.53 14.13 80.53 28.15 80.53 28.15 80.53 28.15"/><polygon class="cls-1" points="149.01 18.25 147.69 22.89 146.04 18.25 142.32 18.25 145.96 27.8 144.72 32.16 148.26 32.16 152.45 18.25 149.01 18.25 149.01 18.25 149.01 18.25"/><rect class="cls-2" width="171.97" height="53.72"/></g></g></svg>