<svg xmlns="http://www.w3.org/2000/svg" xmlns:xlink="http://www.w3.org/1999/xlink" viewBox="0 0 171.97 53.72"><defs><style>.cls-1{fill:none;}.cls-2{clip-path:url(#clip-path);}.cls-3{fill:#005f32;}.cls-4{fill:#9acb66;}.cls-5{fill:#fff;}</style><clipPath id="clip-path"><rect class="cls-1" x="64.98" width="42" height="54"/></clipPath></defs><title>Asset 102</title><g id="Layer_2" data-name="Layer 2"><g id="Layer_1-2" data-name="Layer 1"><g class="cls-2"><rect class="cls-3" x="94.31" y="41.73" width="1.23" height="6.84"/><rect class="cls-3" x="96.33" y="43.49" width="1.24" height="5.08"/><circle class="cls-3" cx="97.01" cy="42.29" r="0.91"/><polygon class="cls-3" points="97.86 43.5 99.2 43.5 102.25 48.59 100.97 48.59 97.86 43.5"/><path class="cls-3" d="M100.65,43.5l-2.57,5.09h1.28c.05,0,2.62-5.09,2.62-5.09Z"/><path class="cls-4" d="M77.81,31.64A12.24,12.24,0,0,0,85,34a11.46,11.46,0,0,0,11.41-11.7A11.46,11.46,0,0,0,85,10.65,11.6,11.6,0,0,0,73.37,22.46l0,26.11-6.28,0V4.06h35.14V40.43H77.79Z"/><path class="cls-3" d="M84.92,29.55a7,7,0,0,0,6.91-7.19,7,7,0,0,0-6.91-7.19,7.19,7.19,0,0,0,0,14.38Z"/><path class="cls-3" d="M83.52,46.37V43.49h1.17c0,.94,0,2,0,2.9a1.13,1.13,0,0,0,1.1,1.14,1.07,1.07,0,0,0,1.1-1.07v-3h1.19c0,1.5,0,1.8,0,2.93a2.28,2.28,0,1,1-4.55,0"/><path class="cls-3" d="M89.68,43.86V41.73H88.45V46a2.78,2.78,0,0,0,2.71,2.78,2.69,2.69,0,1,0,0-5.39A2.63,2.63,0,0,0,89.68,43.86Z"/><circle class="cls-5" cx="91.15" cy="46.06" r="1.42"/><path class="cls-3" d="M77.89,44.17v4.4h1.23V46.51a2.7,2.7,0,1,0,1.45-5A2.65,2.65,0,0,0,77.89,44.17Z"/><circle class="cls-5" cx="80.58" cy="44.23" r="1.42"/><path class="cls-3" d="M103.62,47.55v-.39h.26c.13,0,.27,0,.27.18s-.14.2-.3.2Zm0,.16h.22l.33.54h.21L104,47.7a.32.32,0,0,0,.32-.34c0-.25-.14-.35-.44-.35h-.47v1.24h.19Zm.23,1a1.08,1.08,0,1,0-1.1-1.08A1.08,1.08,0,0,0,103.85,48.71ZM103,47.63a.88.88,0,1,1,.88.9A.88.88,0,0,1,103,47.63Z"/></g><rect class="cls-1" width="171.97" height="53.72"/></g></g></svg>