<svg xmlns="http://www.w3.org/2000/svg" xmlns:xlink="http://www.w3.org/1999/xlink" viewBox="0 0 171.97 53.72"><defs><style>.cls-1{fill:none;}.cls-2{fill:#cf0a2c;}.cls-3{clip-path:url(#clip-path);}.cls-4{fill:#003da6;}</style><clipPath id="clip-path"><rect class="cls-1" x="44.31" y="6.64" width="83.36" height="40.45"/></clipPath></defs><title>Asset 110</title><g id="Layer_2" data-name="Layer 2"><g id="Layer_1-2" data-name="Layer 1"><path class="cls-2" d="M107.73,19h3.53s.25-2.83-1.84-2.83S107.73,19,107.73,19Zm0,3A1.91,1.91,0,0,0,109,23.76c1.53.78,4.62.75,8-.89l1.34,3.28S102.86,32.3,101,21.27c0,0-1.34-8.4,8.15-8.4s8,9.09,8,9.09Z"/><g class="cls-3"><polygon class="cls-2" points="84.08 13.18 88.3 27.68 97.2 27.68 101.47 13.22 94.71 13.22 92.92 22.47 91.08 13.22 84.08 13.18"/><path class="cls-2" d="M66.24,13.67V8.6S51.14,5.52,50,13.67c0,0-1.19,4.27,3.7,5.79,4.12,1.28,4.7,1.17,4.7,1.17S60.08,21,60.16,22s-2.21,1.19-2.73,1.19-1.79.45-7.13-1.24v5s16.35,4.22,17.19-5.27c0,0,.75-5.32-7.1-6.26,0,0-2.93-.25-2.93-1.69s5-1.59,8.79,0Z"/></g><path class="cls-2" d="M78.09,21.25s-4.58-.52-3.69,2,4.21.11,3.69-2Zm6.33-3.39v9.69H77.94V25.39c-.89,3.09-10,4-9.88-2.16s10.06-4.77,10.06-4.77,0-1.83-3.28-1.94a8.81,8.81,0,0,0-5.18,1.27V13.65c14.91-3.2,14.76,4.21,14.76,4.21Z"/><path class="cls-4" d="M117.15,26.69s-1.79,5.37-.94,7.35,4.55-1.69,4.55-1.69,1.24-1,1,1c0,0-3,3.55-5.74,3s-2.14-4.7-1.74-6.06,1-3.75,1-3.75l-1.59,0s-.77-1.27.84-1.94h1.09s1.54-5,2.88-4.79,1.24,1.17.62,2.11a21,21,0,0,0-1.32,2.56,21.76,21.76,0,0,0,2.73-.67c.94-.35,1.71.22,1.49.89s-.2,1.14-1.29,1.09a10.65,10.65,0,0,0-3.58.94Z"/><path class="cls-4" d="M87.26,32.9c1.21-.36,4.18-4.43,2.78-4.92s-3.88,2.73-3.88,2.73c-1.08,1.59-.1,2.54,1.09,2.19ZM91.58,31s.89,2.5,3.61.22c0,0,.82-.34.76,1,0,0-1.83,3-4.86,1.43a2.55,2.55,0,0,1-1-1s-2.52,3.58-5.46,1.45S86,27.85,86,27.85s2.48-2.74,4.9-1.64a2.08,2.08,0,0,1,.93,2.27,9.13,9.13,0,0,0-.28,1.88A2.59,2.59,0,0,0,91.58,31Z"/><path class="cls-4" d="M98.36,26.73s0-2.09,1.38-2.12a1.62,1.62,0,0,1,1.6,1.38,4.91,4.91,0,0,1-.26,1.15c-.22.63-2.24,6.74-2.24,6.74s-.61,2.35.15,2.83,1.12.67,3.17-.63,1.68-1.3,2.27-1.12S104.1,36,104.1,36,101.35,38.73,100,39s-3.35.19-3.43-2.83c0,0,1.6-8.35,1.75-9.43Z"/><path class="cls-4" d="M106.77,33c.11.56.89,1.34,2.27.3a7.71,7.71,0,0,0,2.2-3.35c.07-.26.56-1.58-.63-1.23a8.13,8.13,0,0,0-3,2.38,2.93,2.93,0,0,0-.82,1.9ZM106,29.77s2.58-3.35,4.7-3.18,2.56,2.14,2.14,3.7-2.26,5.86-6.21,5.32c0,0-4.07-.89-.62-5.84Z"/><path class="cls-4" d="M120.86,21.67h.25a.19.19,0,0,0,.12,0,.12.12,0,0,0,0-.1.13.13,0,0,0,0-.1.18.18,0,0,0-.12,0h-.26v.27Zm-.21-.45h.52a.35.35,0,0,1,.24.08.26.26,0,0,1,.09.21.24.24,0,0,1-.1.22l-.06,0,0,0a.2.2,0,0,1,.09.18v.17a.22.22,0,0,0,0,.07l0,0v0h-.24a.22.22,0,0,1,0-.07.88.88,0,0,1,0-.11V22a.12.12,0,0,0,0-.1.22.22,0,0,0-.13,0h-.21v.41h-.21v-1Z"/><path class="cls-4" d="M121,20.93a.82.82,0,1,0,.82.82.82.82,0,0,0-.82-.82Zm0,1.81a1,1,0,1,1,1-1,1,1,0,0,1-1,1Z"/><path class="cls-4" d="M65.47,42.46h-.84v-1h.86v-.25c0-1.23.58-1.66,1.72-1.66a3.91,3.91,0,0,1,.73.08l-.09,1a1.31,1.31,0,0,0-.45-.06c-.36,0-.51.25-.51.66v.25h1v1h-1v3.13H65.47V42.46Z"/><path class="cls-4" d="M71.26,43.53c0-.62-.27-1.17-.93-1.17s-.93.55-.93,1.17.27,1.16.93,1.16.93-.55.93-1.16Zm-3.33,0a2.42,2.42,0,1,1,2.4,2.16,2.17,2.17,0,0,1-2.4-2.16Z"/><path class="cls-4" d="M76.19,43.53c0-.62-.27-1.17-.93-1.17s-.93.55-.93,1.17.27,1.16.93,1.16.93-.55.93-1.16Zm-3.33,0a2.42,2.42,0,1,1,2.4,2.16,2.17,2.17,0,0,1-2.4-2.16Z"/><path class="cls-4" d="M80.14,44.59A1,1,0,0,0,81,43.54c0-.63-.35-1.08-.87-1.08a.91.91,0,0,0-.86,1c0,.66.33,1.11.86,1.11Zm2.3,1H81.12v-.74h0a1.53,1.53,0,0,1-1.42.83c-1.23,0-1.89-1-1.89-2.24a1.92,1.92,0,0,1,1.77-2.09A1.64,1.64,0,0,1,81,42h0V39.64h1.44v5.95Z"/><path class="cls-4" d="M84.91,44.45a3.53,3.53,0,0,0,1.34.29c.29,0,.58,0,.58-.33,0-.7-2-.21-2-1.7,0-1,.94-1.34,1.76-1.34A3.93,3.93,0,0,1,88,41.6l-.11,1a2.32,2.32,0,0,0-1.11-.28c-.31,0-.66.06-.66.29,0,.64,2.13.13,2.13,1.71,0,1.1-1,1.38-1.93,1.38a4.67,4.67,0,0,1-1.5-.2l.08-1Z"/><path class="cls-4" d="M88.23,41.46h.84v-.93l1.4-.44v1.36h1v1h-1V44c0,.5.12.75.57.75a2.72,2.72,0,0,0,.44-.06l0,.93a6.83,6.83,0,0,1-.9.08c-1.28,0-1.59-.56-1.59-1.55V42.46h-.82v-1Z"/><path class="cls-4" d="M94.88,43.53c0-.62-.27-1.17-.93-1.17s-.93.55-.93,1.17.27,1.16.93,1.16.93-.55.93-1.16Zm-3.33,0A2.42,2.42,0,1,1,94,45.69a2.17,2.17,0,0,1-2.4-2.16Z"/><path class="cls-4" d="M99.63,42.6a1.63,1.63,0,0,0-.48,0c-.67,0-1,.48-1,1.29v1.74H96.68V41.46H98v.76h0a1.27,1.27,0,0,1,1.22-.86,3,3,0,0,1,.48,0l-.07,1.19Z"/><path class="cls-4" d="M102.51,43.13a.76.76,0,0,0-.79-.86c-.52,0-.76.39-.79.86Zm-1.57.81c.08.57.52.79,1.21.79a2.67,2.67,0,0,0,1.26-.32v1a4.14,4.14,0,0,1-1.51.26,2.17,2.17,0,0,1-2.4-2.17,2.05,2.05,0,0,1,2.21-2.16c1.53,0,2.09,1.09,2.09,2.32v.26Z"/><path class="cls-4" d="M104.09,44.45a3.53,3.53,0,0,0,1.34.29c.29,0,.58,0,.58-.33,0-.7-2-.21-2-1.7,0-1,.94-1.34,1.76-1.34a3.94,3.94,0,0,1,1.45.24l-.11,1a2.32,2.32,0,0,0-1.11-.28c-.31,0-.66.06-.66.29,0,.64,2.13.13,2.13,1.71,0,1.1-1,1.38-1.93,1.38a4.67,4.67,0,0,1-1.5-.2l.08-1Z"/><rect class="cls-1" width="171.97" height="53.72"/></g></g></svg>