<svg xmlns="http://www.w3.org/2000/svg" viewBox="0 0 171.97 53.72"><defs><style>.cls-1{fill:#00539e;}.cls-1,.cls-2{fill-rule:evenodd;}.cls-2{fill:#ec1b2e;}.cls-3{fill:none;}</style></defs><title>Asset 99</title><g id="Layer_2" data-name="Layer 2"><g id="Layer_1-2" data-name="Layer 1"><path class="cls-1" d="M44.77,34.5H55.41c.12,0,.12.06,0,.12a14.88,14.88,0,0,0-2.93,2.3,5.15,5.15,0,0,1-4.17,1.93H38.1c-.06,0-.06-.12,0-.12a17,17,0,0,0,2.8-2.37,5.32,5.32,0,0,1,3.86-1.87Z"/><path class="cls-1" d="M114.74,34.5h10.71c.06,0,.06.06,0,.12a13.08,13.08,0,0,0-2.93,2.3,5.33,5.33,0,0,1-4.17,1.93H108.14c-.06,0-.06-.12,0-.12a17,17,0,0,0,2.8-2.37,5.18,5.18,0,0,1,3.8-1.87Z"/><path class="cls-1" d="M62.26,34.5H72.9c.12,0,.12.06,0,.12A14.88,14.88,0,0,0,70,36.93a5.15,5.15,0,0,1-4.17,1.93H55.66c-.12,0-.12-.12-.06-.12a17,17,0,0,0,2.8-2.37,5.32,5.32,0,0,1,3.86-1.87Z"/><path class="cls-1" d="M79.75,34.5H90.4c.12,0,.12.06,0,.12a14.88,14.88,0,0,0-2.93,2.3,5.11,5.11,0,0,1-4.11,1.93H73.15c-.06,0-.06-.12-.06-.12a14.54,14.54,0,0,0,2.8-2.37,5.32,5.32,0,0,1,3.86-1.87Z"/><path class="cls-1" d="M97.24,34.5H108c.06,0,.06.06-.06.12a14.88,14.88,0,0,0-2.93,2.3,5.11,5.11,0,0,1-4.11,1.93H90.64c-.06,0-.06-.12,0-.12a17,17,0,0,0,2.8-2.37,5.06,5.06,0,0,1,3.8-1.87Z"/><path class="cls-2" d="M100.17,13.71C93.45,13.71,89,17.2,89,22.49c0,4.86,4.11,8.09,10.21,8.09a21,21,0,0,0,5.79-.81v-4a6.43,6.43,0,0,1-5,2.24c-3.61,0-6.1-2.37-6.1-5.85A5.82,5.82,0,0,1,100,16.2a6.3,6.3,0,0,1,4.73,2.05V14.15a25,25,0,0,0-4.54-.44Z"/><path class="cls-2" d="M50,16.58c2.49,0,5.48.5,6.72,1.56V14.27H39v3.86c1.24-1.06,3.92-1.49,6.79-1.49V27.22c0,1.56-.12,2-.75,2.8h5.66c-.62-.81-.75-1.25-.75-2.8V16.58Z"/><path class="cls-2" d="M68,20.37a13.44,13.44,0,0,1-3.8.44H62.76V16.64h2c1.81,0,4.86.37,6,1.43v-3.8H57.9c.62.75.75,1.25.75,2.74V27.22A3.89,3.89,0,0,1,58,30h13.7V26.16c-1.87,1.43-5.48,1.43-6.91,1.43h-2V23.17h1.43a14,14,0,0,1,3.86.5v-3.3Z"/><path class="cls-2" d="M87.16,14.77a23.36,23.36,0,0,0-6.79-1.06c-3.74,0-7.35,1.18-7.35,5.17,0,6.85,11.21,3.24,11.21,7.47,0,1.37-2,1.93-3.61,1.93a12.05,12.05,0,0,1-7.35-2.12v3.49a23.62,23.62,0,0,0,7.16,1c3.86,0,7.47-1.12,7.47-5.17,0-7.22-11.14-4-11.14-7.47,0-1.43,1.81-1.93,3.36-1.93,2.61,0,5.48.81,7,2.37V14.77Z"/><path class="cls-2" d="M115.92,14c-6,0-10.33,3.49-10.33,8.4s3.86,8,9.52,8c6.1,0,10.33-3.36,10.33-8.34S121.58,14,115.92,14ZM115.48,28c-3.24,0-5.29-2.61-5.29-5.85s2.05-5.85,5.29-5.85,5.29,2.61,5.29,5.85S118.66,28,115.48,28Z"/><rect class="cls-3" width="171.97" height="53.72"/></g></g></svg>