<svg xmlns="http://www.w3.org/2000/svg" viewBox="0 0 171.97 53.72"><defs><style>.cls-1{fill:#7bb042;}.cls-2{fill:none;}</style></defs><title>Asset 100</title><g id="Layer_2" data-name="Layer 2"><g id="Layer_1-2" data-name="Layer 1"><g id="layer1"><path id="path227" class="cls-1" d="M49.68,39.71,44,26.06,38.32,39.71,29.89,19.24h3.42l5.07,13.2L44,18.65l5.6,13.8,5.09-13.2h3.42L49.68,39.71"/><path id="path231" class="cls-1" d="M68.67,31.92c0,2.93-1.59,4.87-4.7,4.87-2.26,0-4.4-1.67-4.4-4.83s2.14-4.82,4.4-4.82C67.08,27.13,68.67,29,68.67,31.92Zm3.05,7.3V24.69H68.67v1.9A5.68,5.68,0,0,0,64,24.41a7.53,7.53,0,1,0,0,15.05,5.89,5.89,0,0,0,4.7-2.22v2h3.05"/><path id="path235" class="cls-1" d="M76,21.24a1.73,1.73,0,0,1-1.76-1.74,1.75,1.75,0,1,1,3.49,0A1.72,1.72,0,0,1,76,21.24Zm-1.54,3.46h3.05V39.22H74.49Z"/><path id="path239" class="cls-1" d="M85.29,27.34V39.22H82.24V27.34H79.41V24.69h2.83V19.46l3.05-3v8.25h3.25v2.65H85.29"/><path id="path243" class="cls-1" d="M98.51,27.65a3.39,3.39,0,0,0-1.9-.52c-1.78,0-3.14,1.11-3.14,3.53v8.56H90.41V24.69h3.05v2a3.94,3.94,0,0,1,3.64-2.31,5.17,5.17,0,0,1,3.44,1.24l-2,2"/><path id="path247" class="cls-1" d="M112.22,31.92c0,2.79-1.72,4.87-4.57,4.87s-4.55-2.07-4.55-4.87,1.68-4.79,4.55-4.79S112.22,29.13,112.22,31.92Zm3.12,0a7.68,7.68,0,1,0-7.69,7.58,7.46,7.46,0,0,0,7.69-7.58"/><path id="path251" class="cls-1" d="M121.81,39.5a10,10,0,0,1-4.94-1.39V35a9.88,9.88,0,0,0,4.84,1.88c1.18,0,2.16-.27,2.16-1.35,0-.74-.26-1.22-1.78-2.07L119.46,32c-1.66-1-2.53-2-2.53-3.55,0-2.35,1.76-4,4.92-4a9.54,9.54,0,0,1,4.44,1.13v3A8.84,8.84,0,0,0,121.85,27c-1.16,0-1.87.44-1.87,1.24,0,.48.06.76,1.29,1.5l2.53,1.46c2,1.16,3.14,2.14,3.14,4,0,2.74-2.15,4.26-5.14,4.26"/><path id="path255" class="cls-1" d="M138.7,30.22h-7a3.84,3.84,0,0,1,3.72-3.14A3.16,3.16,0,0,1,138.7,30.22Zm3.38,2.49v-.22c0-5.42-2.72-8.08-6.68-8.08a7,7,0,0,0-7,7.32c0,5.14,3.55,7.77,7.51,7.77a7.55,7.55,0,0,0,5.4-1.92l-1.94-1.91a5.36,5.36,0,0,1-3.46,1.11,4.32,4.32,0,0,1-4.35-4.07h10.56"/></g><rect class="cls-2" width="171.97" height="53.72"/></g></g></svg>