<svg xmlns="http://www.w3.org/2000/svg" viewBox="0 0 171.97 53.72"><defs><style>.cls-1,.cls-3{fill:#007dc2;}.cls-1,.cls-2{fill-rule:evenodd;}.cls-2{fill:#fcba30;}.cls-4{fill:none;}</style></defs><title>Asset 104</title><g id="Layer_2" data-name="Layer 2"><g id="Layer_1-2" data-name="Layer 1"><path class="cls-1" d="M92.94,27.63a2.43,2.43,0,0,1-.09.68,2.39,2.39,0,0,1-2.3,1.61,1.56,1.56,0,0,1-1.7-1.67c0-1.73,1.91-2.21,4.09-2.2v1.58Zm3.41-3c0-2.86-1.22-5.38-5.35-5.38a9.77,9.77,0,0,0-4.72,1.13l.67,2.3a6.9,6.9,0,0,1,3.44-1c2.09,0,2.44,1.18,2.44,1.95v.18c-4.56,0-7.45,1.58-7.45,4.79a3.8,3.8,0,0,0,4,3.81,4.58,4.58,0,0,0,3.67-1.63h.08s.52,2.18,3.39,1.35a18.86,18.86,0,0,1-.2-3V24.61Z"/><path class="cls-1" d="M25.22,15.33s3,12.22,3.46,14.21c.55,2.32,1.56,3.17,4.44,2.6L35,24.56c.47-1.88.79-3.22,1.09-5.14h.05A50.62,50.62,0,0,0,37,24.56s.76,3.44,1.15,5.25,1.47,2.94,4.3,2.33l4.44-16.8H43.34L41.83,22.6c-.41,2.11-.78,3.77-1.06,5.7h-.05c-.26-1.91-.59-3.5-1-5.56l-1.58-7.4H34.4l-1.69,7.22c-.48,2.19-.93,4-1.21,5.83h-.05c-.29-1.76-.68-4-1.1-6.11,0,0-1-5.16-1.35-6.94Z"/><path class="cls-1" d="M53.7,27.63a2.36,2.36,0,0,1-.08.68,2.39,2.39,0,0,1-2.3,1.61,1.56,1.56,0,0,1-1.69-1.67c0-1.73,1.91-2.21,4.08-2.2v1.58Zm3.41-3c0-2.86-1.22-5.38-5.35-5.38A9.78,9.78,0,0,0,47,20.35l.67,2.3a6.88,6.88,0,0,1,3.44-1c2.09,0,2.44,1.18,2.44,1.95v.18c-4.57,0-7.45,1.58-7.45,4.79a3.8,3.8,0,0,0,4,3.81,4.58,4.58,0,0,0,3.67-1.63h.08s.52,2.18,3.4,1.35a18.34,18.34,0,0,1-.2-3V24.61Z"/><polygon class="cls-1" points="62.8 28.57 62.8 15.33 59.38 15.33 59.38 32.14 62.8 32.14 62.8 28.57 62.8 28.57"/><path class="cls-1" d="M107.44,15.33v12.4a5.19,5.19,0,0,0,1,3.64,3.77,3.77,0,0,0,2.77,1.05,8.12,8.12,0,0,0,2.47-.36l0-2.67a5.23,5.23,0,0,1-1.29.15c-1.16,0-1.55-.74-1.55-2.28V22.52h3V19.31h-3v-4Z"/><path class="cls-1" d="M98.63,19.51V32.14h3.52V25.67a5,5,0,0,1,.08-.93A2.66,2.66,0,0,1,105,22.52a6.5,6.5,0,0,1,1,.09v-3.3a3.27,3.27,0,0,0-.77-.08,3.71,3.71,0,0,0-3.43,2.67h-.1V19.51Z"/><path class="cls-1" d="M65.19,19.51V32.14h3.43v-7.4a2.93,2.93,0,0,1,.16-1,2.32,2.32,0,0,1,2.08-1.62c1.38,0,2,1.17,2,2.86v7.19h3.43V24.64a3.54,3.54,0,0,1,.14-1,2.17,2.17,0,0,1,2.06-1.54c1.4,0,2.07,1.15,2.07,3.14v6.92H84V24.7c0-3.92-2-5.47-4.24-5.47a4.57,4.57,0,0,0-2.49.68,5.3,5.3,0,0,0-1.6,1.57h-.05a3.6,3.6,0,0,0-3.48-2.26,4,4,0,0,0-3.68,2h-.05V19.51Z"/><path class="cls-2" d="M132.9,19.7a1.14,1.14,0,0,0,1.2-.74l.61-6.94c0-.68-.81-1.25-1.81-1.25s-1.81.56-1.81,1.25L131.7,19a1.14,1.14,0,0,0,1.2.74Z"/><path class="cls-2" d="M129.15,21.87a1.13,1.13,0,0,0,0-1.41l-5.7-4c-.59-.34-1.48.07-2,.95s-.42,1.85.17,2.19l6.31,2.94a1.15,1.15,0,0,0,1.24-.67Z"/><path class="cls-2" d="M136.65,21.86a1.15,1.15,0,0,0,1.24.67l6.32-2.94c.59-.34.68-1.32.17-2.19s-1.39-1.29-2-.95l-5.7,4a1.14,1.14,0,0,0,0,1.41Z"/><path class="cls-2" d="M132.9,28.36a1.14,1.14,0,0,1,1.2.74l.61,6.94c0,.68-.81,1.25-1.81,1.25s-1.81-.56-1.81-1.25l.61-6.94a1.14,1.14,0,0,1,1.2-.74Z"/><path class="cls-2" d="M136.65,26.2a1.14,1.14,0,0,1,1.24-.67l6.32,2.94c.59.34.68,1.32.17,2.2s-1.39,1.29-2,.95l-5.7-4a1.14,1.14,0,0,1,0-1.41Z"/><path class="cls-2" d="M129.15,26.2a1.14,1.14,0,0,1,0,1.41l-5.7,4c-.59.34-1.48-.07-2-.94s-.42-1.85.17-2.2l6.31-2.94a1.14,1.14,0,0,1,1.24.67Z"/><path class="cls-2" d="M144.79,32.74a.53.53,0,0,0,.26.07c.13,0,.2-.06.2-.15s-.06-.13-.19-.18-.29-.16-.29-.31.15-.31.38-.31a.56.56,0,0,1,.26.06l-.05.16a.44.44,0,0,0-.21-.05c-.13,0-.18.07-.18.13s.06.12.21.18.28.17.28.32-.13.32-.41.32a.65.65,0,0,1-.29-.07l0-.17Z"/><path class="cls-2" d="M146.54,32.52c0-.14,0-.31,0-.45h0c0,.13-.08.28-.13.41l-.16.47h-.15l-.14-.46c0-.14-.08-.28-.11-.42h0c0,.14,0,.31,0,.46l0,.43h-.18l.07-1.08h.26l.14.43c0,.13.07.25.1.37h0c0-.12.07-.25.11-.37l.15-.43h.26l.06,1.08h-.19l0-.44Z"/><path class="cls-3" d="M30.25,40.13l-.35,1.26H28.77l1.49-4.9h1.45l1.53,4.9H32l-.38-1.26Zm1.24-.83-.31-1c-.09-.29-.17-.65-.25-.94h0c-.07.29-.15.66-.23.94l-.29,1Z"/><path class="cls-3" d="M33.58,36.23h1.1v2h0a1.19,1.19,0,0,1,.44-.37,1.26,1.26,0,0,1,.57-.14c.7,0,1.24.49,1.24,1.56v2.07h-1.1v-2c0-.47-.16-.78-.57-.78a.58.58,0,0,0-.55.39.64.64,0,0,0,0,.24v2.11h-1.1Z"/><path class="cls-3" d="M41.13,39.57a1.78,1.78,0,0,1-1.87,1.9,1.74,1.74,0,0,1-1.84-1.83,1.78,1.78,0,0,1,1.9-1.89A1.73,1.73,0,0,1,41.13,39.57Zm-2.57,0c0,.61.25,1.07.73,1.07s.7-.43.7-1.08-.2-1.06-.7-1.06S38.56,39.09,38.56,39.61Z"/><path class="cls-3" d="M41.59,39c0-.52,0-.86,0-1.17h.94l0,.65h0a1,1,0,0,1,1-.74l.23,0v1a1.65,1.65,0,0,0-.3,0,.71.71,0,0,0-.76.56,1.31,1.31,0,0,0,0,.25v1.8h-1.1Z"/><path class="cls-3" d="M44.14,39c0-.52,0-.86,0-1.17h.94l0,.65h0a1,1,0,0,1,1-.74l.23,0v1a1.65,1.65,0,0,0-.3,0,.71.71,0,0,0-.76.56,1.3,1.3,0,0,0,0,.25v1.8h-1.1Z"/><path class="cls-3" d="M49.56,40.53a4.61,4.61,0,0,0,.06.86h-1L48.55,41h0a1.28,1.28,0,0,1-1,.44,1.09,1.09,0,0,1-1.15-1.09c0-.92.83-1.36,2.08-1.36v0c0-.2-.1-.47-.65-.47a2,2,0,0,0-1,.27l-.2-.71A2.92,2.92,0,0,1,48,37.75a1.38,1.38,0,0,1,1.55,1.54Zm-1.07-.82c-.58,0-1,.14-1,.56a.4.4,0,0,0,.44.42.61.61,0,0,0,.57-.41.79.79,0,0,0,0-.19Z"/><path class="cls-3" d="M50.21,40.43a2.16,2.16,0,0,0,1,.26c.33,0,.47-.11.47-.29s-.11-.28-.52-.41c-.74-.25-1-.65-1-1.07,0-.67.57-1.17,1.45-1.17a2.33,2.33,0,0,1,1,.21l-.19.76a1.78,1.78,0,0,0-.77-.2c-.27,0-.42.11-.42.28s.14.26.57.41c.68.23,1,.58,1,1.1,0,.67-.52,1.15-1.53,1.15A2.51,2.51,0,0,1,50,41.22Z"/><path class="cls-3" d="M54.44,36.57a9.76,9.76,0,0,1,1.49-.11,3.19,3.19,0,0,1,2,.52,2.17,2.17,0,0,1,.83,1.85,2.5,2.5,0,0,1-.81,2,3.54,3.54,0,0,1-2.27.63,9.53,9.53,0,0,1-1.26-.07Zm1.1,4a2.08,2.08,0,0,0,.39,0,1.53,1.53,0,0,0,1.67-1.71A1.41,1.41,0,0,0,56,37.31a2.36,2.36,0,0,0-.5,0Z"/><path class="cls-3" d="M60.41,36.85a.55.55,0,0,1-.6.55.55.55,0,1,1,.6-.55Zm-1.14,4.54V37.84h1.1v3.55Z"/><path class="cls-3" d="M61,39c0-.44,0-.81,0-1.13h1l.05.49h0a1.28,1.28,0,0,1,1.1-.57c.73,0,1.27.49,1.27,1.53v2.1h-1.1v-2c0-.46-.16-.77-.56-.77a.61.61,0,0,0-.57.41.79.79,0,0,0,0,.28v2H61Z"/><path class="cls-3" d="M65.93,40c0,.46.49.68,1,.68a2.93,2.93,0,0,0,1-.15l.15.75a3.36,3.36,0,0,1-1.29.22,1.7,1.7,0,0,1-1.9-1.81,1.78,1.78,0,0,1,1.79-1.9,1.58,1.58,0,0,1,1.58,1.77,2.61,2.61,0,0,1,0,.44Zm1.3-.76a.64.64,0,0,0-.62-.72.73.73,0,0,0-.68.72Z"/><path class="cls-3" d="M68.7,39c0-.52,0-.86,0-1.17h.94l0,.65h0a1,1,0,0,1,1-.74l.23,0v1a1.66,1.66,0,0,0-.3,0,.71.71,0,0,0-.76.56,1.3,1.3,0,0,0,0,.25v1.8H68.7Z"/><path class="cls-3" d="M74.69,39.57a1.78,1.78,0,0,1-1.87,1.9A1.74,1.74,0,0,1,71,39.64a1.78,1.78,0,0,1,1.9-1.89A1.73,1.73,0,0,1,74.69,39.57Zm-2.57,0c0,.61.25,1.07.73,1.07s.7-.43.7-1.08-.2-1.06-.7-1.06S72.12,39.09,72.12,39.61Z"/><path class="cls-3" d="M74.83,40.8a.65.65,0,1,1,.64.67A.64.64,0,0,1,74.83,40.8Z"/><path class="cls-3" d="M78.75,41.39l-1.57-4.9h1.21l.6,2.07c.17.59.32,1.14.44,1.75h0c.12-.59.28-1.17.44-1.73l.62-2.09h1.18L80,41.39Z"/><path class="cls-3" d="M82.9,36.85a.55.55,0,0,1-.6.55.55.55,0,1,1,.6-.55Zm-1.14,4.54V37.84h1.1v3.55Z"/><path class="cls-3" d="M84.36,37.84l.48,1.65c.09.3.15.58.2.86h0c.06-.29.12-.56.2-.86l.46-1.65h1.16l-1.32,3.55h-1.1l-1.29-3.55Z"/><path class="cls-3" d="M87.91,40c0,.46.49.68,1,.68a2.93,2.93,0,0,0,1-.15l.15.75a3.36,3.36,0,0,1-1.29.22,1.7,1.7,0,0,1-1.9-1.81,1.78,1.78,0,0,1,1.79-1.9,1.58,1.58,0,0,1,1.58,1.77,2.6,2.6,0,0,1,0,.44Zm1.3-.76a.64.64,0,0,0-.62-.72.73.73,0,0,0-.68.72Z"/><path class="cls-3" d="M90.67,40.43a2.16,2.16,0,0,0,1,.26c.33,0,.47-.11.47-.29s-.11-.28-.52-.41c-.74-.25-1-.65-1-1.07,0-.67.57-1.17,1.45-1.17A2.33,2.33,0,0,1,93,38l-.19.76a1.78,1.78,0,0,0-.77-.2c-.27,0-.42.11-.42.28s.14.26.57.41c.68.23,1,.58,1,1.1,0,.67-.52,1.15-1.53,1.15a2.51,2.51,0,0,1-1.15-.25Z"/><path class="cls-3" d="M99,39.52c0-.59,0-1.3,0-2h0c-.16.62-.36,1.32-.55,1.9l-.6,1.91H97l-.52-1.89c-.16-.58-.32-1.28-.44-1.92h0c0,.66-.05,1.42-.08,2l-.09,1.86h-1l.31-4.9h1.47l.48,1.63c.16.57.31,1.18.41,1.75h0c.13-.57.3-1.21.46-1.76l.52-1.63h1.45l.26,4.9H99.12Z"/><path class="cls-3" d="M101.66,40c0,.46.49.68,1,.68a2.93,2.93,0,0,0,1-.15l.15.75a3.36,3.36,0,0,1-1.29.22,1.7,1.7,0,0,1-1.9-1.81,1.78,1.78,0,0,1,1.79-1.9A1.58,1.58,0,0,1,104,39.53a2.62,2.62,0,0,1,0,.44Zm1.3-.76a.64.64,0,0,0-.62-.72.73.73,0,0,0-.68.72Z"/><path class="cls-3" d="M103.7,42.09a1,1,0,0,0,.65-.23c.16-.17.22-.45.22-1.15V37.84h1.1V41a2,2,0,0,1-.5,1.55,2,2,0,0,1-1.37.44Zm2-5.24a.55.55,0,0,1-.6.55.55.55,0,1,1,.6-.55Z"/><path class="cls-3" d="M109.83,39.57a1.78,1.78,0,0,1-1.87,1.9,1.74,1.74,0,0,1-1.84-1.83,1.78,1.78,0,0,1,1.9-1.89A1.73,1.73,0,0,1,109.83,39.57Zm-2.57,0c0,.61.25,1.07.73,1.07s.7-.43.7-1.08-.2-1.06-.7-1.06S107.26,39.09,107.26,39.61Z"/><path class="cls-3" d="M110.3,39c0-.52,0-.86,0-1.17h.94l0,.65h0a1,1,0,0,1,1-.74l.23,0v1a1.65,1.65,0,0,0-.3,0,.71.71,0,0,0-.76.56,1.29,1.29,0,0,0,0,.25v1.8h-1.1Z"/><path class="cls-3" d="M112.29,40.8a.65.65,0,1,1,.64.67A.63.63,0,0,1,112.29,40.8Z"/><rect class="cls-4" width="171.97" height="53.72"/></g></g></svg>