<svg xmlns="http://www.w3.org/2000/svg" viewBox="0 0 156.39 30.41"><defs><style>.cls-1{fill:#231f20;}.cls-2{fill:#cf0a2c;}</style></defs><title>Asset 15</title><g id="Layer_2" data-name="Layer 2"><g id="Layer_1-2" data-name="Layer 1"><path class="cls-1" d="M93.34.36l.12-.14L93.18,0c-5.63,4.35-13.3,11.35-16.7,19.66l-2.4-2.52-.28.32-.27-.28-.59.7a34.73,34.73,0,0,0-3.37,4.4l-.09.16v0l.15.14A45,45,0,0,1,76.09,30l.07.1h.3l.08.11.11.16h.8l.08-.27C80.31,20.61,83.3,11.3,90.16,3.85L91.6,2.39l1.34-1.34.57-.57Z"/><path class="cls-1" d="M34.19,9.73a1.89,1.89,0,0,0-.55,3.7,1.94,1.94,0,0,0,2.51-.23A2,2,0,0,0,34.9,9.86,1.9,1.9,0,0,0,34.19,9.73Zm82.21,3.89a1.94,1.94,0,0,0,2.51-.23,2,2,0,0,0-1.24-3.33,1.88,1.88,0,0,0-.72-.14,1.84,1.84,0,0,0-1.34.55h0a1.91,1.91,0,0,0,.79,3.15Zm22-.09a1.94,1.94,0,0,0,2.51-.23,1.91,1.91,0,0,0,.57-1.38,1.95,1.95,0,0,0-1.81-2,1.89,1.89,0,0,0-.72-.14,1.89,1.89,0,0,0-.55,3.7Zm-105-4.65a2.89,2.89,0,0,1,1.66-.65.66.66,0,0,0,.51-.29.89.89,0,0,0,.19-.55c0-.69-.48-.73-.58-.73H35a.49.49,0,0,0-.33-.13,16.45,16.45,0,0,0-1.69.1h0a14.3,14.3,0,0,1-1.54.1c-.42,0-.95,0-1.57-.1s-1.31-.1-1.82-.1a.53.53,0,0,0-.47.27.52.52,0,0,0-.35-.14H27a.44.44,0,0,0-.31-.13c-.53,0-1.2,0-2,.12-.6.05-1.06.08-1.37.08s-1,0-1.66-.1-1.34-.1-1.84-.1a.51.51,0,0,0-.43.26l0,0a.59.59,0,0,0-.42-.18h-.22a.51.51,0,0,0-.34-.13c-.69,0-1.41,0-2.12.1s-1.32.1-1.93.1a14.88,14.88,0,0,1-1.74-.1,17.3,17.3,0,0,0-1.93-.1.46.46,0,0,0-.42.28.59.59,0,0,0-.39-.15H9.6a.51.51,0,0,0-.34-.13c-.69,0-1.5,0-2.39.1s-1.58.1-2.2.1-1.26,0-1.94-.1-1.49-.1-2.18-.1c-.18,0-.55.07-.55.71a.74.74,0,0,0,.18.48.58.58,0,0,0,.45.23H.68a.64.64,0,0,0,.5.26,4.88,4.88,0,0,1,1.24.29l.27.19a6,6,0,0,1,1.44,2.21L11.84,28.6a.7.7,0,0,0,.61.41.82.82,0,0,0,.67.28.84.84,0,0,0,.74-.42l4.51-8.24,3.82,8h0a.77.77,0,0,0,.61.38.8.8,0,0,0,.62.28.72.72,0,0,0,.75-.46h0L32,11.14A6.67,6.67,0,0,1,33.44,8.87ZM14,23.49,8.29,10.36a2.09,2.09,0,0,1-.22-.79,1.06,1.06,0,0,1,.45-.89,2.68,2.68,0,0,1,1.43-.46.41.41,0,0,0,.29-.12.62.62,0,0,0,.15-.29.52.52,0,0,0,.31.14h.1a.62.62,0,0,0,.49.26,3.71,3.71,0,0,1,.83.18l.18.14a9.07,9.07,0,0,1,1.43,2.37L17,17.83Zm3.74-13.16A3.37,3.37,0,0,1,17.31,9c0-.46.58-.74,1.72-.82a.41.41,0,0,0,.3-.12.58.58,0,0,0,.13-.22.43.43,0,0,0,.24.07h.12a.49.49,0,0,0,.44.26,3.54,3.54,0,0,1,.85.13,1,1,0,0,1,.35.83A3.14,3.14,0,0,1,21,10.54l-1.66,3.1Zm11.68.24L24,23.11l-3.27-6.66,2.86-5.28a8.28,8.28,0,0,1,1.72-2.35,3.52,3.52,0,0,1,1.75-.6A.63.63,0,0,0,27.54,8a.69.69,0,0,0,.13-.19.42.42,0,0,0,.28.1h.12a.49.49,0,0,0,.44.26,3.45,3.45,0,0,1,.82.12,1.11,1.11,0,0,1,.39.93A3.48,3.48,0,0,1,29.43,10.56Zm126.1,14h-.07l-.1,0a.57.57,0,0,0-.39-.17h-.06l-.21.08,0,.07A5,5,0,0,1,153,26a4.37,4.37,0,0,1-2.07.56,5.83,5.83,0,0,1-.87-.06,3.42,3.42,0,0,1-1.64-1,5.31,5.31,0,0,1-1.09-3.6c0-.41,0-.84.07-1.37h8.11c.68,0,.92-.41.92-.8A5.12,5.12,0,0,0,154.65,16a5.79,5.79,0,0,0-3.09-1.57,6.48,6.48,0,0,0-1.74-.23,6.31,6.31,0,0,0-4.92,2.2A7.8,7.8,0,0,0,143,21.68a7.4,7.4,0,0,0,2,5.21,6.63,6.63,0,0,0,2.2,1.59,6.54,6.54,0,0,0,3.24.81,6,6,0,0,0,2.57-.58,7.59,7.59,0,0,0,2.25-1.65c1-1,1.09-1.36,1.09-1.6a1,1,0,0,0-.21-.62A.7.7,0,0,0,155.53,24.53Zm-6.93-7.67a2.28,2.28,0,0,1,1.79-.88,2.87,2.87,0,0,1,.95.15,2.42,2.42,0,0,1,.33.27,2.29,2.29,0,0,1,.71,1.73.34.34,0,0,1-.23.36,3.69,3.69,0,0,1-1.27.16l-3.21.09A4.8,4.8,0,0,1,148.6,16.87ZM144,27.23l-.35-.05a.57.57,0,0,0-.22-.08l-.29,0a1.25,1.25,0,0,1-.62-.33c-.11-.14-.3-.54-.3-1.74V20.15c0-1.25.09-3,.26-5.33a.6.6,0,0,0-.17-.43.85.85,0,0,0-.62-.21h-.06a.86.86,0,0,0-.51-.13.72.72,0,0,0-.56.29h0a3.72,3.72,0,0,1-1.18.69,15.21,15.21,0,0,1-2.27.77,1.11,1.11,0,0,0,0-.24c0-.76-.51-.8-.61-.8h-.22a.51.51,0,0,0-.34-.13,9.29,9.29,0,0,0-1.09.08,11.63,11.63,0,0,1-1.49.11,13.58,13.58,0,0,1-1.43-.1,13.33,13.33,0,0,0-1.44-.1c-.13,0-.54.05-.54.71s.35.7.5.71l.13,0a.61.61,0,0,0,.42.25l.36.06a.17.17,0,0,1,0,.09c0,.05-.06.37-1.05,1.73l-.82,1.12-.69-1c-.85-1.17-.92-1.56-.92-1.64s.36-.33.94-.4c.17,0,.56-.14.56-.78s-.51-.8-.61-.8h-.22a.51.51,0,0,0-.34-.13c-.43,0-1,0-1.65.1s-1.35.1-1.84.1-1.08,0-1.78-.1-1.18-.1-1.61-.1c-.13,0-.54.05-.54.71s.35.69.5.71l.13,0a.61.61,0,0,0,.43.26,4.58,4.58,0,0,1,1.09.24l0,0a9.33,9.33,0,0,1,1.71,2l2.53,3.52-2.08,2.51a12,12,0,0,1-1.85,1.94l-.1.07a3.77,3.77,0,0,1-1.93.49H121l-.18,0a1.11,1.11,0,0,1-.55-.32c-.11-.13-.3-.54-.3-1.74V20.15c0-1.26.09-3.05.26-5.33h0a.6.6,0,0,0-.17-.43.85.85,0,0,0-.63-.21h-.05a.86.86,0,0,0-.51-.13.72.72,0,0,0-.56.29,3.77,3.77,0,0,1-1.18.69,15.9,15.9,0,0,1-2.57.85c-.24,0-.48.21-.48.66s.35.69.5.7l.12,0a.57.57,0,0,0,.44.26,4,4,0,0,1,.59.11l0,0c.09.11.25.45.25,1.43v5.7c0,1.22-.2,1.65-.31,1.79s-.51.4-1.5.53c-.15,0-.5.13-.5.7s.41.72.54.72h.08a.58.58,0,0,0,.49.28c.43,0,1,0,1.64-.1s1.25-.09,1.74-.09a15.73,15.73,0,0,1,1.76.1,14.42,14.42,0,0,0,1.6.1h.3a7.48,7.48,0,0,0,1.1-.09,9.64,9.64,0,0,1,1.44-.11h.18a13.6,13.6,0,0,1,1.43.1,12.58,12.58,0,0,0,1.42.1c.1,0,.61,0,.61-.8s-.4-.76-.53-.78l-.43-.09-.14,0c-.22-.08-.33-.17-.33-.24s0-.3,1-1.67l.91-1.32.76,1.06c.83,1.17.92,1.58.92,1.7,0,.3-.59.42-.95.47-.15,0-.5.13-.5.7s.41.72.54.72h.08a.58.58,0,0,0,.49.27c.42,0,1,0,1.73-.1s1.4-.1,1.91-.1l2.63.14c.84,0,2.2,0,2.55,0,.69-.06,1.3-.1,1.79-.1s1.1,0,1.82.1,1.22.1,1.65.1c.1,0,.61,0,.61-.8S144.16,27.25,144,27.23Zm-5.73-2.44a3.11,3.11,0,0,1-.32,1.79,4.09,4.09,0,0,1-1.69.52h0l-.35,0a3,3,0,0,1-.75-.37,9.39,9.39,0,0,1-1.74-1.94v0c-.05-.12-.3-.46-1.08-1.56l-1.44-2,1.93-2.57a11.57,11.57,0,0,1,1.84-1.78,4.32,4.32,0,0,1,1.7-.53,1,1,0,0,0,0,.18c0,.6.35.69.5.7l.12,0a.57.57,0,0,0,.44.26,4,4,0,0,1,.59.11l0,0c.09.11.25.45.25,1.43ZM69.83,27.23l-.36-.06a.58.58,0,0,0-.21-.07l-.25,0a1.28,1.28,0,0,1-.63-.34c-.11-.14-.3-.54-.3-1.75V19.09a4.81,4.81,0,0,0-1.28-3.49,4.33,4.33,0,0,0-2.48-1.23,5.89,5.89,0,0,0-1.6-.21,5.43,5.43,0,0,0-3.09,1.16l0-.5c0-.15-.06-.63-.79-.63h-.05a.86.86,0,0,0-.51-.13.73.73,0,0,0-.56.28h0a3.92,3.92,0,0,1-1.18.71,13.7,13.7,0,0,1-2.47.84c-.24,0-.48.21-.48.66,0,.65.41.7.54.7h0l.12,0a.57.57,0,0,0,.44.26,4.13,4.13,0,0,1,.65.12h0c.09.11.25.45.25,1.43v5.7a3,3,0,0,1-.32,1.78c-.14.17-.52.41-1.52.54a2,2,0,0,1-.52,0l-.12,0a1.19,1.19,0,0,1-.58-.32c-.11-.14-.3-.54-.3-1.75V19.09a4.81,4.81,0,0,0-1.28-3.49,4.34,4.34,0,0,0-2.48-1.23,5.89,5.89,0,0,0-1.6-.21,5.42,5.42,0,0,0-3.09,1.16l0-.5c0-.15-.06-.63-.8-.63H43a.86.86,0,0,0-.51-.13.73.73,0,0,0-.56.28,3.94,3.94,0,0,1-1.18.71,13.7,13.7,0,0,1-2.47.84c-.24,0-.48.21-.48.66,0,.65.41.7.54.7h0l.11,0a.57.57,0,0,0,.44.26,4.13,4.13,0,0,1,.65.12h0c.09.11.25.45.25,1.43v5.7a3,3,0,0,1-.32,1.78c-.14.17-.52.41-1.52.53h-.14l-.29,0a1.24,1.24,0,0,1-.61-.33c-.11-.13-.3-.54-.3-1.74V20.15c0-1.26.09-3.05.26-5.33h0c0-.16-.06-.64-.79-.64H36a.86.86,0,0,0-.51-.13.72.72,0,0,0-.56.29A3.75,3.75,0,0,1,33.7,15a15.93,15.93,0,0,1-2.57.85c-.24,0-.48.21-.48.66s.35.69.5.7l.12,0a.57.57,0,0,0,.44.26,4,4,0,0,1,.6.11l0,0c.09.11.25.45.25,1.43v5.7c0,1.22-.2,1.65-.31,1.79s-.51.4-1.5.53c-.15,0-.5.13-.5.7s.41.72.54.72h.08a.58.58,0,0,0,.49.27c.43,0,1,0,1.64-.1s1.3-.1,1.8-.1,1.1,0,1.81.1,1.2.12,1.65.12h.21c.46,0,1-.06,1.58-.12s1.2-.1,1.68-.1,1.07,0,1.72.1a15.19,15.19,0,0,0,1.57.1c.1,0,.61,0,.61-.8s-.43-.76-.56-.78l-.37-.06a.57.57,0,0,0-.2-.07h-.09a.93.93,0,0,1-.48-.31,3.54,3.54,0,0,1-.27-1.8V18.2a4.75,4.75,0,0,1,1.26-1A3.47,3.47,0,0,1,47.35,17a1.71,1.71,0,0,1,.31.28,3.64,3.64,0,0,1,.61,2.34v5.15A3.58,3.58,0,0,1,48,26.63a1.67,1.67,0,0,1-1.18.48c-.15,0-.5.13-.5.71s.41.72.54.72h.08a.57.57,0,0,0,.49.28A14.85,14.85,0,0,0,49,28.7c.64-.06,1.22-.1,1.72-.1s1.06,0,1.7.1l.18,0c.58.06,1.09.1,1.5.1h.21a14.72,14.72,0,0,0,1.49-.11h.15c.64-.06,1.2-.1,1.69-.1s1.07,0,1.72.1a15.21,15.21,0,0,0,1.57.1c.1,0,.61,0,.61-.8s-.43-.76-.56-.78l-.37-.06a.57.57,0,0,0-.2-.07h-.08a1,1,0,0,1-.48-.31,3.52,3.52,0,0,1-.27-1.8V18.19a4.75,4.75,0,0,1,1.26-1A3.47,3.47,0,0,1,63.22,17a1.67,1.67,0,0,1,.3.28,3.64,3.64,0,0,1,.61,2.34v5.15a3.58,3.58,0,0,1-.28,1.84,1.67,1.67,0,0,1-1.18.48c-.15,0-.5.13-.5.71s.41.72.54.72h.08a.58.58,0,0,0,.49.28,14.82,14.82,0,0,0,1.56-.1c.64-.06,1.22-.1,1.72-.1s1.06,0,1.7.1a14.73,14.73,0,0,0,1.54.1c.1,0,.61,0,.61-.8S70,27.25,69.83,27.23Zm41-17.38A11.41,11.41,0,0,0,105.2,7a15.33,15.33,0,0,0-3.68-.42l-2.75,0-2.83,0c-2.5,0-4.37,0-5.55-.13-.15,0-.56.05-.56.71s.37.71.51.71h.11a.57.57,0,0,0,.44.26,8.78,8.78,0,0,1,1.82.37A1.08,1.08,0,0,1,93,9a2.85,2.85,0,0,1,.22,1.36V24.79A2.69,2.69,0,0,1,93,26.14a1.55,1.55,0,0,1-.8.57,8.64,8.64,0,0,1-1.89.39c-.15,0-.5.13-.5.7s.41.72.54.72h.08a.57.57,0,0,0,.49.28c1.81-.09,3.68-.13,5.57-.13l2.82.07,2.75.07a12.61,12.61,0,0,0,8.83-3,10.29,10.29,0,0,0,3.29-7.92A10.5,10.5,0,0,0,110.84,9.86ZM107.21,24.3a7.55,7.55,0,0,1-5.83,2.64l-2.9-.09h-.24c-.44-.19-.65-.59-.65-1.25V10c0-1,.45-1.39,1.47-1.42L102,8.49H102a7.42,7.42,0,0,1,3.07.63,7.89,7.89,0,0,1,2.15,1.78,10.06,10.06,0,0,1,2.33,6.78A9.6,9.6,0,0,1,107.21,24.3Z"/><path class="cls-2" d="M113.27,17.68a9.9,9.9,0,0,1-3.17,7.65q-3.17,2.91-8.58,2.91-.68,0-2.74-.07t-2.83-.07q-2.86,0-5.57.13c-.16,0-.25-.14-.25-.43s.08-.4.25-.42a8.85,8.85,0,0,0,2-.41,1.82,1.82,0,0,0,.94-.69,3,3,0,0,0,.27-1.51V10.35a3.22,3.22,0,0,0-.25-1.5,1.75,1.75,0,0,0-.93-.7,8.67,8.67,0,0,0-2-.42c-.16,0-.25-.14-.25-.42s.08-.42.25-.42q1.8.13,5.57.13l2.83,0,2.74,0a12,12,0,0,1,8.51,3A10.1,10.1,0,0,1,113.27,17.68Zm-3.39,0a10.31,10.31,0,0,0-2.4-7,7.6,7.6,0,0,0-6-2.78h-.09L98.49,8Q96.67,8,96.67,9.77V25.38a1.58,1.58,0,0,0,1.82,1.76l2.9.09a7.79,7.79,0,0,0,6-2.73A9.84,9.84,0,0,0,109.88,17.68Z"/><path class="cls-2" d="M155.46,19.49c0,.29-.19.43-.56.43h-8.45a15.69,15.69,0,0,0-.09,1.74,5.63,5.63,0,0,0,1.18,3.84,4.23,4.23,0,0,0,3.35,1.34,4.64,4.64,0,0,0,2.2-.59,5.24,5.24,0,0,0,1.79-1.52l.08,0a.36.36,0,0,1,.27.17.64.64,0,0,1,.13.4q0,.32-1,1.35a7.2,7.2,0,0,1-2.14,1.57,5.64,5.64,0,0,1-2.42.54,6.11,6.11,0,0,1-4.66-2,7.09,7.09,0,0,1-1.89-5,7.48,7.48,0,0,1,1.86-5.13,6,6,0,0,1,4.7-2.1,5.55,5.55,0,0,1,4,1.57A4.75,4.75,0,0,1,155.46,19.49Zm-2.8-1.36a2.59,2.59,0,0,0-.79-1.94,2.81,2.81,0,0,0-2-.77,2.65,2.65,0,0,0-2.06,1,5.51,5.51,0,0,0-1.18,2.64l4.29-.12a4.07,4.07,0,0,0,1.38-.19A.62.62,0,0,0,152.66,18.14Z"/><path class="cls-2" d="M116.95,10.21a1.59,1.59,0,0,0-1.13,2.72,1.58,1.58,0,0,0,2.26,0,1.59,1.59,0,0,0-1.13-2.72Z"/><path class="cls-2" d="M138.95,10.12a1.59,1.59,0,0,0-1.13,2.72,1.58,1.58,0,0,0,2.26,0,1.59,1.59,0,0,0-1.13-2.72Z"/><path class="cls-2" d="M34.19,10a1.59,1.59,0,0,0-1.13,2.72,1.58,1.58,0,0,0,2.26,0,1.55,1.55,0,0,0,.47-1.12,1.53,1.53,0,0,0-.47-1.14A1.55,1.55,0,0,0,34.19,10Z"/><path class="cls-2" d="M.64,7.66a4.15,4.15,0,0,1,2.23.81A6.24,6.24,0,0,1,4.4,10.8l7.71,17.69a.44.44,0,0,0,.45.25.48.48,0,0,0,.43-.25L18,19.26l4.41,9.22a.47.47,0,0,0,.42.25q.35,0,.42-.25L31.15,10.8a6.93,6.93,0,0,1,1.49-2.4,3.23,3.23,0,0,1,1.86-.74.32.32,0,0,0,.25-.15.54.54,0,0,0,.12-.33q0-.36-.22-.36a15.89,15.89,0,0,0-1.66.1,14.61,14.61,0,0,1-1.57.1q-.65,0-1.6-.1T28,6.81c-.19,0-.28.14-.28.42s.06.42.18.42Q30,7.75,30,9.28a3.75,3.75,0,0,1-.31,1.4L23.79,24.4l-4-8.16,3-5.45a8.52,8.52,0,0,1,1.82-2.47,3.85,3.85,0,0,1,1.93-.67c.23,0,.34-.16.34-.48s-.06-.36-.19-.36q-.78,0-2,.11-.92.08-1.4.08-.66,0-1.69-.1t-1.82-.1c-.06,0-.12,0-.18.14a.5.5,0,0,0-.09.29c0,.28.06.42.18.42q2.06.09,2.06,1.52a3.39,3.39,0,0,1-.46,1.49l-2.21,4.13-2.23-4.52a3.82,3.82,0,0,1-.48-1.44q0-1,2.06-1.18c.1,0,.15-.14.15-.42s-.08-.42-.25-.42q-1,0-2.09.1t-2,.1a15.15,15.15,0,0,1-1.77-.1,16.85,16.85,0,0,0-1.89-.1c-.14,0-.22.14-.22.42a.47.47,0,0,0,.1.3.27.27,0,0,0,.21.13,3,3,0,0,1,1.77.67A9.22,9.22,0,0,1,14,10.8l3.37,7-3.69,6.89L7.39,10.3a2.41,2.41,0,0,1-.25-.93,1.41,1.41,0,0,1,.59-1.18,3,3,0,0,1,1.62-.53c.1,0,.15-.14.15-.42s-.08-.42-.25-.42q-1,0-2.37.1T4.68,7q-.92,0-2-.1T.55,6.81h0c-.16,0-.24.14-.24.42a.44.44,0,0,0,.11.3.29.29,0,0,0,.22.13Z"/><path class="cls-2" d="M143.42,27.39a2.7,2.7,0,0,1-1.72-.63,3.44,3.44,0,0,1-.38-2V20q0-1.91.26-5.36c0-.16-.14-.25-.43-.25a.44.44,0,0,0-.34.18,4.14,4.14,0,0,1-1.28.77,16.2,16.2,0,0,1-2.63.87c-.16,0-.24.13-.24.38s.08.41.24.41a2.09,2.09,0,0,1,1.37.51,2.8,2.8,0,0,1,.31,1.62v5.7a3.49,3.49,0,0,1-.38,2,4.11,4.11,0,0,1-1.93.63,3.39,3.39,0,0,1-1.86-.6,9.59,9.59,0,0,1-1.82-2L129.9,21,132,18.26a11.92,11.92,0,0,1,1.93-1.86,4.91,4.91,0,0,1,2-.62c.19,0,.28-.16.28-.42s-.08-.43-.25-.43A9.11,9.11,0,0,0,135,15a11.83,11.83,0,0,1-1.53.11A13.86,13.86,0,0,1,132,15a12.86,12.86,0,0,0-1.41-.1c-.16,0-.25.14-.25.42s.08.4.25.42q1.2.16,1.2.72a5.49,5.49,0,0,1-1.11,1.9l-1.32,1.79L128,18.4a4.42,4.42,0,0,1-1-1.86c0-.41.42-.67,1.26-.76.16,0,.24-.16.24-.42s-.08-.43-.25-.43q-.63,0-1.62.1t-1.86.1q-.74,0-1.8-.1a15.91,15.91,0,0,0-1.59-.1c-.16,0-.25.14-.25.42s.08.4.25.42a3.82,3.82,0,0,1,1.8.58,9.53,9.53,0,0,1,1.78,2l2.66,3.7-2.23,2.68a12.11,12.11,0,0,1-1.91,2l0,0c-.22.13-.44.42-2.15.59a1.54,1.54,0,0,1-.3,0H121a2.22,2.22,0,0,1-1.54-.61,3.43,3.43,0,0,1-.38-2V20q0-1.91.26-5.36c0-.16-.14-.25-.43-.25a.44.44,0,0,0-.34.18,4.16,4.16,0,0,1-1.29.77,16.19,16.19,0,0,1-2.63.87c-.16,0-.24.13-.24.38s.08.41.24.41a2.09,2.09,0,0,1,1.37.51,2.81,2.81,0,0,1,.31,1.62v5.7a3.43,3.43,0,0,1-.38,2,2.65,2.65,0,0,1-1.69.63c-.16,0-.25.16-.25.42s.08.43.25.43q.63,0,1.6-.1c.69-.06,1.28-.09,1.78-.1h0c1.46,0,2.08.2,3.36.2h.3c.85,0,1.35-.21,2.54-.21H124a13.89,13.89,0,0,1,1.47.1,12.34,12.34,0,0,0,1.38.1c.16,0,.25-.14.25-.43s-.07-.4-.22-.42q-1.21-.17-1.21-.73a5.23,5.23,0,0,1,1.12-1.89l1.35-2,1.4,2a4.53,4.53,0,0,1,1,1.87q0,.6-1.2.76-.25,0-.25.42c0,.29.08.43.25.43q.61,0,1.69-.1T133,28c.26,0,1.48.09,2.64.14.84,0,2.18,0,2.49,0q1.07-.1,1.83-.1t1.85.1q1,.1,1.62.1c.16,0,.25-.14.25-.43S143.58,27.41,143.42,27.39Z"/><path class="cls-2" d="M69.22,27.39a2.65,2.65,0,0,1-1.69-.63,3.45,3.45,0,0,1-.38-2V18.89A4.44,4.44,0,0,0,66,15.65a4.35,4.35,0,0,0-3.26-1.2,6.29,6.29,0,0,0-4.11,2.09l.13-1.94q0-.25-.43-.25a.44.44,0,0,0-.34.18,4.35,4.35,0,0,1-1.28.78,13.94,13.94,0,0,1-2.54.86c-.16,0-.25.13-.25.38s.08.41.25.41a2.17,2.17,0,0,1,1.41.51,2.79,2.79,0,0,1,.32,1.62v5.7a3.38,3.38,0,0,1-.39,2,2.68,2.68,0,0,1-1.71.64,3.37,3.37,0,0,1-1.35-.19,1.55,1.55,0,0,1-.76-.44,3.44,3.44,0,0,1-.38-2V18.89a4.44,4.44,0,0,0-1.17-3.24,4.35,4.35,0,0,0-3.26-1.2,6.29,6.29,0,0,0-4.11,2.09l.13-1.94q0-.25-.43-.25a.45.45,0,0,0-.34.18,4.34,4.34,0,0,1-1.28.78,13.93,13.93,0,0,1-2.54.86c-.16,0-.25.13-.25.38s.08.41.25.41a2.17,2.17,0,0,1,1.41.51A2.79,2.79,0,0,1,40,19.08v5.7a3.38,3.38,0,0,1-.38,2,2.69,2.69,0,0,1-1.71.64h-.21A2.7,2.7,0,0,1,36,26.76a3.42,3.42,0,0,1-.38-2V20q0-1.91.26-5.36c0-.16-.14-.25-.43-.25a.44.44,0,0,0-.34.18,4.15,4.15,0,0,1-1.28.77,16.19,16.19,0,0,1-2.63.87c-.16,0-.24.13-.24.38s.08.41.24.41a2.09,2.09,0,0,1,1.37.51,2.81,2.81,0,0,1,.31,1.62v5.7a3.44,3.44,0,0,1-.38,2,2.66,2.66,0,0,1-1.69.63q-.25,0-.25.42c0,.29.08.43.25.43q.63,0,1.6-.1t1.83-.1q.74,0,1.85.1c.66.06,1.2.11,1.62.11h.21a15.43,15.43,0,0,0,1.54-.11q1-.1,1.72-.1t1.75.1a14.79,14.79,0,0,0,1.54.1c.16,0,.25-.14.25-.43s-.08-.4-.25-.42a1.88,1.88,0,0,1-1.39-.6,4,4,0,0,1-.33-2V17.85a5.23,5.23,0,0,1,1.47-1.2,3.49,3.49,0,0,1,1.57-.34,2.58,2.58,0,0,1,2.09.8,3.88,3.88,0,0,1,.68,2.53v5.15a4,4,0,0,1-.33,2,1.89,1.89,0,0,1-1.39.6c-.16,0-.25.16-.25.42s.08.43.24.43a14.64,14.64,0,0,0,1.52-.1q1-.1,1.76-.1t1.74.1H52c.59.06,1.09.1,1.48.1h.21a14.51,14.51,0,0,0,1.46-.11h.15q1-.1,1.72-.1t1.75.1a14.81,14.81,0,0,0,1.54.1c.16,0,.25-.14.25-.43s-.08-.4-.25-.42a1.88,1.88,0,0,1-1.39-.6,4,4,0,0,1-.33-2V17.85a5.22,5.22,0,0,1,1.47-1.2,3.49,3.49,0,0,1,1.57-.34,2.58,2.58,0,0,1,2.09.8,3.88,3.88,0,0,1,.68,2.53v5.15a4,4,0,0,1-.33,2,1.89,1.89,0,0,1-1.39.6q-.25,0-.25.42c0,.29.08.43.24.43a14.62,14.62,0,0,0,1.52-.1q1-.1,1.76-.1c.5,0,1.08,0,1.73.1a14.33,14.33,0,0,0,1.51.1c.16,0,.25-.14.25-.43S69.38,27.41,69.22,27.39Z"/><path class="cls-2" d="M76.46,20.56C79.66,12,87.26,4.8,93.11.26l.06.05C92.58.9,92,1.47,91.33,2.05S90,3.27,89.35,4c-7.08,7.69-10.2,17-12.79,25.83h-.22a45.36,45.36,0,0,0-6.45-7.41,34.76,34.76,0,0,1,3.3-4.31l.36-.42,2.87,3Z"/><path class="cls-1" d="M82.92,25.83a1.29,1.29,0,1,1-1.28,1.28,1.27,1.27,0,0,1,1.28-1.28Zm0,.2a1.09,1.09,0,1,0,1,1.09,1.06,1.06,0,0,0-1-1.09Zm-.24,1.83h-.23V26.43a2.57,2.57,0,0,1,.41,0,.76.76,0,0,1,.45.11.34.34,0,0,1,.13.3.36.36,0,0,1-.28.35h0c.13,0,.21.14.24.35a1.18,1.18,0,0,0,.09.35h-.24a1.06,1.06,0,0,1-.1-.37.27.27,0,0,0-.31-.25h-.16Zm0-.79h.17c.19,0,.35-.07.35-.25s-.09-.25-.35-.25h-.17Z"/></g></g></svg>