<svg xmlns="http://www.w3.org/2000/svg" viewBox="0 0 62.59 97"><defs><style>.cls-1{fill:#fff;}</style></defs><title>Asset 88</title><g id="Layer_2" data-name="Layer 2"><g id="Layer_1-2" data-name="Layer 1"><path class="cls-1" d="M44.66,79.92H17.76a3.3,3.3,0,1,0,0,6.61H44.66a3.3,3.3,0,0,0,0-6.61Z"/><path class="cls-1" d="M44.66,90.39H17.76a3.31,3.31,0,1,0,0,6.61H44.66a3.31,3.31,0,0,0,0-6.61Z"/><path class="cls-1" d="M33.06.05C32.5,0,31.92,0,31.35,0h-.1s-1,0-1.53,0A31.31,31.31,0,0,0,0,31.33C0,41.42,6,49.8,11,55.06l.12.12.12.12a5.69,5.69,0,0,1,1.25,1.53,8.86,8.86,0,0,1,.25,2.83v4.6A11.86,11.86,0,0,0,24.53,76.1H38.05A11.86,11.86,0,0,0,49.9,64.25V59.68a8.93,8.93,0,0,1,.25-2.85,5.74,5.74,0,0,1,1.25-1.53l.12-.12.12-.12c5-5.26,11-13.64,11-23.73A31.33,31.33,0,0,0,33.06.05Zm13.83,50.5a11.79,11.79,0,0,0-2.79,3.78,14.33,14.33,0,0,0-.74,5.35v4.58a5.3,5.3,0,0,1-5.3,5.3H24.54a5.3,5.3,0,0,1-5.3-5.3V59.68a14.34,14.34,0,0,0-.74-5.35,11.81,11.81,0,0,0-2.79-3.78c-4.94-5.2-9.15-12-9.15-19.22A24.79,24.79,0,0,1,30,6.57c.4,0,1.29,0,1.29,0q.68,0,1.36,0A24.78,24.78,0,0,1,56,31.33C56,38.52,51.83,45.35,46.89,50.55Z"/><path class="cls-1" d="M34.56,11.75a3.23,3.23,0,0,0-3.35,3,3.17,3.17,0,0,0,3,3.35A11.28,11.28,0,0,1,44.83,29.34a3.17,3.17,0,1,0,6.34,0A17.63,17.63,0,0,0,34.56,11.75Z"/></g></g></svg>