<svg xmlns="http://www.w3.org/2000/svg" viewBox="0 0 102.88 97"><defs><style>.cls-1{fill:#fff;}</style></defs><title>Asset 89</title><g id="Layer_2" data-name="Layer 2"><g id="Layer_1-2" data-name="Layer 1"><path class="cls-1" d="M41.84,10.16c-.48,12.66-2,20.08-9.34,31a6.89,6.89,0,0,0-4.8-2H6.93A7,7,0,0,0,0,46.13V87.68a7,7,0,0,0,6.93,6.93H27.7a6.9,6.9,0,0,0,5-2.16,25.08,25.08,0,0,0,2.71,1.95,17.66,17.66,0,0,0,7.47,2.27c6.09.63,15.67.16,37.95.25a3.49,3.49,0,0,0,2.2-.79c4.41-3.6,6.57-7.29,7.58-11.22a3.48,3.48,0,0,0,1-.83A17.79,17.79,0,0,0,95.7,70.73a3.46,3.46,0,0,0,.51-.51c3.88-4.84,5.11-10.58,3.72-15.4a13.39,13.39,0,0,0,2.89-9.63A11.45,11.45,0,0,0,96,36a3.48,3.48,0,0,0-1.37-.29H66.23c1.52-11.36.36-21.77-3.64-28.82A13.11,13.11,0,0,0,53.39.06C46.88-.5,41.86,2.73,41.84,10.16ZM51.91,6.88c1.79,0,3.79,1.58,4.65,3.46,3.15,5.55,4.63,16.48,2.38,28.21a3.62,3.62,0,0,0,3.39,4.11H93.64A4.23,4.23,0,0,1,95.92,46a6.61,6.61,0,0,1-1.84,4.76H78.46a3.46,3.46,0,1,0,0,6.93h15a10.55,10.55,0,0,1-1.8,6.93H78.46a3.46,3.46,0,1,0,0,6.93H88.81A10.55,10.55,0,0,1,87,78.45H78.46a3.46,3.46,0,1,0,0,6.93h4.69A14,14,0,0,1,79.32,90c-21-.06-31,.28-35.78-.22a9.58,9.58,0,0,1-4.62-1.33,48.41,48.41,0,0,1-4.29-3.28V50.06C45.46,35.58,48.2,25.45,48.77,10.49c.47-2.61,1.75-3.59,3.14-3.61Zm-45,39.25H27.7c-.08,13.76,0,27.69,0,41.56H6.93ZM17.31,72.68a4.62,4.62,0,1,0,4.62,4.62,4.62,4.62,0,0,0-4.62-4.62Z"/></g></g></svg>