<svg xmlns="http://www.w3.org/2000/svg" viewBox="0 0 77.58 96.32"><defs><style>.cls-1{fill:#fff;}</style></defs><title>Asset 91</title><g id="Layer_2" data-name="Layer 2"><g id="Layer_1-2" data-name="Layer 1"><path class="cls-1" d="M77.56,13.41v-.67a4,4,0,0,0-2.82-3.83C74.45,8.82,39.91,0,38.79,0A4,4,0,0,0,38,.08c-.2,0-34.51,8.63-35.13,8.82A4,4,0,0,0,0,12.74v.69c0,10,0,28.36,0,38.3S3.69,70.67,11.14,78.58c6.55,7,14.75,12.56,25.07,17.1a6,6,0,0,0,2.58.64,6.22,6.22,0,0,0,2.49-.59c10.36-4.55,18.6-10.16,25.17-17.15,7.44-7.91,11.19-16.94,11.14-26.86S77.55,23.45,77.56,13.41Zm-17,59.67c-5.65,6-12.78,10.91-21.81,15-9-4-16.15-8.94-21.81-15-6.07-6.45-9-13.42-9-21.31,0-9.19,0-25.54,0-35.91L38.79,8.14C43.13,9.22,62.12,14,69.53,15.86c0,10.37,0,26.71,0,35.91C69.6,59.66,66.67,66.63,60.6,73.08ZM55.36,29,34.57,53.71,22.85,43.16a4,4,0,0,0-5.37,6L32.29,62.46a4,4,0,0,0,2.68,1h.28A4,4,0,0,0,38,62.05L61.5,34.14A4,4,0,1,0,55.36,29Z"/></g></g></svg>