<svg xmlns="http://www.w3.org/2000/svg" viewBox="0 0 95.99 96"><defs><style>.cls-1{fill:#fff;}</style></defs><title>Asset 90</title><g id="Layer_2" data-name="Layer 2"><g id="Layer_1-2" data-name="Layer 1"><path class="cls-1" d="M95.6,41.77,95.28,39H92.8C75,39,61.8,43.25,53.41,51.63a5.45,5.45,0,0,0-.42.49l-.12.15A50.07,50.07,0,0,1,59.08,63C65.17,54,74.71,47.44,86.74,43.85l3.74-1.12-3.27,2.13a56.88,56.88,0,0,0-24,34.09A111.85,111.85,0,0,1,64,92.89q0,.22,0,.43A48.57,48.57,0,0,0,81.92,81.88,47.87,47.87,0,0,0,95.6,41.78Z"/><path class="cls-1" d="M3.19,39H.7L.39,41.77A48.1,48.1,0,0,0,48,96a46.51,46.51,0,0,0,5.88-.34l2.32-.28V92.9c0-16.48-2.35-29.8-13.81-41.26C33.86,43.13,21,39,3.19,39ZM47.45,87.2l-.61,0A39.08,39.08,0,0,1,8.9,49.28l0-.62.62,0c12.21.8,21.2,4,26.73,9.52,7.34,7.35,10.48,15.3,11.2,28.36Z"/><path class="cls-1" d="M47.89,9.9A38.32,38.32,0,0,1,73,19.46l.28.25-.24.62-2.15,2.83a2.36,2.36,0,0,0-.6,2.22,1.86,1.86,0,0,0,1.58,1l19,2.81a1.93,1.93,0,0,0,1.85-.47,1.92,1.92,0,0,0,0-1.9h0L85.14,9.2a1.86,1.86,0,0,0-1.36-1.27,2.36,2.36,0,0,0-2,1.14l-2.46,3.2-.45-.38A48.26,48.26,0,0,0,47.89,0,48.21,48.21,0,0,0,2.82,31.07h.37a58,58,0,0,1,7.18.58c.93.11,1.84.23,2.75.32A38.3,38.3,0,0,1,47.89,9.9Z"/></g></g></svg>