<svg viewBox="0 0 131.75 72.85" xmlns="http://www.w3.org/2000/svg"><g fill="#fff"><path d="m28.17 36.13a14.19 14.19 0 1 0 -14.17-14.19 14.19 14.19 0 0 0 14.17 14.19zm0-21.06a6.87 6.87 0 1 1 -6.87 6.87 6.88 6.88 0 0 1 6.87-6.87z"/><path d="m65.87 29.46a14.73 14.73 0 1 0 -14.73-14.73 14.75 14.75 0 0 0 14.73 14.73zm0-21.86a7.13 7.13 0 1 1 -7.13 7.13 7.14 7.14 0 0 1 7.13-7.13z"/><path d="m103.61 36.13a14.19 14.19 0 1 0 -14.19-14.19 14.19 14.19 0 0 0 14.19 14.19zm0-21.06a6.87 6.87 0 1 1 -6.87 6.87 6.88 6.88 0 0 1 6.87-6.87z"/><path d="m103.61 41.06a28.1 28.1 0 0 0 -13.17 3.29 21.72 21.72 0 0 0 -12.81-7.88 60.45 60.45 0 0 0 -23.45 0 21.8 21.8 0 0 0 -12.81 7.88 28.15 28.15 0 0 0 -41.37 24.84 3.65 3.65 0 0 0 3.66 3.66h124.43a3.65 3.65 0 0 0 3.66-3.66 28.18 28.18 0 0 0 -28.14-28.13zm-67.09 17.19v7.31h-28.87a20.78 20.78 0 0 1 30.14-14.78 22.25 22.25 0 0 0 -1.27 7.47zm51.4 7.29h-44.09v-7.32a14.84 14.84 0 0 1 11.75-14.6 53 53 0 0 1 20.62 0 14.85 14.85 0 0 1 11.72 14.63zm7.34 0v-7.32a22.48 22.48 0 0 0 -1.26-7.47 20.81 20.81 0 0 1 30.16 14.78z"/></g></svg>