<svg xmlns="http://www.w3.org/2000/svg" viewBox="0 0 57.07 107.44"><defs><style>.cls-1{fill:none;stroke:#579843;stroke-miterlimit:10;stroke-width:4.38px;}</style></defs><title>Asset 121</title><g id="Layer_2" data-name="Layer 2"><g id="Layer_1-2" data-name="Layer 1"><path class="cls-1" d="M9.21,2.33C.12,3.78,2,16.81,3.18,23.27A116.36,116.36,0,0,0,8.13,41.36l0,.05a4.26,4.26,0,0,0,3,6.51c2.08,4.84,4.85,12,6.94,16.4.64,1.36,1.6,3.59,2.7,6.22l-.06.07A4.27,4.27,0,0,0,22,76.5a4.22,4.22,0,0,0,1.39.55c3.17,7.84,6.37,16,6.37,16,3.6,14.61,16,12,16,12,8.78-1.63,10.45-15.54,8.2-20.82-.24-.57-.51-1.25-.79-2a4.26,4.26,0,0,0-2.65-7.62C49,70,47.28,65.14,45.77,61.94a4.26,4.26,0,0,0-3.13-7.68c-1.63-5.64-3-12.7-5.19-16.32-1.69-2.8-3.46-7.61-5.21-12.2a4.25,4.25,0,0,0-3-7.16,25,25,0,0,0-1.45-2.71C24.73,11,18.3.88,9.21,2.33Z"/><path class="cls-1" d="M45.78,105.08s-4.08-3.89-7.9-12.83S19.64,40,19.64,40"/><path class="cls-1" d="M12.33,28.57S3.61,13,6.75,3.13"/><path class="cls-1" d="M39.69,66.91S27.12,30,18.82,17.37c-5.39-8.22-6-10.67-9.61-15"/><path class="cls-1" d="M41.55,72.77"/><path class="cls-1" d="M34.76,56"/><path class="cls-1" d="M45,79.94s5.87,14.78,6,22"/><path class="cls-1" d="M32.55,99.52"/><path class="cls-1" d="M41.38,49.59"/><path class="cls-1" d="M46.32,55.47"/></g></g></svg>