<svg xmlns="http://www.w3.org/2000/svg" viewBox="0 0 64.84 117.9"><defs><style>.cls-1{fill:#579843;stroke:#579843;stroke-miterlimit:10;stroke-width:0.31px;}</style></defs><title>Asset 120</title><g id="Layer_2" data-name="Layer 2"><g id="Layer_1-2" data-name="Layer 1"><path class="cls-1" d="M64.64,87.92c-.31-6-1.81-11.87-3.26-17.53-.84-3.3-1.72-6.71-2.32-10-1.44-8-1.67-15.19-1.91-22.84-.07-2.29-.15-4.63-.25-7-.28-6.3-1.49-15.31-8.8-20.78A15.46,15.46,0,0,0,43.85,7.5a10.77,10.77,0,0,0-1.29-3.75C41.19,1.48,38.76.28,35.33.16s-5.93.94-7.45,3.11a10.78,10.78,0,0,0-1.53,3.65A15.52,15.52,0,0,0,22,8.82c-7.64,5-9.44,13.89-10.13,20.16-.26,2.4-.49,4.73-.71,7-.74,7.62-1.44,14.81-3.39,22.66-.82,3.29-1.92,6.64-3,9.87C2.95,74.09,1.07,79.84.37,85.82a29,29,0,0,0,6.47,22.33c5.84,6.78,14.8,10.12,24.67,9.12a34.48,34.48,0,0,0,4.53.46,27.3,27.3,0,0,0,20.68-8A29,29,0,0,0,64.64,87.92ZM31.52,5.81c.25-.36.91-1.31,3.67-1.22S38.54,5.67,38.77,6a3.52,3.52,0,0,1,.17.33,38.11,38.11,0,0,0-3.81-.31,37.62,37.62,0,0,0-3.8.06A3.61,3.61,0,0,1,31.52,5.81ZM53.57,106.68c-5.31,5.41-13.17,7.67-21.6,6.18l-.31,0h-.31c-8.51.93-16.2-1.84-21.15-7.58A24.59,24.59,0,0,1,4.76,86.34C5.41,80.8,7.22,75.26,9,69.91c1.08-3.31,2.2-6.73,3.06-10.18,2-8.17,2.75-15.52,3.5-23.31.22-2.27.44-4.57.7-7,.94-8.54,3.53-13.93,8.15-16.94,2.29-1.49,6-2.2,10.62-2.05s8.25,1.1,10.43,2.74c4.42,3.31,6.65,8.85,7,17.43.11,2.4.18,4.72.25,7,.25,7.82.48,15.2,2,23.49.63,3.5,1.53,7,2.39,10.36,1.4,5.45,2.85,11.09,3.13,16.66A24.58,24.58,0,0,1,53.57,106.68ZM29.8,15.22a1.76,1.76,0,0,1-1.26,2.11c-.15,0-3.54,1.28-5.13,8.76a53.18,53.18,0,0,0-1,10.09,1.76,1.76,0,0,1-3.51-.11A56.28,56.28,0,0,1,20,25.35c2.09-9.82,7.14-11.3,7.71-11.43A1.76,1.76,0,0,1,29.8,15.22Zm-3.11,92.27a1.76,1.76,0,0,1-1.8,1.57h-.14a18.28,18.28,0,0,1-12.43-6.72A20.24,20.24,0,0,1,8.24,87.24a1.76,1.76,0,1,1,3.49.4,16.75,16.75,0,0,0,3.33,12.49,14.59,14.59,0,0,0,10.06,5.42A1.76,1.76,0,0,1,26.69,107.49Z"/></g></g></svg>