<svg xmlns="http://www.w3.org/2000/svg" viewBox="0 0 84.86 134.81"><defs><style>.cls-1{fill:#579843;stroke:#579843;stroke-miterlimit:10;stroke-width:0.63px;}</style></defs><title>Asset 118</title><g id="Layer_2" data-name="Layer 2"><g id="Layer_1-2" data-name="Layer 1"><path class="cls-1" d="M83.61,34.33c-.5-.25-10.83-5.54-24.88-1.66a35.64,35.64,0,0,1,14.2-11.18,1.79,1.79,0,0,0,1.16-1.66,1.74,1.74,0,0,0-1.16-1.66,19.46,19.46,0,0,0-8.26-.9,23.09,23.09,0,0,0-13.54,6.3c-.45-6.34-2-17.78-7.41-22.76A1.73,1.73,0,0,0,41.3.8c-5.39,5-6.94,16.47-7.4,22.76a22.6,22.6,0,0,0-13.55-6.29,19.45,19.45,0,0,0-8.41.86,1.79,1.79,0,0,0-1.16,1.66,1.74,1.74,0,0,0,1.16,1.66c.1.05,8.71,3.52,14.2,11.18C12.1,28.76,1.73,34,1.27,34.3a1.82,1.82,0,0,0,.91,3.42c.15,0,12.89-.31,22.86,5.63C14.87,42.76,9.74,49,9.49,49.31a1.92,1.92,0,0,0-.15,2.06,1.8,1.8,0,0,0,1.91.81c7.86-1.61,11.28,2.87,14,6.44.2.3.45.55.65.86l-.3.3h0a35.35,35.35,0,0,0-3.83,4.63A39.92,39.92,0,0,0,18.05,71h0c-.25.55-.5,1.16-.75,1.71h0a53.22,53.22,0,0,0-3.87,19c0,.5-.05,1,0,1.56s0,1.11.05,1.71v.6c0,.4.05.86.05,1.26a54.23,54.23,0,0,0,3.33,15.86h0a45.56,45.56,0,0,0,4.94,9.47,31.17,31.17,0,0,0,5,5.74h0a20.26,20.26,0,0,0,2.87,2.27h0a23,23,0,0,0,13.09,4.28,22.67,22.67,0,0,0,12.49-3.88h0a31.41,31.41,0,0,0,8.46-8.46,43.3,43.3,0,0,0,3.17-5.39h0c.25-.55.55-1.11.81-1.66h0A53.17,53.17,0,0,0,72,96.52c0-.25.05-.55.05-.81a3.81,3.81,0,0,1,.05-.76c0-.55.05-1.16,0-1.71s0-1.16-.05-1.76A53.24,53.24,0,0,0,67.91,72h0c-.25-.55-.5-1.16-.76-1.71h0a45.65,45.65,0,0,0-3.43-5.94A34.68,34.68,0,0,0,59.09,59c.05-.1.15-.2.2-.3,2.62-3.73,5.89-8.31,14.35-6.6a1.79,1.79,0,0,0,1.81-.71,1.75,1.75,0,0,0,0-2C75.3,49,71,42.24,59.24,42.85c10-6.15,23.21-5.29,23.36-5.29a1.85,1.85,0,0,0,1.86-1.31A1.62,1.62,0,0,0,83.61,34.33ZM28.32,62.14l11,9.31L28.93,80.22l-8.11-6.8A35.9,35.9,0,0,1,28.32,62.14ZM42.18,96.08l11.23,9.46L42.18,115,31,105.5Zm-14,7.1L17.71,94.42,28.93,85l10.43,8.76Zm16.82-9.47,10.42-8.76L66.6,94.41l-10.42,8.76Zm-2.77-2.32L31.75,82.64l10.42-8.76L52.6,82.63ZM31.09,59.77a19.5,19.5,0,0,1,11.63-4,19.25,19.25,0,0,1,11,3.62L42.17,69.14ZM19.51,77l6.65,5.59L17,90.29A52.75,52.75,0,0,1,19.51,77ZM17.2,98.65l8.16,6.9-5.64,4.73A49.65,49.65,0,0,1,17.2,98.65Zm12.34,27a33.71,33.71,0,0,1-8.41-11.83l7-5.94,11.23,9.46Zm13.19,5.28a19.13,19.13,0,0,1-10.22-3.07l9.67-8.16,10.12,8.56A19,19,0,0,1,42.74,130.92Zm12.64-4.84L45,117.33l11.23-9.47L64,114.45A33.53,33.53,0,0,1,55.38,126.09ZM65.5,111,59,105.54l9.36-7.86A52.33,52.33,0,0,1,65.5,111Zm3-19.74L58.19,82.58l7.5-6.3A51.9,51.9,0,0,1,68.46,91.24ZM64.28,72.76l-8.86,7.51L45,71.5l11.63-9.77A34.67,34.67,0,0,1,64.28,72.76ZM51.63,44.56a1.76,1.76,0,0,0-.25,2.12,1.73,1.73,0,0,0,2,.81c7.55-1.92,12.44-.76,15.36.75-6.85.61-10.22,5.34-12.39,8.41,0,.05-.05.05-.05.1a22.85,22.85,0,0,0-13.6-4.63,23.27,23.27,0,0,0-14.1,5l-.5-.65c-2.17-2.82-5.44-7.15-11.43-8.05,3.17-1.46,8-2.42,14.65-.15a1.78,1.78,0,0,0,1.86-2.92C27.26,39,18.85,36.21,12.3,35a35.34,35.34,0,0,1,17.12,2.56,1.77,1.77,0,0,0,2-.4,1.85,1.85,0,0,0,.35-2C28.47,28,22.52,23.32,18.29,20.7c4.13,0,10.17,1.46,15.76,8.3a1.8,1.8,0,0,0,2,.55,1.85,1.85,0,0,0,1.21-1.71c0-4.73,1-17.32,5.23-23.11,4.23,5.79,5.24,18.38,5.24,23.11A1.85,1.85,0,0,0,49,29.56,1.82,1.82,0,0,0,51,29c5.44-6.85,11.48-8.31,15.61-8.31h.05C62.4,23.31,56.41,28,53.09,35.19a1.78,1.78,0,0,0,.35,2,1.7,1.7,0,0,0,2,.4A35.14,35.14,0,0,1,71,34.94C64.62,36.1,57.12,38.72,51.63,44.56Z"/></g></g></svg>