<svg xmlns="http://www.w3.org/2000/svg" viewBox="0 0 96.24 102.9"><defs><style>.cls-1{fill:#579843;stroke:#579843;stroke-miterlimit:10;stroke-width:0.16px;}</style></defs><title>Asset 122</title><g id="Layer_2" data-name="Layer 2"><g id="Layer_1-2" data-name="Layer 1"><path class="cls-1" d="M81.31.73A2.29,2.29,0,0,0,79.1.16L66.25,3.77a2.29,2.29,0,0,0-1.66,2.41l.93,10.14C53,22.24,48.26,32.58,42.08,39.56a23.84,23.84,0,0,1-12.14,7.93c-5.42,1.48-12.88,1.59-23.8-.8a2.29,2.29,0,0,0-2.67,1.56L.18,58.79A2.29,2.29,0,0,0,.67,61,44.75,44.75,0,0,0,18.93,72.29c10.16,3.18,24,2.77,38.82-9.16A39.06,39.06,0,0,1,37.66,87.88a2.29,2.29,0,0,0-1.13,2.77l2.78,8.3a2.29,2.29,0,0,0,1.28,1.38c10.76,4.55,21.32,2.52,30-3.23S86.15,82,90.64,71.57s6.54-21.9,5-32.12c-1.41-9.7-6.2-18.36-15.09-23.13L82,2.6A2.29,2.29,0,0,0,81.31.73ZM77.1,5.48,75.88,17.42a2.29,2.29,0,0,0,1.31,2.31c8.34,3.88,12.64,11.25,14,20.37S90.63,60,86.43,69.76,75.7,88.17,68,93.28C60.61,98.22,52.3,100,43.31,96.49L41.48,91C58.16,81.6,62.27,65.26,63.23,59.35c1.78-10,.8-19.33,1-28.21h0c.11-4.78,1-6,2-7.1s3.18-2.54,3.93-5.78l0-.09v-.05a2.29,2.29,0,0,0,0-.81l-.89-9.64L77.1,5.48ZM60.64,24.77a20.23,20.23,0,0,0-1,6.27h0c-.17,8.35.55,16.46-.51,24.79C43.57,70.73,30.2,71,20.3,67.92A40.69,40.69,0,0,1,5,58.84l2.25-7.25c10.31,2,17.93,2,23.93.31a28.89,28.89,0,0,0,14.36-9.31c5.22-5.9,8.78-12.63,15.13-17.83Z"/><path class="cls-1" d="M81.8,30.7a2.29,2.29,0,0,0-3.46,3c.86,1.24,1.94,4.86,2.09,9.49a50.93,50.93,0,0,1-2.27,16.17C74.58,71,66.49,83.25,50.58,89.73A2.29,2.29,0,0,0,52.25,94l0,0a51.41,51.41,0,0,0,30.23-33.3A55.27,55.27,0,0,0,85,43c-.16-5.15-1-9.25-2.91-12a2.29,2.29,0,0,0-.29-.35Z"/></g></g></svg>