<svg xmlns="http://www.w3.org/2000/svg" viewBox="0 0 89.29 91.25"><defs><style>.cls-1{fill:none;}.cls-2{fill:#579843;}</style></defs><title>Asset 119</title><g id="Layer_2" data-name="Layer 2"><g id="Layer_1-2" data-name="Layer 1"><path class="cls-1" d="M79.26,48.57a37.72,37.72,0,0,1,1.63,8.68A79.25,79.25,0,0,1,80.31,71l-.12.92.6-.71c2.15-2.56,3.53-7.38,3.64-10.55a19.93,19.93,0,0,0-5.19-14.21l-.64-.7.17.94C78.85,47.13,79,47.75,79.26,48.57Z"/><path class="cls-1" d="M61.88,35.62,61,35.17l.46.83a48.68,48.68,0,0,1,5.92,18.2c1,7.5,1.32,18.54-.12,26.26l-.09.48.46-.19a41.37,41.37,0,0,0,4.42-2.09l.22-.17C73,77.32,75.12,72.22,75,55.88,75,47.21,70.56,40.39,61.88,35.62Z"/><path class="cls-1" d="M21.05,61.31C19.48,49.07,24.21,38,28.44,30.79l.47-.8-1.13.56-.86.41-.12.09A37,37,0,0,0,15.19,61.31C16.69,77.8,20.5,82,22.07,83l.13.05c1.14.37,2.45.73,3.83,1l.53.12-.23-.5C24.07,78.77,22.34,71.43,21.05,61.31Z"/><path class="cls-1" d="M60.9,55c-2-15.31-9.57-22.23-12-24.06L48,30.72a15.86,15.86,0,0,1-2.76-.48l-.37-.1,0,.39c.33,3.42,1.12,10.52,3,24.91,2.24,17.07,3,25.29,3.31,29.18l0,.29.28,0c1.69-.23,3.42-.52,5.13-.87l1.08-.23c.62-.14,1.23-.27,1.84-.42l.92-.22-.43-.71.06-.21C61.35,78.23,62.56,67.73,60.9,55Z"/><path class="cls-1" d="M8.65,61.89a42.17,42.17,0,0,1,1-13.94l.53-2.17-1,2a31.85,31.85,0,0,0-3.58,14c-.17,6.1,1.47,10.87,5,14.58h0l.73.76-.27-1A79.61,79.61,0,0,1,8.65,61.89Z"/><path class="cls-1" d="M41.37,56.29c-1.9-14.56-3-23.21-3.2-27.24l0-.75-.45.6C33.18,35,25.87,47.17,27.54,60.48c2.85,22.24,7.13,24.79,8.38,25h.18c1.42.08,2.9.16,4.23.16s2.6,0,4.08-.13l.27,0,0-.27C44.38,81.36,43.58,73.16,41.37,56.29Z"/><path class="cls-2" d="M51.92,25.19H49.17c-1.19-.22-2.09-.37-2.83-.49a5.45,5.45,0,0,1-3.77-3.36c-.69-2-.2-4.56,1.45-7.66a12.46,12.46,0,0,0-4.17,1.74l-1.43.93-.47-1.64A33.76,33.76,0,0,1,37,0a27,27,0,0,0-4.61,14.3l0,1.85-1.71-.71-.73-.3c1.08,2.41,1.32,4.42.74,6.09s-2.11,3.06-4.44,3.89c-.07,0-.85.35-2.09,1l-.84.43C16.23,30.4.55,41.26,0,61.63-.46,77.88,10.52,85,19.81,88.19a7.17,7.17,0,0,0,2,.62,66.79,66.79,0,0,0,18.57,2.43c2,0,4-.07,5.9-.22,8.21-.62,19.94-2.48,29.2-7.85l.79-.46c8.4-5.19,12.79-12.3,13-21.15a33.19,33.19,0,0,0-9.76-24.2C72.14,29.74,61.83,25.19,51.92,25.19ZM9.9,77.05c-3.73-3.92-5.46-8.92-5.28-15.29A32.85,32.85,0,0,1,8.31,47.3l4.82-9.24L10.65,48.18a41.22,41.22,0,0,0-1,13.62A78.6,78.6,0,0,0,12,75.86l1.26,4.76ZM25.8,85.1c-1.41-.32-2.74-.69-4-1.09l-.25-.11c-1.75-1.15-5.84-5.58-7.38-22.5a38,38,0,0,1,12-31.11l.24-.17.94-.46.29-.14,3.83-1.93-2.19,3.7c-4.16,7-8.8,17.93-7.26,29.89,1.28,10,3,17.27,5.2,22.17l1,2.32Zm18.65,1.45c-1.5.09-2.86.13-4.14.13s-2.85-.08-4.3-.16l-.25,0c-2.3-.46-6.47-4.43-9.22-25.89C24.85,47,32.29,34.52,36.88,28.31L39,25.52l.2,3.47c.23,4,1.3,12.64,3.2,27.17,2.21,16.89,3,25.12,3.29,29l.09,1.27ZM62,83.76l-2.23.54L58,84.73l-3,.72.17-.15c-1.15.21-2.3.39-3.44.54L50.33,86l-.09-1.34c-.28-3.87-1.07-12.07-3.31-29.12-1.89-14.4-2.68-21.51-3-24.94l-.17-1.8,1.75.47a16.1,16.1,0,0,0,2.68.46l1.26.38c2.39,1.8,10.36,8.92,12.44,24.78,1.66,12.64.49,23.17-.73,27.36ZM73.18,79l-.17.29-.43.26A42.72,42.72,0,0,1,68,81.68l-2.13.85.42-2.25c1.42-7.62,1.08-18.53.11-26a47.72,47.72,0,0,0-5.8-17.84L58.5,32.64l3.86,2.12c9,5,13.62,12.06,13.67,21.12C76.12,72.46,73.87,77.75,73.18,79Zm12.23-18.3c-.11,3.35-1.58,8.44-3.87,11.16l-2.77,3.3.56-4.27a78.3,78.3,0,0,0,.58-13.56,36.77,36.77,0,0,0-1.59-8.45c-.25-.86-.43-1.5-.52-2L77,42.5l3,3.27A20.91,20.91,0,0,1,85.41,60.68Z"/></g></g></svg>