<svg xmlns="http://www.w3.org/2000/svg" viewBox="0 0 88.58 93.06"><defs><style>.cls-1{fill:#579843;stroke:#579843;stroke-miterlimit:10;stroke-width:2.3px;}</style></defs><title>Asset 117</title><g id="Layer_2" data-name="Layer 2"><g id="Layer_1-2" data-name="Layer 1"><path class="cls-1" d="M79.61,13.21c-.51-.51-2-1.94,1.83-5.81h0a3.74,3.74,0,0,0,.71-4.18,3.57,3.57,0,0,0-3.67-2c-28.34,2.75-36.7,19.27-39,29C34,51.74,23.64,65.51,7.54,72.23c-1,.41-2,.82-3.16,1.22a5,5,0,0,0-3.16,3.77,4.76,4.76,0,0,0,1.94,4.59A50.12,50.12,0,0,0,32.71,91.91c7.75,0,16.51-1.94,26.1-7,21.1-11.32,26.61-29.46,28-39.15C88.78,32.68,85.83,19.33,79.61,13.21Zm4.28,32.11c-1.33,9.17-6.52,26.2-26.5,36.9C32.92,95.38,14.06,86.1,5,79.47a1.84,1.84,0,0,1-.71-1.73,1.69,1.69,0,0,1,1.12-1.43C6.52,75.9,7.64,75.5,8.76,75,25.68,67.85,36.69,53.38,42.4,30.75c2.24-8.87,9.89-24.06,36.39-26.61h.1a.64.64,0,0,1,.51.31c.1.1.1.41-.1.71h0c-5.1,5.2-3.26,8.56-1.73,10.19C82.16,20,85.83,31.76,83.89,45.32Z"/><path class="cls-1" d="M64.52,25.14a1.53,1.53,0,1,0-.2,3.06A14,14,0,0,1,74.51,33.8a1.45,1.45,0,0,0,1.22.61,1.64,1.64,0,0,0,.92-.31A1.49,1.49,0,0,0,77,32,17.29,17.29,0,0,0,64.52,25.14Z"/><path class="cls-1" d="M68.19,18.92a1.45,1.45,0,0,0,1.22.61,1.64,1.64,0,0,0,.92-.31,1.49,1.49,0,0,0,.31-2.14,10,10,0,0,0-7.14-4,1.53,1.53,0,1,0-.2,3.06A6.7,6.7,0,0,1,68.19,18.92Z"/><path class="cls-1" d="M43.52,63.26a1.53,1.53,0,1,0-.2,3.06,14,14,0,0,1,10.19,5.61,1.45,1.45,0,0,0,1.22.61,1.64,1.64,0,0,0,.92-.31A1.49,1.49,0,0,0,56,70.09,17.85,17.85,0,0,0,43.52,63.26Z"/><path class="cls-1" d="M69,43.79a1.44,1.44,0,0,0-1.63,1.43,1.5,1.5,0,0,0,1.43,1.63,6.06,6.06,0,0,1,4.59,2.55,1.45,1.45,0,0,0,1.22.61,1.64,1.64,0,0,0,.92-.31,1.49,1.49,0,0,0,.31-2.14A9.52,9.52,0,0,0,69,43.79Z"/><path class="cls-1" d="M52,54.6a1.45,1.45,0,0,0,1.22.61,1.64,1.64,0,0,0,.92-.31,1.49,1.49,0,0,0,.31-2.14A17.1,17.1,0,0,0,42,45.93a1.53,1.53,0,1,0-.2,3.06A14,14,0,0,1,52,54.6Z"/><path class="cls-1" d="M31.19,72.74A1.53,1.53,0,0,0,31,75.8,5.74,5.74,0,0,1,35.16,78a1.45,1.45,0,0,0,1.22.61,1.64,1.64,0,0,0,.92-.31,1.49,1.49,0,0,0,.31-2.14A8.85,8.85,0,0,0,31.19,72.74Z"/></g></g></svg>